<svg xmlns="http://www.w3.org/2000/svg" viewBox="0 0 37.81 43.33"><defs><style>.cls-1{fill:#6f9841;}.cls-2{fill:#86bd44;}.cls-3{fill:#83b243;}.cls-4{fill:#f8e3a9;}</style></defs><title>資產 9</title><g id="圖層_2" data-name="圖層 2"><g id="圖層_7" data-name="圖層 7"><path class="cls-1" d="M13.51,12A15.1,15.1,0,0,1,23.39,1.54,15.1,15.1,0,0,1,13.51,12Z"/><path class="cls-1" d="M9.87,37.22A15.06,15.06,0,0,0,0,26.77,15.1,15.1,0,0,0,9.87,37.22Z"/><path class="cls-1" d="M27.94,41.32a15.08,15.08,0,0,1,9.87-10.45A15.1,15.1,0,0,1,27.94,41.32Z"/><polygon class="cls-2" points="9.93 43.33 17.45 43.33 13.15 0 5.62 0 9.93 43.33"/><polygon class="cls-3" points="16.24 31.13 16.11 29.65 14.51 13.69 14.37 12.21 13.15 0 10.81 0 15.27 43.33 17.46 43.33 16.24 31.13"/><polygon class="cls-2" points="28.57 43.33 21.04 43.33 25.34 0.88 32.87 0.88 28.57 43.33"/><polygon class="cls-3" points="32.87 0.88 30.63 0.88 26.31 43.33 28.57 43.33 32.87 0.88"/><ellipse class="cls-4" cx="29.11" cy="0.88" rx="3.76" ry="0.88"/><polygon class="cls-1" points="32.01 9.65 31.86 11.13 24.34 11.13 24.49 9.65 32.01 9.65"/><polygon class="cls-1" points="30.82 21.32 30.8 21.62 30.71 22.53 30.69 22.82 23.16 22.82 23.19 22.53 23.27 21.62 23.3 21.32 30.82 21.32"/><polygon class="cls-1" points="29.64 33.02 29.5 34.49 21.97 34.49 22.12 33.02 29.64 33.02"/><polygon class="cls-1" points="14.51 13.68 6.98 13.68 6.84 12.21 14.37 12.21 14.51 13.68"/><polygon class="cls-1" points="16.24 31.12 8.71 31.12 8.58 29.65 16.11 29.65 16.24 31.12"/></g></g></svg>