<svg xmlns="http://www.w3.org/2000/svg" xmlns:xlink="http://www.w3.org/1999/xlink" viewBox="0 0 33.83 42.83"><defs><style>.cls-1{fill:none;}.cls-2{isolation:isolate;}.cls-3{fill:#b18078;}.cls-4{fill:#805451;}.cls-5{fill:#f2deba;}.cls-6{fill:#b7302a;}.cls-7{fill:#dabe9e;}.cls-8{fill:#282c2d;}.cls-9{fill:#040000;}.cls-10{fill:#303233;}.cls-11{mix-blend-mode:lighten;}.cls-12{fill:#6a6d6d;}.cls-13{fill:#158464;}.cls-14{fill:#1b9074;}.cls-15{fill:#138167;}.cls-16{fill:#3ebcd6;}.cls-17{fill:#1ea2b6;}.cls-18{opacity:0.5;}.cls-19{fill:#246f43;}.cls-20{fill:#f7f0da;}.cls-21{fill:#ebbf5d;}.cls-22{fill:#76311d;}.cls-23{fill:#3a3b3b;}.cls-24{fill:#1c1b1c;}.cls-25{fill:#e9e8e8;}.cls-26{fill:#fffbfb;}.cls-27{clip-path:url(#clip-path);}.cls-28{fill:#231815;}.cls-29{fill:#241815;}.cls-30{fill:#241917;}.cls-31{fill:#261b18;}.cls-32{fill:#271b19;}.cls-33{fill:#281d19;}.cls-34{fill:#291e1a;}.cls-35{fill:#2a1e1c;}.cls-36{fill:#2b1f1d;}.cls-37{fill:#2c201d;}.cls-38{fill:#2d211f;}.cls-39{fill:#2e2220;}.cls-40{fill:#2f2321;}.cls-41{fill:#302422;}.cls-42{fill:#312523;}.cls-43{fill:#322623;}.cls-44{fill:#332725;}.cls-45{fill:#342825;}.cls-46{fill:#352926;}.cls-47{fill:#362a27;}.cls-48{fill:#372a28;}.cls-49{fill:#382b29;}.cls-50{fill:#392c2a;}.cls-51{fill:#3a2d2b;}.cls-52{fill:#3b2e2d;}.cls-53{fill:#3c2f2d;}.cls-54{fill:#3d302f;}.cls-55{fill:#3f312f;}.cls-56{fill:#403230;}.cls-57{fill:#413331;}.cls-58{fill:#423432;}.cls-59{fill:#433533;}.cls-60{fill:#443634;}.cls-61{fill:#453735;}.cls-62{fill:#463736;}.cls-63{fill:#473837;}.cls-64{fill:#483938;}.cls-65{fill:#493a39;}.cls-66{fill:#4a3b3a;}.cls-67{fill:#4b3c3a;}.cls-68{fill:#4b3d3c;}.cls-69{fill:#4c3e3c;}.cls-70{fill:#4d3f3e;}.cls-71{fill:#4e403f;}.cls-72{fill:#4f4140;}.cls-73{fill:#504241;}.cls-74{fill:#524342;}.cls-75{fill:#524343;}.cls-76{fill:#544444;}.cls-77{fill:#554545;}.cls-78{fill:#564646;}.cls-79{fill:#574747;}.cls-80{fill:#574848;}.cls-81{fill:#594949;}.cls-82{fill:#fff;}</style><clipPath id="clip-path"><ellipse id="SVGID" class="cls-1" cx="9.73" cy="3.66" rx="2.15" ry="1.84"/></clipPath></defs><title>資產 1</title><g class="cls-2"><g id="圖層_2" data-name="圖層 2"><g id="圖層_7" data-name="圖層 7"><path class="cls-3" d="M29.1,35.77c-1.28,0-2.75.27-4.1.43-.1-.13,0-.32-.1-.5a1.26,1.26,0,0,1-.32-.57,4.37,4.37,0,0,1,.21-1.4c.41-1.51.72-3,1.08-4.62a1.09,1.09,0,0,0-1.29.93c-.34,1.25-.73,2.49-1.14,3.73a.8.8,0,0,1-.5.47c-.76.1-1.54.1-2.31.19s-1.22-.4-.92-1.2c.16-.45.35-.88.53-1.33.47-1.17.94-2.34,1.41-3.49-.6-.32-.89-.15-1.13.37-.61,1.3-1.26,2.58-1.92,3.85-.1.2-.29.48-.47.51a1.75,1.75,0,0,0-1.37,1.09.58.58,0,0,1-.38.27c-1.18.07-2.37.1-3.56.19a10,10,0,0,0-2,.15c-.15.13-.14.2,0,.33a30.49,30.49,0,0,0,4.48.08c-1.49.47-3.25.42-4.7,1-.14.06-.36.2-.32.37.4.26,3.82-.32,5.67-.61a8.11,8.11,0,0,1-1.56,1A12.14,12.14,0,0,0,12.6,38.1c-.12.09-.46.39.06.34s1.6-.6,2.41-.73a18.76,18.76,0,0,1,2.6,0c.07,0,.13-.05.2-.05l2.72-.23c-1.59.81-3.19,1.52-4.78,2.26a5.15,5.15,0,0,0-.82.59l.12.23a23.92,23.92,0,0,0,6.59-2.28c-1,1.68-2.38,2.88-3,4.58a1.69,1.69,0,0,0,.79-.4c.86-.95,1.72-1.9,2.51-2.89A7.23,7.23,0,0,1,23.15,38c.23-.15.45-.06.8-.1s.8-.48,1.18-.58c1.18-.34,2.47-.65,3.65-1a1.36,1.36,0,0,0,.69-.4C29.44,35.82,29.38,35.79,29.1,35.77Zm-7.51.51c-.07.12-.43.16-.6.18l-4.6.48A5,5,0,0,1,17.73,36c.21-.06.48.16,1,0s.61-.41.79-.48c.55-.21,1.4-.39,1.72-.48s1.72-.45,1.89-.43a2.61,2.61,0,0,0-1.29.75A7.16,7.16,0,0,0,21.59,36.28Z"/><path class="cls-4" d="M18.6,42.83l0-.07a10.66,10.66,0,0,1,1.7-2.7,17.37,17.37,0,0,0,1.28-1.79l-.6.27a20.83,20.83,0,0,1-5.89,2h0l-.15-.28,0,0,.25-.2a2.79,2.79,0,0,1,.57-.4l1.09-.5c1.16-.53,2.36-1.07,3.53-1.67l-.39,0-2.15.18-.08,0-.12,0c-.27,0-.55,0-.82,0a8.81,8.81,0,0,0-1.78.06,7.83,7.83,0,0,0-1.37.41,4.69,4.69,0,0,1-1,.31c-.19,0-.29,0-.32-.07s.18-.3.23-.33A11.16,11.16,0,0,1,14.4,37a8.81,8.81,0,0,0,1.44-.87l-.63.1c-1.93.3-4.57.71-4.93.48h0v0c0-.18.16-.34.34-.42a11.14,11.14,0,0,1,2.65-.63,15.61,15.61,0,0,0,1.81-.34l-.84,0a21.38,21.38,0,0,1-3.39-.1h0c-.08-.07-.13-.13-.12-.2a.24.24,0,0,1,.12-.19,3.64,3.64,0,0,1,1.27-.13c.26,0,.53,0,.74,0l1.89-.1,1.67-.09a.57.57,0,0,0,.35-.25,1.78,1.78,0,0,1,1.39-1.11c.16,0,.33-.27.45-.49l0-.06c.64-1.23,1.29-2.51,1.89-3.78.14-.3.28-.47.47-.53a.92.92,0,0,1,.7.13l0,0-.37.94c-.35.86-.7,1.72-1,2.59-.07.15-.13.31-.2.46l-.34.87a.93.93,0,0,0,0,.9,1,1,0,0,0,.85.25c.36,0,.73-.07,1.09-.09s.81-.05,1.22-.11a.77.77,0,0,0,.47-.45c.38-1.17.79-2.43,1.13-3.72a1.14,1.14,0,0,1,1.34-1h0v0c-.11.47-.21.93-.31,1.39-.25,1.12-.49,2.18-.78,3.24a4.58,4.58,0,0,0-.2,1.39.76.76,0,0,0,.21.42,1.13,1.13,0,0,0,.1.13A.43.43,0,0,1,25,36a.34.34,0,0,0,0,.18L26,36a28.52,28.52,0,0,1,3.09-.3h0c.28,0,.36,0,.41.16v0a1.44,1.44,0,0,1-.71.4l-1.66.44-2,.53a2.42,2.42,0,0,0-.52.28,1.71,1.71,0,0,1-.66.31h-.35a.66.66,0,0,0-.44.08,3.15,3.15,0,0,0-.79.95c-.13.19-.25.39-.39.56-.79,1-1.66,2-2.5,2.88h0a1.8,1.8,0,0,1-.8.42Zm3.18-4.72-.05.1a19.44,19.44,0,0,1-1.34,1.9,10.48,10.48,0,0,0-1.66,2.61,1.81,1.81,0,0,0,.7-.38h0c.84-.93,1.71-1.88,2.49-2.88a5.94,5.94,0,0,0,.39-.55,3.27,3.27,0,0,1,.81-1,.74.74,0,0,1,.48-.09H24a1.72,1.72,0,0,0,.63-.3,2.2,2.2,0,0,1,.54-.29l2-.53,1.65-.44a1.45,1.45,0,0,0,.66-.36c0-.06-.07-.09-.33-.1a28.59,28.59,0,0,0-3.08.3l-1,.13h0l0,0a.4.4,0,0,1,0-.24.42.42,0,0,0-.05-.26l-.1-.12a.85.85,0,0,1-.22-.47,4.37,4.37,0,0,1,.2-1.41c.29-1.06.53-2.12.78-3.23q.13-.68.3-1.35a1.06,1.06,0,0,0-1.22.91c-.34,1.29-.75,2.55-1.13,3.73a.83.83,0,0,1-.53.49c-.41.06-.83.08-1.23.11s-.72,0-1.08.09a1,1,0,0,1-.91-.28,1,1,0,0,1-.06-1c.11-.29.23-.58.35-.86s.13-.31.19-.47c.35-.86.69-1.73,1-2.59l.35-.88a.79.79,0,0,0-.62-.11c-.16.05-.3.21-.43.49-.59,1.28-1.25,2.55-1.88,3.78l0,.06c-.06.12-.27.5-.5.53a1.76,1.76,0,0,0-1.34,1.07.59.59,0,0,1-.4.29l-1.68.09-1.88.1c-.22,0-.49,0-.75,0a4.56,4.56,0,0,0-1.22.12c-.07.05-.1.09-.1.13s0,.07.09.14a21,21,0,0,0,3.36.09l1.11,0h.24l-.23.07a14.34,14.34,0,0,1-2.07.43,10.51,10.51,0,0,0-2.63.62c-.12.05-.32.18-.3.32.39.2,3.08-.22,4.86-.5L16,36l.14,0-.12.08a7.87,7.87,0,0,1-1.56,1,12.43,12.43,0,0,0-1.81,1.08c-.12.09-.22.2-.2.24s0,.06.24,0a4.63,4.63,0,0,0,1-.31,8.35,8.35,0,0,1,1.38-.42,9.74,9.74,0,0,1,1.79-.05c.27,0,.55,0,.82,0l.09,0a.45.45,0,0,1,.11,0L20,37.4l.76-.07-.16.09c-1.23.63-2.48,1.2-3.7,1.76l-1.09.5a2.57,2.57,0,0,0-.56.39l-.23.18.1.18a20.91,20.91,0,0,0,5.85-2l.7-.31ZM16.28,37l.09-.07.18-.16A4,4,0,0,1,17.72,36,.56.56,0,0,1,18,36a1.45,1.45,0,0,0,.7,0,1.24,1.24,0,0,0,.59-.34.81.81,0,0,1,.2-.14,11.44,11.44,0,0,1,1.4-.4l.32-.08s1.72-.46,1.9-.43l.19,0-.19,0a2.67,2.67,0,0,0-1.26.72,2.14,2.14,0,0,0-.18.6.82.82,0,0,1-.08.29h0c-.07.13-.36.18-.62.2h0l-3.45.36L16.4,37ZM17.81,36h-.07a3.7,3.7,0,0,0-1.14.77l-.09.08,1-.11c1.2-.12,2.33-.23,3.45-.36h0c.15,0,.51-.05.57-.16a.88.88,0,0,0,.07-.27,2.34,2.34,0,0,1,.18-.62,2.21,2.21,0,0,1,.92-.63c-.46.1-1.17.29-1.47.37l-.32.08a12,12,0,0,0-1.4.4.59.59,0,0,0-.17.13,1.39,1.39,0,0,1-.63.35,1.45,1.45,0,0,1-.73,0Z"/><path class="cls-5" d="M5,3.36S6.33.92,8.06.58,10.7-.24,12.93.14s4.31,1.07,5.44,2.39a9.53,9.53,0,0,1,2.07,3,8.67,8.67,0,0,0,.72,2.05,12.19,12.19,0,0,0,1.76,2.07c.54.44,4.09,4.37,4.43,4.84s3,4.27,3.18,4.65a11.23,11.23,0,0,1,.75,2.11c0,.28.35,1.41.35,1.41L33,25.47s.76,2,.32,2.23a1,1,0,0,1-1,.06c-.16-.12-.85-.47-.85-.47l.1.75-1.2-.47-.56.57-1.07-1-2.42.16S26.19,28.8,26,29s-.78.44-1,.29-.63-.22-.85-.57a9.53,9.53,0,0,0-1.07-1.1l-.91-.19a.61.61,0,0,1-.13.76.86.86,0,0,1-.81.22c-.16-.07-.66-.07-.73-.19s-.94-1.23-.94-1.23a41,41,0,0,1-5-2.07,20.54,20.54,0,0,1-3.11-2.67,7.92,7.92,0,0,1-1.26-2.08,14.68,14.68,0,0,1-.94-3.84,29.13,29.13,0,0,1,.28-5.11,6.4,6.4,0,0,0,0-1.2A19.1,19.1,0,0,1,7.09,8.45,11.51,11.51,0,0,1,5,6.27a3,3,0,0,1-.34-1.73A10.07,10.07,0,0,1,5,3.36Z"/><path class="cls-6" d="M33,25.47l-1.41-2.8s-.32-1.13-.35-1.41A6.78,6.78,0,0,0,31,20.17l-.57.56A25.72,25.72,0,0,0,28,23.45a21,21,0,0,0-2.18,4l.17,0a1.37,1.37,0,0,1,.35.08l0-.24,2.42-.16,1.07,1,.56-.57,1.2.47-.1-.75s.69.35.85.47a1,1,0,0,0,1-.06C33.8,27.45,33,25.47,33,25.47Z"/><path class="cls-7" d="M30.53,19.15c-.22-.38-2.83-4.18-3.18-4.65s-3.89-4.4-4.43-4.84l-.24-.22c-1.16-.07-2.32-.16-3.49-.17-.9,0-1.81,0-2.71,0a25.18,25.18,0,0,0-.66,3.22A8,8,0,0,0,17,18.15a14.69,14.69,0,0,0,2.62,2.11c.88.47,2.14,1.37,2.14,2.52s-4.87,2.64-5.21,2.95c1,.39,3,1.21,3,1.21l.94,1.23a3.83,3.83,0,0,0,1.12.27c.25,0,.13,0,.5-.29a.58.58,0,0,0,.12-.74l.84.16s.48.56.88,1a2.91,2.91,0,0,0,1,.69,2.18,2.18,0,0,0,1.16-.31c.22-.16.16-1.61.16-1.61l.29,0a1.61,1.61,0,0,1,.38-.63,16.66,16.66,0,0,0,3.84-6.52,1.09,1.09,0,0,1,.05-.17A6.45,6.45,0,0,0,30.53,19.15Z"/><path class="cls-8" d="M24.71,20.81a26.48,26.48,0,0,0,2.47,2.83A20,20,0,0,0,29,25.39a11.18,11.18,0,0,0,4.79,2.3,3,3,0,0,0-.16-1.06,25.47,25.47,0,0,0-2.82-6.41,3.24,3.24,0,0,0-.62-.8,2.36,2.36,0,0,0-.9-.44,4.17,4.17,0,0,0-3.22.4A7.3,7.3,0,0,0,24.71,20.81Z"/><path class="cls-9" d="M33.82,27.73h0A11.15,11.15,0,0,1,29,25.42a23.29,23.29,0,0,1-1.82-1.76,28,28,0,0,1-2.47-2.83l0,0,0,0a7,7,0,0,1,1.37-1.44,4.24,4.24,0,0,1,3.25-.41,2.5,2.5,0,0,1,.91.45,3.15,3.15,0,0,1,.63.81,25.93,25.93,0,0,1,2.83,6.42,3.06,3.06,0,0,1,.16,1.07Zm-9.07-6.92a27.43,27.43,0,0,0,2.45,2.8A21.49,21.49,0,0,0,29,25.36a11.13,11.13,0,0,0,4.74,2.28,3.21,3.21,0,0,0-.16-1,25.41,25.41,0,0,0-2.82-6.4,2.86,2.86,0,0,0-.62-.79,2.34,2.34,0,0,0-.88-.44,4.18,4.18,0,0,0-3.19.4A7,7,0,0,0,24.75,20.81Z"/><path class="cls-10" d="M24.36,20a27.81,27.81,0,0,0,2.47,2.83,21.61,21.61,0,0,0,1.82,1.76,11.16,11.16,0,0,0,4.79,2.29,3.11,3.11,0,0,0-.15-1,26.28,26.28,0,0,0-2.82-6.42,3.28,3.28,0,0,0-.63-.8,2.47,2.47,0,0,0-.89-.44,4.19,4.19,0,0,0-3.23.4A7.6,7.6,0,0,0,24.36,20Z"/><path class="cls-9" d="M33.48,26.94h0a11.24,11.24,0,0,1-4.81-2.29,20.23,20.23,0,0,1-1.82-1.76,27.9,27.9,0,0,1-2.48-2.83V20a7.36,7.36,0,0,1,1.38-1.44,4.23,4.23,0,0,1,3.25-.4,2.3,2.3,0,0,1,.9.45,3.36,3.36,0,0,1,.64.8,25.61,25.61,0,0,1,2.82,6.43,3,3,0,0,1,.16,1.06ZM24.41,20a27.39,27.39,0,0,0,2.45,2.81,21.42,21.42,0,0,0,1.81,1.75,11.25,11.25,0,0,0,4.74,2.28,2.87,2.87,0,0,0-.16-1,25.47,25.47,0,0,0-2.82-6.41,3.2,3.2,0,0,0-.61-.79,2.26,2.26,0,0,0-.88-.43,4.16,4.16,0,0,0-3.2.39A7.15,7.15,0,0,0,24.41,20Z"/><path class="cls-10" d="M24.06,19.43a30.15,30.15,0,0,0,2.47,2.83A25.06,25.06,0,0,0,28.35,24a11.2,11.2,0,0,0,4.8,2.29A3.15,3.15,0,0,0,33,25.25a26.07,26.07,0,0,0-2.82-6.42,3,3,0,0,0-.63-.79,2.5,2.5,0,0,0-.89-.45,4.24,4.24,0,0,0-3.23.41A7.3,7.3,0,0,0,24.06,19.43Z"/><path class="cls-9" d="M33.18,26.35h0A11.26,11.26,0,0,1,28.33,24a20.23,20.23,0,0,1-1.82-1.76A26.86,26.86,0,0,1,24,19.45v0A7.66,7.66,0,0,1,25.41,18a4.24,4.24,0,0,1,3.25-.4,2.45,2.45,0,0,1,.9.45,3.31,3.31,0,0,1,.64.8A25.77,25.77,0,0,1,33,25.24a3.06,3.06,0,0,1,.16,1.07Zm-9.07-6.92a27.28,27.28,0,0,0,2.45,2.8A20,20,0,0,0,28.37,24a11.13,11.13,0,0,0,4.74,2.28,2.94,2.94,0,0,0-.16-1,26,26,0,0,0-2.81-6.41,3.73,3.73,0,0,0-.62-.79,2.33,2.33,0,0,0-.88-.43,4.21,4.21,0,0,0-3.2.4A6.91,6.91,0,0,0,24.11,19.43Z"/><path class="cls-10" d="M23.69,18.92a25.54,25.54,0,0,0,2.47,2.83A21.48,21.48,0,0,0,28,23.51a11.2,11.2,0,0,0,4.8,2.29,2.88,2.88,0,0,0-.16-1.05,25.54,25.54,0,0,0-2.82-6.42,3.28,3.28,0,0,0-.63-.8,2.4,2.4,0,0,0-.89-.44,4.17,4.17,0,0,0-3.22.4A7.6,7.6,0,0,0,23.69,18.92Z"/><path class="cls-9" d="M32.8,25.84h0A11.38,11.38,0,0,1,28,23.54a23.29,23.29,0,0,1-1.82-1.76A27.81,27.81,0,0,1,23.66,19l0,0,0,0A7.23,7.23,0,0,1,25,17.46a4.24,4.24,0,0,1,3.25-.4,2.35,2.35,0,0,1,.91.45,3.1,3.1,0,0,1,.63.8,26,26,0,0,1,2.83,6.43,2.81,2.81,0,0,1,.15,1.06Zm-9.07-6.91a29.76,29.76,0,0,0,2.45,2.8A23.17,23.17,0,0,0,28,23.48a11.19,11.19,0,0,0,4.74,2.28,3.12,3.12,0,0,0-.16-1,25.84,25.84,0,0,0-2.82-6.41,3.24,3.24,0,0,0-.62-.79,2.2,2.2,0,0,0-.88-.43,4.13,4.13,0,0,0-3.19.39A7.29,7.29,0,0,0,23.73,18.93Z"/><g class="cls-11"><path class="cls-12" d="M33.63,26.63a25.47,25.47,0,0,0-2.82-6.41,3.24,3.24,0,0,0-.62-.8,2.36,2.36,0,0,0-.9-.44,4.12,4.12,0,0,0-2.36,0,4.05,4.05,0,0,1,1.73.11,2.32,2.32,0,0,1,.89.44,6.7,6.7,0,0,1,1,1A19,19,0,0,1,33.08,26c.07.24.5,1.6.71,1.65A3,3,0,0,0,33.63,26.63Z"/></g><path class="cls-13" d="M31.28,21.26a11.23,11.23,0,0,0-.75-2.11c-.22-.38-2.83-4.18-3.18-4.65s-3.89-4.4-4.43-4.84a12.33,12.33,0,0,1-1.71-2l-3.28.18v1s-1.23.75-1.35,1.44a16.7,16.7,0,0,0-.29,2.86,5,5,0,0,0,1,2.64c.47.63,1.1,1.1,1.48,1.54s1.21,1,1.33,1.13a13,13,0,0,0,1.37,1.05c.41.29,1.85,1,1.85,1a6.94,6.94,0,0,0,1.26,1.14,10.33,10.33,0,0,0,1.1.37s1.35,1.79,2.48,2.08a6.82,6.82,0,0,0,1.45.34,3.58,3.58,0,0,1,1.13.25,1.33,1.33,0,0,0,.84.16c.16-.07.3-.64.25-1.15,0-.13,0-.41-.05-.75l-.16-.33S31.31,21.54,31.28,21.26Z"/><path class="cls-14" d="M21,17.07c.16,1,0,1.75-.41,1.74s-1.1-.74-1.27-1.72-.19-2.2.2-2.19S20.85,16.09,21,17.07Z"/><path class="cls-15" d="M20,16.26h0l-.15-.39a2,2,0,0,1-.1-.26c-.09-.21-.17-.42-.25-.62a.25.25,0,0,1,0-.07c-.34.09-.3,1.25-.15,2.18s.88,1.71,1.27,1.72a.29.29,0,0,0,.25-.12c-.16-.38-.3-.75-.42-1.13S20.17,16.69,20,16.26Z"/><path class="cls-14" d="M22.1,17.8c.17,1,0,1.75-.41,1.74s-1.09-.74-1.26-1.72-.2-2.2.19-2.19S21.93,16.82,22.1,17.8Z"/><path class="cls-15" d="M21.1,17h0c-.06-.13-.11-.26-.16-.39s-.07-.17-.1-.26-.16-.42-.25-.62a.14.14,0,0,0,0-.07c-.34.09-.3,1.25-.14,2.18s.87,1.71,1.26,1.72a.29.29,0,0,0,.25-.12c-.15-.38-.29-.75-.42-1.13S21.25,17.42,21.1,17Z"/><path class="cls-14" d="M23.28,18.69c.17,1,0,1.76-.41,1.75s-1.09-.75-1.26-1.72-.2-2.2.19-2.19S23.11,17.72,23.28,18.69Z"/><path class="cls-15" d="M22.28,17.89h0l-.15-.39-.1-.27c-.08-.2-.16-.41-.25-.62a.64.64,0,0,1,0-.07c-.34.1-.3,1.26-.14,2.19s.87,1.71,1.26,1.72a.3.3,0,0,0,.25-.13c-.15-.37-.29-.74-.42-1.12S22.43,18.32,22.28,17.89Z"/><path class="cls-14" d="M31.22,21.12c.94,1.74,1.16,3.38.49,3.66s-2.35-.59-3.29-2.33-1.82-4.08-1.15-4.36S30.28,19.38,31.22,21.12Z"/><path class="cls-15" d="M29,20.34v0l-.52-.63c-.12-.14-.24-.28-.35-.43l-.83-1a.94.94,0,0,1-.09-.12c-.51.45.33,2.64,1.23,4.31s2.62,2.61,3.29,2.33a.62.62,0,0,0,.33-.43c-.51-.6-1-1.21-1.46-1.84S29.54,21.05,29,20.34Z"/><path class="cls-14" d="M24.54,19.37c.17,1,0,1.75-.4,1.74s-1.1-.74-1.27-1.72-.2-2.2.19-2.19S24.37,18.4,24.54,19.37Z"/><path class="cls-15" d="M23.54,18.56h0l-.15-.39-.11-.27L23,17.28l0-.07c-.33.09-.3,1.25-.14,2.18s.88,1.71,1.27,1.72a.27.27,0,0,0,.24-.12c-.15-.37-.29-.75-.42-1.13S23.7,19,23.54,18.56Z"/><path class="cls-14" d="M26.19,20.47c.17,1,0,1.76-.4,1.75s-1.1-.75-1.27-1.73-.2-2.2.19-2.19S26,19.5,26.19,20.47Z"/><path class="cls-15" d="M25.19,19.66h0L25,19.27,24.93,19l-.24-.62,0-.07c-.33.09-.3,1.25-.14,2.18s.88,1.72,1.27,1.73a.31.31,0,0,0,.24-.13c-.15-.37-.29-.75-.42-1.13S25.35,20.1,25.19,19.66Z"/><path class="cls-14" d="M29.05,20.69c.94,1.74,1.16,3.38.49,3.66s-2.35-.59-3.29-2.33S24.43,18,25.1,17.67,28.11,19,29.05,20.69Z"/><path class="cls-15" d="M26.82,19.91h0l-.52-.63-.35-.43-.83-1L25,17.72c-.51.44.33,2.64,1.23,4.3s2.62,2.62,3.29,2.33a.6.6,0,0,0,.33-.43c-.51-.6-1-1.2-1.46-1.83S27.37,20.62,26.82,19.91Z"/><path class="cls-14" d="M29,18.1c.6,1.77.53,3.39-.17,3.63s-2.17-.73-2.77-2.49-1.05-4.12-.35-4.35S28.41,16.33,29,18.1Z"/><path class="cls-14" d="M30.35,18c.93,1.62,1.24,3.19.67,3.51s-2.08-.39-3-2-1.86-3.82-1.3-4.14S29.41,16.33,30.35,18Z"/><path class="cls-15" d="M28,19.58c-.38-.8-.77-1.6-1.12-2.42a12.06,12.06,0,0,0-1-2.1.77.77,0,0,1-.1-.18h0c-.7.23-.26,2.58.35,4.35s2.08,2.72,2.77,2.49l.09,0C28.61,21,28.3,20.28,28,19.58Z"/><path class="cls-15" d="M28.35,17.37v0l-.49-.57-.34-.39-.79-.91-.09-.1c-.4.46.48,2.53,1.37,4.08s2.46,2.33,3,2a.55.55,0,0,0,.26-.44c-.48-.54-1-1.09-1.4-1.67S28.88,18,28.35,17.37Z"/><path class="cls-14" d="M26.72,17.67c-.16-1.38-.7-2.46-1.22-2.4-.34,0-.58.58-.66,1.35-.16-.7-.48-1.18-.84-1.18s-.55.31-.72.79c-.13-.88-.49-1.52-.9-1.52s-.57.32-.74.82c-.13-.63-.42-1.07-.75-1.07s-.48.26-.64.66c0,0,0,0,0-.07,0-1-.38-1.86-.83-1.86l-.12,0a8.75,8.75,0,0,0,0-.88c-.15-1.68-.86-3-1.65-3.16-.37.27-1,.77-1.05,1.24a9.44,9.44,0,0,0-.1,2.83c.11.36.23,1.14.43,1.82a1.3,1.3,0,0,0,1.09.71.91.91,0,0,0,.6-.34c.08.85.42,1.49.82,1.49s.48-.26.63-.66v.06c0,1,.37,1.87.83,1.87.22,0,.43-.21.58-.54.12.9.48,1.55.91,1.55s.55-.3.72-.78c.13.88.48,1.51.9,1.51s.8-.69.92-1.63c.21,1.18.69,2,1.15,2S26.88,19.06,26.72,17.67Z"/><path class="cls-15" d="M17.28,14a11.71,11.71,0,0,1,.18-3.36,2.22,2.22,0,0,1,.87-1.1,1.23,1.23,0,0,0-.7-.45c-.37.27-1,.77-1.05,1.24a12.55,12.55,0,0,0-.22,3.23c.11.35.18.67.39,1.34a1.59,1.59,0,0,0,1.25.78h.11A4.66,4.66,0,0,1,17.28,14Z"/><ellipse class="cls-16" cx="17.36" cy="10.94" rx="0.96" ry="1.14"/><ellipse class="cls-16" cx="18.37" cy="12.27" rx="0.96" ry="1.42"/><ellipse class="cls-16" cx="20" cy="13.48" rx="1.19" ry="1.68"/><ellipse class="cls-16" cx="21.26" cy="14.73" rx="1.06" ry="1.68"/><ellipse class="cls-16" cx="23.05" cy="15.1" rx="1.06" ry="1.68"/><ellipse class="cls-16" cx="24.99" cy="15.05" rx="1.06" ry="1.68" transform="translate(-1.19 2.19) rotate(-4.9)"/><path class="cls-17" d="M16.9,11.94a18.18,18.18,0,0,0,.76-1.89c0-.06,0-.12,0-.17a.81.81,0,0,0-.34-.08,1.06,1.06,0,0,0-1,1.14A1.19,1.19,0,0,0,16.9,11.94Z"/><path class="cls-17" d="M18.43,11s0-.08,0-.12h-.08c-.53,0-.95.64-.95,1.42s.42,1.43.95,1.43h.1A16.46,16.46,0,0,1,18.43,11Z"/><path class="cls-17" d="M20,12V11.8c-.63,0-1.14.77-1.14,1.68s.53,1.68,1.19,1.68C20,14.1,20,13,20,12Z"/><path class="cls-17" d="M21.14,13.06c-.53.09-.94.8-.94,1.67s.47,1.68,1.06,1.68a.66.66,0,0,0,.33-.09A27.47,27.47,0,0,1,21.14,13.06Z"/><path class="cls-17" d="M22.66,13.54A1.84,1.84,0,0,0,22,15.1c0,.93.47,1.69,1.06,1.69a.62.62,0,0,0,.26-.06C23.1,15.67,22.9,14.6,22.66,13.54Z"/><path class="cls-17" d="M24.25,13.75a2.06,2.06,0,0,0-.32,1.39c.08.92.62,1.63,1.2,1.58a.74.74,0,0,0,.4-.16C25.08,15.63,24.64,14.7,24.25,13.75Z"/><g class="cls-18"><path class="cls-13" d="M18.72,15.58a3.36,3.36,0,0,1-1.38-.49,3.85,3.85,0,0,1-1.24-2,10,10,0,0,1-.17-2c.07-1.54.14-2.39.18-3.74.7.1,1.46-.84,2-.34.27.27.4,1.68.58,2a17.28,17.28,0,0,1,1.57,4.18,1.51,1.51,0,0,1,.05.76,1.4,1.4,0,0,1-.5.68c-.31.26-.42.56-.79.74Z"/></g><path class="cls-13" d="M22.79,9.54l-.08-.07,0-.05a.23.23,0,0,1-.07-.07l-.06,0a.46.46,0,0,0-.07-.07l0-.06-.07-.07L22.29,9,22.23,9l-.07-.08-.06-.06L22,8.73,22,8.67l-.07-.09-.05-.05-.08-.1,0,0a.86.86,0,0,1-.07-.1l0,0a.76.76,0,0,1-.08-.11l0,0L21.45,8V8a1,1,0,0,0-.08-.11h0l-.07-.11h0l-.07-.1-3.28.18v1s-1.23.75-1.35,1.44a1.3,1.3,0,0,0,0,.21.94.94,0,0,0,.82.55.84.84,0,0,0,.53-.19l.14.52c.31,1.07,1.23,1.84,1.9,1.64h0a1.1,1.1,0,0,0,.94.65.83.83,0,0,0,.22,0,1.35,1.35,0,0,0,1.39.74A.88.88,0,0,0,23,14c.32,1.07,1.12,1.77,1.82,1.57a1,1,0,0,0,.61-.5,2.37,2.37,0,0,0,.09.36c.35,1.06,1.17,1.74,1.83,1.52a1,1,0,0,0,.59-.61,1.6,1.6,0,0,0,1.34.89l-.3-.44,0,0-.13-.19v0l-.12-.17-.05-.07-.1-.14,0-.07-.1-.14,0-.06-.1-.15,0,0c-.13-.19-.25-.37-.37-.53l0-.06-.07-.1,0,0-.06-.1,0,0-.05-.08,0,0,0-.06,0,0,0-.05,0,0,0-.06C27,14,23.46,10.1,22.92,9.66l-.1-.09Z"/><path class="cls-19" d="M21.09,10a20.57,20.57,0,0,1,5.31,3.4c-1.09-1.2-3.18-3.5-3.48-3.74a12.33,12.33,0,0,1-1.71-2l-3.28.18v1L17.81,9A12.67,12.67,0,0,1,21.09,10Z"/><path class="cls-20" d="M12,9.51a26.9,26.9,0,0,1,4.9-1.18c1.35-.15,2.71-.12,4-.29L21.42,8l-.26-.37a8.67,8.67,0,0,1-.72-2,3.29,3.29,0,0,0-.48-1,19.89,19.89,0,0,0-3.64-.42c-1.39-.1-2.77-.32-4.16-.43a53.85,53.85,0,0,0-6,0,4.16,4.16,0,0,0-1.41.22,5.06,5.06,0,0,0-.15.66A3,3,0,0,0,5,6.27,11.51,11.51,0,0,0,7.09,8.45,13.27,13.27,0,0,0,8.73,9.51l.15,0c.3.07.59.21.89.27A4.38,4.38,0,0,0,12,9.51Z"/><path class="cls-9" d="M20.9,7.71l.31,0-.05-.07a8.67,8.67,0,0,1-.72-2,9.53,9.53,0,0,0-2.07-3A3.59,3.59,0,0,0,18,2.14a19.62,19.62,0,0,0-5.38-.9,52.71,52.71,0,0,0-6.15.25A8.75,8.75,0,0,0,5,3.36a10.07,10.07,0,0,0-.31,1.18A3,3,0,0,0,4.81,5.9a5.58,5.58,0,0,1,2.89.65,10.89,10.89,0,0,0,1.74,1,5.91,5.91,0,0,0,2.65.07l2-.26a13.26,13.26,0,0,1,2.27-.15C17.87,7.24,19.37,7.87,20.9,7.71Z"/><path class="cls-21" d="M13.5,2.14a10.27,10.27,0,0,1,5.78,2.71c.54.6,1,1.06,1.37,1.45-.08-.25-.15-.51-.21-.76a1,1,0,0,0-.05-.16c-.38-.49-.88-1-1.47-1.7-1.22-1.32-3.45-2-5.84-2.39s-3.38.1-5.23.44A5.4,5.4,0,0,0,5,3.83,14.82,14.82,0,0,1,8.32,2.58C10.16,2.24,11.13,1.77,13.5,2.14Z"/><path class="cls-22" d="M7.85,1.73c1.85-.34,2.83-.81,5.23-.44s4.62,1.07,5.84,2.39c.59.65,1.09,1.21,1.47,1.7a10.71,10.71,0,0,0-2-2.85c-1.13-1.32-3.21-2-5.44-2.39S9.79.23,8.06.58,5,3.36,5,3.36s-.15.46-.25.86C5.16,3.56,6.39,2,7.85,1.73Z"/><path class="cls-23" d="M6.37,4.91A3.5,3.5,0,0,1,4.93,3.58,6.9,6.9,0,0,0,.53,4.64a2,2,0,0,0-.53.5,7.71,7.71,0,0,0,1.44.43c.3.07,1.37.19,1.67.24a8,8,0,0,0,1.38.07,24.69,24.69,0,0,0,3.84-.25A14.42,14.42,0,0,1,6.37,4.91Z"/><path class="cls-6" d="M22.24,27.41a12.31,12.31,0,0,1-3.77-1.63,29.29,29.29,0,0,1-2.9-1.64c-.69-.69-1.32-1.64-1.49-1.77s-.07.61-.1.92a22.65,22.65,0,0,0-2.12-2.75c-.19,0-.16.69.07.9a3.44,3.44,0,0,1-.82-.93A7,7,0,0,1,9.74,18l-.13.24c.21.74.48,1.42.62,1.93a7.92,7.92,0,0,0,1.26,2.08,20.54,20.54,0,0,0,3.11,2.67,41,41,0,0,0,5,2.07v0l.55.13A9.11,9.11,0,0,0,22.24,27.41Z"/><path class="cls-10" d="M28.72,27.16h0l1.07,1,.56-.57,1.2.47-.13-.91S28.73,27.13,28.72,27.16Z"/><path class="cls-24" d="M7.41,5.34a27.71,27.71,0,0,1-3.28.16,7.93,7.93,0,0,1-1.38-.06c-.31-.06-1.37-.18-1.67-.25C.61,5.08.4,5,.15,5A.72.72,0,0,0,0,5.14a7.71,7.71,0,0,0,1.44.43c.3.07,1.37.19,1.67.24a8,8,0,0,0,1.38.07,24.69,24.69,0,0,0,3.84-.25S7.91,5.51,7.41,5.34Z"/><path class="cls-24" d="M4.33,3.86l.23,0a.73.73,0,0,1,.21.06s.06.05.08.09a.22.22,0,0,1-.11.27l-.13,0a2.4,2.4,0,0,1-.46,0c-.05,0-.18,0-.22-.09S4,4,4.08,3.92Z"/><path class="cls-25" d="M2.06,4.26a3.75,3.75,0,0,1,1-.23c.09,0,.09-.15,0-.14a3.66,3.66,0,0,0-1,.23c-.08,0-.05.17,0,.14Z"/><path class="cls-25" d="M3.34,4,3.6,4c.09,0,.09-.15,0-.15l-.3,0c-.09,0,0,.15,0,.13Z"/><ellipse class="cls-26" cx="9.73" cy="3.66" rx="2.3" ry="1.96"/><g class="cls-27"><rect class="cls-28" x="7.57" y="1.82" width="4.31" height="3.68"/><circle class="cls-28" cx="9.73" cy="3.66" r="2"/><circle class="cls-29" cx="9.73" cy="3.66" r="1.99"/><circle class="cls-30" cx="9.73" cy="3.66" r="1.99"/><circle class="cls-31" cx="9.73" cy="3.66" r="1.98"/><circle class="cls-32" cx="9.73" cy="3.66" r="1.97"/><circle class="cls-33" cx="9.73" cy="3.66" r="1.96"/><circle class="cls-34" cx="9.73" cy="3.66" r="1.95"/><circle class="cls-35" cx="9.73" cy="3.66" r="1.94"/><circle class="cls-36" cx="9.73" cy="3.66" r="1.94"/><circle class="cls-37" cx="9.73" cy="3.66" r="1.93"/><circle class="cls-38" cx="9.73" cy="3.66" r="1.92"/><circle class="cls-39" cx="9.73" cy="3.66" r="1.91"/><circle class="cls-40" cx="9.73" cy="3.66" r="1.9"/><circle class="cls-41" cx="9.73" cy="3.66" r="1.89"/><circle class="cls-42" cx="9.73" cy="3.66" r="1.89"/><circle class="cls-43" cx="9.73" cy="3.66" r="1.88"/><circle class="cls-44" cx="9.73" cy="3.66" r="1.87"/><circle class="cls-45" cx="9.73" cy="3.66" r="1.86"/><circle class="cls-46" cx="9.73" cy="3.66" r="1.85"/><circle class="cls-47" cx="9.73" cy="3.66" r="1.84"/><circle class="cls-48" cx="9.73" cy="3.66" r="1.84"/><circle class="cls-49" cx="9.73" cy="3.66" r="1.83"/><circle class="cls-50" cx="9.73" cy="3.66" r="1.82"/><circle class="cls-51" cx="9.73" cy="3.66" r="1.81"/><circle class="cls-52" cx="9.73" cy="3.66" r="1.8"/><circle class="cls-53" cx="9.73" cy="3.66" r="1.8"/><circle class="cls-54" cx="9.73" cy="3.66" r="1.79"/><circle class="cls-55" cx="9.73" cy="3.66" r="1.78"/><circle class="cls-56" cx="9.73" cy="3.66" r="1.77"/><circle class="cls-57" cx="9.73" cy="3.66" r="1.76"/><circle class="cls-58" cx="9.73" cy="3.66" r="1.75"/><circle class="cls-59" cx="9.73" cy="3.66" r="1.75"/><circle class="cls-60" cx="9.73" cy="3.66" r="1.74"/><circle class="cls-61" cx="9.73" cy="3.66" r="1.73"/><circle class="cls-62" cx="9.73" cy="3.66" r="1.72"/><circle class="cls-63" cx="9.73" cy="3.66" r="1.71"/><circle class="cls-64" cx="9.73" cy="3.66" r="1.7"/><circle class="cls-65" cx="9.73" cy="3.66" r="1.7"/><circle class="cls-66" cx="9.73" cy="3.66" r="1.69"/><circle class="cls-67" cx="9.73" cy="3.66" r="1.68"/><circle class="cls-68" cx="9.73" cy="3.66" r="1.67"/><circle class="cls-69" cx="9.73" cy="3.66" r="1.66"/><circle class="cls-70" cx="9.73" cy="3.66" r="1.65"/><circle class="cls-71" cx="9.73" cy="3.66" r="1.65"/><circle class="cls-72" cx="9.73" cy="3.66" r="1.64"/><circle class="cls-73" cx="9.73" cy="3.66" r="1.63"/><circle class="cls-74" cx="9.73" cy="3.66" r="1.62"/><circle class="cls-75" cx="9.73" cy="3.66" r="1.61"/><circle class="cls-76" cx="9.73" cy="3.66" r="1.61"/><circle class="cls-77" cx="9.73" cy="3.66" r="1.6"/><circle class="cls-78" cx="9.73" cy="3.66" r="1.59"/><circle class="cls-79" cx="9.73" cy="3.66" r="1.58"/><circle class="cls-80" cx="9.73" cy="3.66" r="1.57"/><circle class="cls-81" cx="9.73" cy="3.66" r="1.56"/></g><ellipse class="cls-9" cx="9.73" cy="3.66" rx="1.49" ry="1.27"/><circle class="cls-82" cx="8.69" cy="2.8" r="0.64"/></g></g></g></svg>