<svg xmlns="http://www.w3.org/2000/svg" viewBox="0 0 34.32 31.81"><defs><style>.cls-1{fill:#efd7a7;}.cls-2{fill:#eaeaea;}.cls-3{fill:#19996a;}.cls-4{fill:#0c7854;}.cls-5{fill:#41b7e3;}.cls-6{fill:#1c94ba;}.cls-7{fill:#6bbe81;}.cls-8{fill:#5d6664;}.cls-9{fill:#2f423f;}.cls-10{fill:#f29e30;}.cls-11{fill:#bf701a;}</style></defs><title>資產 8</title><g id="圖層_2" data-name="圖層 2"><g id="圖層_7" data-name="圖層 7"><path class="cls-1" d="M0,27.82C0,18.36,7.65,5.19,17.16,5.19S34.32,18.31,34.32,27.82"/><path class="cls-2" d="M0,27.82a17.16,17.16,0,0,1,34.32,0"/><polyline class="cls-3" points="4.26 27.98 17.16 2.62 30.01 27.98"/><polyline class="cls-3" points="19.51 0 17.16 2.68 14.81 0"/><polyline class="cls-4" points="17.16 27.98 30.01 27.98 17.16 2.79"/><polygon class="cls-5" points="7.65 21.43 26.67 21.43 23.39 14.87 10.93 14.87 7.65 21.43"/><polygon class="cls-6" points="17.22 21.43 26.67 21.43 23.39 14.87 10.93 14.87 17.22 21.43"/><path class="cls-7" d="M12.79,28V19.79c0-2.14,2.24-3.88,4.37-3.88h0c2.13,0,4.37,1.74,4.37,3.88V28"/><path class="cls-3" d="M17.11,15.91a4.2,4.2,0,0,1,4.42,3.88V28H17.16"/><path class="cls-8" d="M14.1,28V20.66a3.13,3.13,0,0,1,3-3.39h0a3.38,3.38,0,0,1,3.39,3.45V28"/><path class="cls-9" d="M20.44,27.82v-7.1a3.32,3.32,0,0,0-3.39-3.45h0a3.2,3.2,0,0,0-3,3.39Z"/><rect class="cls-10" x="0.22" y="27.98" width="33.89" height="3.83"/><polygon class="cls-11" points="28.42 31.81 5.9 31.81 4.26 27.98 30.06 27.98 28.42 31.81"/></g></g></svg>