<svg xmlns="http://www.w3.org/2000/svg" viewBox="0 0 29.29 29.28"><defs><style>.cls-1{fill:#8b6e63;}.cls-2{fill:#6c4c41;}.cls-3{fill:#64443a;}.cls-4{fill:#fff;}.cls-5{fill:#785548;}.cls-6{fill:#5c4037;}.cls-7{fill:#623829;}</style></defs><title>資產 5</title><g id="圖層_2" data-name="圖層 2"><g id="圖層_7" data-name="圖層 7"><path class="cls-1" d="M9.21,11a12.23,12.23,0,0,1,3.62-7.31C17.11-.62,23.47-1.24,27,2.29s2.92,9.88-1.37,14.17a12.26,12.26,0,0,1-7.3,3.62c-.36,0-.71.05-1.05.05a8.07,8.07,0,0,1-5.82-2.3A8.25,8.25,0,0,1,9.21,11Z"/><path class="cls-2" d="M26.77,2.51c-1.17,1.42-2,3-3.47,4.21A13.08,13.08,0,0,1,18.22,9c-4.07,1.18-6.09,4.63-6.55,8.63,1.27-1.52,2.2-3.24,3.81-4.47a12.53,12.53,0,0,1,4.58-1.94C24.22,10.05,26.29,6.58,26.77,2.51Z"/><path class="cls-3" d="M27,2.29a7.1,7.1,0,0,0-.71-.63c2.81,3.63,2,9.45-2,13.46A12.26,12.26,0,0,1,17,18.74c-.36,0-.71.05-1.05.05a8.19,8.19,0,0,1-5.11-1.68,7.06,7.06,0,0,0,.63.72,8.07,8.07,0,0,0,5.82,2.3c.34,0,.69,0,1.05-.05a12.26,12.26,0,0,0,7.3-3.62C29.91,12.17,30.52,5.82,27,2.29Z"/><path class="cls-4" d="M20.06,10.85a12.53,12.53,0,0,0-4.58,1.94C13.91,14,13,15.67,11.74,17.17c0,.15-.05.29-.07.44,1.27-1.52,2.2-3.24,3.81-4.47a12.53,12.53,0,0,1,4.58-1.94c4.16-1.15,6.23-4.62,6.71-8.69l-.07.1C26.12,6.48,24.07,9.75,20.06,10.85Z"/><path class="cls-5" d="M20.08,20.12a12.23,12.23,0,0,0-3.62-7.3C12.17,8.53,5.82,7.91,2.29,11.44S-.62,21.33,3.67,25.61A12.18,12.18,0,0,0,11,29.23c.35,0,.7.05,1,.05A8.07,8.07,0,0,0,17.83,27,8.25,8.25,0,0,0,20.08,20.12Z"/><path class="cls-6" d="M2.51,11.66c1.17,1.42,2,3,3.48,4.22a13,13,0,0,0,5.07,2.25c4.08,1.19,6.09,4.63,6.55,8.63-1.27-1.52-2.2-3.24-3.81-4.46a12.25,12.25,0,0,0-4.58-1.95C5.06,19.2,3,15.73,2.51,11.66Z"/><path class="cls-7" d="M13.22,28.08c-.35,0-.7,0-1.05,0a12.26,12.26,0,0,1-7.3-3.62c-4-4-4.82-9.92-1.94-13.53a6.75,6.75,0,0,0-.64.56C-1.24,15-.62,21.33,3.67,25.61A12.18,12.18,0,0,0,11,29.23c.35,0,.7.05,1,.05A8.07,8.07,0,0,0,17.83,27a6.75,6.75,0,0,0,.57-.63A8.21,8.21,0,0,1,13.22,28.08Z"/><path class="cls-4" d="M14,22.19a12.55,12.55,0,0,0-4.58-2c-4-1.09-6-4.33-6.63-8.17-.1-.14-.2-.28-.31-.41C3,15.73,5.06,19.2,9.22,20.35A12.25,12.25,0,0,1,13.8,22.3c1.61,1.22,2.54,2.94,3.81,4.46a4,4,0,0,0-.08-.48A21,21,0,0,0,14,22.19Z"/></g></g></svg>