<svg xmlns="http://www.w3.org/2000/svg" viewBox="0 0 30.06 87.9"><defs><style>.cls-1{fill:#cfa63e;}.cls-2{fill:#fcefca;}.cls-3{fill:#f0d088;}</style></defs><title>資產 10</title><g id="圖層_2" data-name="圖層 2"><g id="圖層_7" data-name="圖層 7"><polygon class="cls-1" points="30.06 87.9 24.18 87.9 23.53 79.63 6.56 79.63 5.97 87.9 0 87.9 6.61 0.02 23.46 0.02 30.06 87.9"/><path class="cls-2" d="M14.24,11.59c.08,0,.12.08.12.13s0,.09-.12.15a2.19,2.19,0,0,0-.07.23,2.66,2.66,0,0,0-.08.33,5.27,5.27,0,0,1-.25,1.05,5.35,5.35,0,0,1-1.34,2.09c-.17.16-.29.24-.34.24v0a1.68,1.68,0,0,1,.25-.43,6.77,6.77,0,0,0,.83-1.49,6.36,6.36,0,0,0,.25-1.14,8.83,8.83,0,0,0,.09-1.27.12.12,0,0,1,.12-.06h0Zm.88-1.06.35-.3a.1.1,0,0,1,.07,0l.11,0,.38.31,0,.1a.17.17,0,0,1-.07.14.74.74,0,0,0-.33.46,8.27,8.27,0,0,0,.46,2,5.6,5.6,0,0,0,1.72,2.09.12.12,0,0,1,0,.22,3.45,3.45,0,0,0-.7.31,4.8,4.8,0,0,1-1-1.36,5.17,5.17,0,0,1-.52-1.65,11.9,11.9,0,0,1-.24-2.09v-.07h-1.3c-.11,0-.16-.05-.16-.09l0-.05Z"/><path class="cls-2" d="M16.75,19.81l.2-.23h.13l.42.27v.06s0,.06,0,.07a1,1,0,0,0-.2.71v1a.48.48,0,0,1-.39.23l-.11,0v-.33H13.34v1.34a.26.26,0,0,0,.25.29h.63l1,.05c.34,0,.67,0,1,0s.64-.05,1-.09.29-.39.33-.9l0,0,0,0,0,0a.25.25,0,0,1,0,.09v.18c0,.32.06.52.17.59s.17,0,.17.15v0a1,1,0,0,1-.67.39c-.21,0-.65,0-1.33.07l-.81,0h-.64l-1.08-.05c-.41-.08-.61-.28-.61-.58V19.92a6.13,6.13,0,0,1-.68.47h-.05s0,0,0,0,0,0,0-.05l0,0A9.58,9.58,0,0,0,13.8,17.9a.08.08,0,0,1,.08-.06l.55.23a.1.1,0,0,1,.05.06l0,0s-.06.09-.18.11a1,1,0,0,1-.26.28h1.46l.2-.21.09,0h.07l.44.3a.16.16,0,0,1,0,.08.15.15,0,0,1-.07.1L16,19l-.41.35-.37.42Zm-1.79,0a5.44,5.44,0,0,0,.6-1.1H14c-.09.12-.21.27-.35.43s-.26.29-.4.43c0,0,.07.06.12.13a1.11,1.11,0,0,0,.11.11Zm-.2.13H13.34v1.49h1.42Zm2,0H15.27v1.49H16.8Z"/><path class="cls-2" d="M12.44,29.87s0-.07,0-.08a.05.05,0,0,1,0,0h0a.75.75,0,0,1,.07.12,3,3,0,0,1,.12.47,1.73,1.73,0,0,1,0,.37,1,1,0,0,1-.06.35.49.49,0,0,1-.43.26h-.05a.23.23,0,0,1-.13-.23.91.91,0,0,1,0-.26,1.58,1.58,0,0,0,.25-.46A1.44,1.44,0,0,0,12.44,29.87Zm.33-3.73s0-.05.09-.05a.84.84,0,0,1,.39.13H14c0-.12.05-.23.07-.32s0-.2,0-.33v0c0-.07,0-.11.16-.11l.48.15s0,0,0,0v.05s0,.06,0,.07a1.1,1.1,0,0,0-.49.47H16l.18-.25.08,0h.08l.43.34v.11a.8.8,0,0,0-.21.65v1.07a.65.65,0,0,1-.39.17l-.11,0V28H13.22v.62h3.51l.25-.36h.12l.37.33a.3.3,0,0,1,0,.14s0,.05,0,.05H13.22v.64h3.93l.25-.25s0,0,.06,0h.07l.46.32,0,.06,0,.07a.62.62,0,0,0-.25.5c-.19.84-.54,1.32-1.06,1.45h0c-.13,0-.19-.05-.19-.15v-.07c0-.11-.21-.24-.53-.39l-.07,0H16l.66.09h0c.17,0,.31-.11.4-.34a3.4,3.4,0,0,0,.17-1.08h-4v.19a.53.53,0,0,1-.36.23.16.16,0,0,1-.09,0Zm3.34.84v-.63H13.22V27Zm0,.9v-.79H13.22v.79ZM13.47,30.1V30a.25.25,0,0,1,.15.09A1.26,1.26,0,0,1,14,31a.41.41,0,0,1-.33.24.43.43,0,0,1-.24-.39v0a1.69,1.69,0,0,0,.06-.39l0-.19Zm1.11,0L14.52,30h0l.16.06a1.69,1.69,0,0,1,.58.59c0,.23-.08.36-.23.4s-.25-.1-.3-.3A2,2,0,0,0,14.58,30.14Zm1.14-.26-.05,0h.1l.08,0a1.45,1.45,0,0,1,.71.63c0,.22-.07.34-.22.35h0c-.13,0-.24-.15-.31-.43A4.79,4.79,0,0,0,15.72,29.88Z"/><path class="cls-2" d="M13.8,34.55l.24-.17.09,0h0l.38.3a.05.05,0,0,1,0,0v0s0,0,0,0l0,0a.42.42,0,0,0-.16.37v3.48a.48.48,0,0,1-.33.12.72.72,0,0,1-.25,0v-.43H12.6v.45a.46.46,0,0,1-.33.18.13.13,0,0,1-.08,0l-.08,0V34.33l.42.22h.29c.1-.23.18-.45.26-.66s.12-.36.17-.54l.62.17v.08c0,.08-.1.14-.29.17a8.19,8.19,0,0,0-.47.78Zm0,.16H12.6v1.61h1.19Zm0,1.78H12.6v1.64h1.16Zm4.15-1.82a.08.08,0,0,1,0,.08v0l0,0c-.18.06-.27.31-.27.73v.28a15.72,15.72,0,0,1-.1,1.71,3.06,3.06,0,0,1-.33,1.17,1.11,1.11,0,0,1-.72.46.11.11,0,0,1-.12-.12l0-.07a1.57,1.57,0,0,0-.55-.48l0-.07h.11l.53.13.06,0c.12,0,.24-.09.36-.25a13.09,13.09,0,0,0,.22-1.58c0-.62.08-1.3.08-2.05H15.43c-.15.29-.29.54-.41.73a3.06,3.06,0,0,1-.42.53l-.09,0v-.14a14.24,14.24,0,0,0,.89-2.53l.65.21a.19.19,0,0,1,0,.1c0,.07-.08.12-.24.14l-.36.75H17.1l.22-.18.07,0h.06l0,0Zm-2.37,1.07a2,2,0,0,1,.89.86v0c0,.28-.12.45-.35.49s-.3-.19-.3-.5v-.06a3.55,3.55,0,0,0-.33-.76S15.49,35.75,15.54,35.74Z"/><path class="cls-2" d="M13.86,41.29a.18.18,0,0,1,0,.09s0,0,0,0a0,0,0,0,1,0,0,.41.41,0,0,0-.18.34v.78h.5l.33-.37h.08l.34.37,0,.07,0,.06H13.69v1.53h.21l.17-.21a.1.1,0,0,1,.08,0h0l.49.34s0,0,0,.06a.09.09,0,0,1,0,.07.48.48,0,0,0-.17.41v1.57a.61.61,0,0,1-.33.12.29.29,0,0,1-.16,0v-.2H12.82v.25a.56.56,0,0,1-.15.1.48.48,0,0,1-.15,0,.36.36,0,0,1-.2-.06V43.89l.49.32h.37V42.68h-1l0,0s0,0,0,0,0,0,.05-.06H13.2V41.13ZM14,46.15V44.34H12.82v1.81Zm2.9-3.63.36-.43,0,0,.08,0,.42.42a.14.14,0,0,1,0,.09s0,.07,0,.08h-1l.42.19,0,.08c0,.06-.05.11-.14.15a17.83,17.83,0,0,1-.77,2.18,4.17,4.17,0,0,0,1.48,1q.09.06.09.12s0,0-.07.08a1.41,1.41,0,0,0-.67.33,4.31,4.31,0,0,1-.61-.48,4.9,4.9,0,0,1-.54-.62,3.39,3.39,0,0,1-.73.6,5.37,5.37,0,0,1-1,.48h-.07l0,0,.05-.1a3.37,3.37,0,0,0,.77-.52,5.9,5.9,0,0,0,.71-.82,6.68,6.68,0,0,1-.45-2.44,4.2,4.2,0,0,1-.79,1.14h0l0,0a.13.13,0,0,1,0-.08l0-.08a10.44,10.44,0,0,0,.86-2.72l.72.33a.08.08,0,0,1,0,.08c0,.06-.08.12-.25.19l-.31.75Zm-.29.16H15.5a5,5,0,0,0,.55,2.14A9.49,9.49,0,0,0,16.64,42.68Z"/><path class="cls-2" d="M13.24,52.17v-.49l0,0,.05,0,.49.11c.1,0,.16.09.16.15s-.08.12-.22.2a3.15,3.15,0,0,1-1.45,2.51.49.49,0,0,1-.18,0l0,0s0-.08.11-.15a3,3,0,0,0,1.05-2l-.79.31c0,.15,0,.23-.12.23s-.09,0-.14-.11L12,52.5s0-.08.08-.1l.29,0a7.92,7.92,0,0,0,1-2.29.09.09,0,0,1,.1-.08h0l.34.17.11.11a.16.16,0,0,1,0,.1c0,.07-.09.12-.28.15a16.73,16.73,0,0,1-1,1.81Zm-.57-1.68a.85.85,0,0,1,.19.5v.09a.34.34,0,0,1-.28.2l-.08,0q-.12,0-.12-.3v-.11a1.11,1.11,0,0,0-.23-.58l0-.14h0c.07,0,.17.08.31.24A6.35,6.35,0,0,0,12.88,49c0-.1,0-.14.09-.14h.08l.45.39,0,.09s0,.08,0,.08a.33.33,0,0,0-.23.12,1.57,1.57,0,0,0-.23.32Zm2.46-1.57c.1,0,.15.08.15.13s-.07.09-.22.13l-.14.3h.52l.15-.14h.18l.24.21v.06a.13.13,0,0,1,0,.1.18.18,0,0,0-.12.16v1.91a.6.6,0,0,1-.23.06.15.15,0,0,1-.15-.11v-.17h-1v.08l-.15.12a.38.38,0,0,1-.13,0,.19.19,0,0,1-.17-.12V49.23a1.37,1.37,0,0,1,.41.25h.12q.07-.33.09-.42a1.22,1.22,0,0,0,0-.21v0h0ZM14.05,52l.52.15a.07.07,0,0,1,.06.07.14.14,0,0,1-.06.1l0,.06a.27.27,0,0,0,0,.16v.3a2.62,2.62,0,0,0,.72-.52c0-.09.08-.13.14-.13l.09,0,.26.17c.13.11.19.2.19.28v0a9.59,9.59,0,0,0-1.4.46v.49c0,.18.07.28.23.3L15,54l.18,0a.74.74,0,0,0,.18,0,.62.62,0,0,0,.17-.3,1.37,1.37,0,0,0,.07-.49l0,0h0l.06,0c.05.35.15.57.29.64l0,.16V54a.86.86,0,0,1-.59.36h-.28a5.49,5.49,0,0,1-.7,0,.44.44,0,0,1-.36-.44Zm1.42-.63v-.77h-1v.77Zm0-.93v-.84h-1v.84Zm2-1.45h.1l.5.48v.11a1,1,0,0,0-.47.6l-.43,1.11a3,3,0,0,1,.59.64,3.92,3.92,0,0,1,.1.86,1.36,1.36,0,0,1-.22.83,1.46,1.46,0,0,1-.5.28h0q-.15,0-.15-.27a.61.61,0,0,0-.27-.35v1.06c-.06.2-.17.3-.34.3l-.16,0V49.11l0,0a1.66,1.66,0,0,1,.46.17h.53Zm-.78.42v3.74l.19.11a.43.43,0,0,0,.18.06q.36-.13.36-.93v-.31a2.3,2.3,0,0,0-.23-.4,4.12,4.12,0,0,0-.36-.38l.66-1.89Z"/><polygon class="cls-3" points="2.05 87.86 8.65 0.04 8.35 0 1.75 87.86 2.05 87.86"/><polygon class="cls-3" points="4.13 87.86 10.73 0.04 10.44 0 3.83 87.86 4.13 87.86"/><polygon class="cls-3" points="28.34 87.86 21.74 0 21.44 0.04 28.04 87.86 28.34 87.86"/><polygon class="cls-3" points="26.16 87.86 19.56 0 19.26 0.04 25.86 87.86 26.16 87.86"/><rect class="cls-3" x="9.99" y="8.41" width="9.98" height="0.41"/><rect class="cls-3" x="9.53" y="16.83" width="10.91" height="0.41"/><rect class="cls-3" x="8.86" y="24.27" width="12.25" height="0.41"/><rect class="cls-3" x="8.28" y="32.06" width="13.4" height="0.41"/><rect class="cls-3" x="7.75" y="39.86" width="14.45" height="0.41"/><rect class="cls-3" x="7.06" y="47.39" width="15.85" height="0.41"/><rect class="cls-3" x="6.5" y="55.27" width="16.95" height="0.41"/></g></g></svg>