<svg xmlns="http://www.w3.org/2000/svg" viewBox="0 0 97.02 62.6"><defs><style>.cls-1{fill:#b89b8f;}.cls-2{fill:#709630;}.cls-3{fill:#426530;}.cls-4{fill:#a9c95c;}</style></defs><title>資產 4</title><g id="圖層_2" data-name="圖層 2"><g id="圖層_7" data-name="圖層 7"><path class="cls-1" d="M0,61.9.05,55l97,.69,0,6.93"/><path class="cls-2" d="M47.09,15.48,52.36,5.13,61.05,0,73,27.79l10.36,3.54,12,24.33L46.8,55.31"/><path class="cls-3" d="M83.29,38.26,72.93,34.72,61,6.93l-8.69,5.13L47,22.41l-.24,32.9,45,.33Z"/><path class="cls-2" d="M3.51,55l8.86-27.64L24.5,25.71,35,11.93l10.4-1.65,8.48,26L66,39.86,72.78,55.5"/><path class="cls-4" d="M3.51,55l60,.43L59,45,46.9,41.46l-8.47-26L31.5,16.53l-7,9.18-3.39.46-3.57,4.69L11,31.75Z"/></g></g></svg>