<svg xmlns="http://www.w3.org/2000/svg" viewBox="0 0 35.74 32.54"><defs><style>.cls-1{fill:#eec04d;}.cls-2{fill:#d0a029;}.cls-3{fill:#ab5622;}.cls-4{fill:#da8d22;}.cls-5{fill:#f4dc77;}.cls-6{fill:#f5bf2e;}</style></defs><title>資產 6</title><g id="圖層_2" data-name="圖層 2"><g id="圖層_7" data-name="圖層 7"><path class="cls-1" d="M8.71,13.78c0-.35,0-.71,0-1.07C8.67,5.24,14.73,0,22.21,0S35.74,5.24,35.74,12.71A13.55,13.55,0,0,1,25.43,25.87"/><path class="cls-2" d="M13.81,13.78c0-.35,0-.71,0-1.07,0-6.6,4.73-11.46,11-12.5A15.31,15.31,0,0,0,22.21,0C14.73,0,8.67,5.24,8.67,12.71c0,.36,0,.72,0,1.07L19.24,26.37c1.17-.28-.67-4,.36-4.54Z"/><path class="cls-1" d="M0,18.87a13.68,13.68,0,0,0,27.35,0"/><path class="cls-3" d="M23,3.42a.85.85,0,1,0-1.69,0c0,.46.38.43.84.43S23,3.88,23,3.42Z"/><path class="cls-4" d="M4.64,18.87H0A13.67,13.67,0,0,0,13.68,32.54,14.6,14.6,0,0,0,16,32.35,13.69,13.69,0,0,1,4.64,18.87Z"/><ellipse class="cls-5" cx="13.68" cy="18.87" rx="13.68" ry="5.46"/><path class="cls-6" d="M8.12,15.17,13.19,18V14.65A28.26,28.26,0,0,0,8.12,15.17Z"/><path class="cls-6" d="M13.19,23.09V19.74L8.12,22.57A29.2,29.2,0,0,0,13.19,23.09Z"/><path class="cls-6" d="M14.16,14.65V18l5.07-2.82A28.26,28.26,0,0,0,14.16,14.65Z"/><path class="cls-6" d="M15.73,18.33H26a6.77,6.77,0,0,0-2.77-1.94,15.9,15.9,0,0,0-2.5-.87Z"/><path class="cls-6" d="M11.62,18.33l-5-2.81a15.9,15.9,0,0,0-2.5.87,6.77,6.77,0,0,0-2.77,1.94Z"/><path class="cls-6" d="M11.62,19.41H1.32a7,7,0,0,0,2.77,1.94,18.23,18.23,0,0,0,2.5.87Z"/><path class="cls-6" d="M15.73,19.41l5,2.81a18.23,18.23,0,0,0,2.5-.87A7,7,0,0,0,26,19.41Z"/><path class="cls-6" d="M14.16,19.74v3.35a29.2,29.2,0,0,0,5.07-.52Z"/><path class="cls-4" d="M23.85,3a.44.44,0,0,1,0,.3.71.71,0,0,1-.14.29,1.53,1.53,0,0,1-.46.38,2.42,2.42,0,0,1-1.11.27A2.27,2.27,0,0,1,21.06,4a1.54,1.54,0,0,1-.47-.38.87.87,0,0,1-.14-.29.51.51,0,0,1,0-.3.5.5,0,0,0,.17.18.88.88,0,0,0,.2.09,2.05,2.05,0,0,0,.43.09l.44,0,.44,0,.45,0,.44,0a2.05,2.05,0,0,0,.43-.09.88.88,0,0,0,.2-.09A.5.5,0,0,0,23.85,3Z"/><path class="cls-4" d="M30.11,20a.46.46,0,0,1-.46-.47.46.46,0,1,1,.46.47Z"/><path class="cls-4" d="M5.58,26.63A.45.45,0,1,1,6,26.22.45.45,0,0,1,5.58,26.63Z"/><path class="cls-4" d="M19,9a.47.47,0,0,1-.46-.48A.45.45,0,0,1,19,8.07a.46.46,0,0,1,.43.42A.47.47,0,0,1,19,9Z"/><path class="cls-4" d="M21,26.63a.45.45,0,0,1,0-.9.46.46,0,0,1,.47.44A.45.45,0,0,1,21,26.63Z"/><path class="cls-4" d="M15.13,30a.45.45,0,1,1,.45-.46A.45.45,0,0,1,15.13,30Z"/><path class="cls-4" d="M21,28.47a.45.45,0,0,1-.05-.9.45.45,0,1,1,.05.9Z"/><path class="cls-4" d="M31.43,9.46A.45.45,0,0,1,31,9a.46.46,0,0,1,.38-.45.45.45,0,1,1,.07.9Z"/><path class="cls-4" d="M29.63,11.27a.46.46,0,0,1-.45-.48.46.46,0,0,1,.5-.42.47.47,0,0,1,.41.47A.46.46,0,0,1,29.63,11.27Z"/></g></g></svg>