<svg xmlns="http://www.w3.org/2000/svg" viewBox="0 0 42.63 42.63"><defs><style>.cls-1{fill:#ababab;}.cls-2{fill:#8a8a8a;}.cls-3{fill:#dfad7b;}.cls-4{fill:#3a476a;}.cls-5{fill:#963e25;}.cls-6{fill:#b35130;}.cls-7{fill:#cd693d;}.cls-8{fill:#cc841e;}.cls-9{fill:#ab1f24;}.cls-10{fill:#3a6a66;}.cls-11{fill:#c15d3b;}</style></defs><title>資產 7</title><g id="圖層_2" data-name="圖層 2"><g id="圖層_7" data-name="圖層 7"><path class="cls-1" d="M0,30.55H4.26V32H0Z"/><path class="cls-1" d="M38.37,30.55h4.26V32H38.37Z"/><path class="cls-2" d="M.71,33.4H2.13v8.52H.71Z"/><path class="cls-1" d="M1.42,34.82H4.26v1.42H1.42Z"/><path class="cls-1" d="M38.37,34.82h2.84v1.42H38.37Z"/><path class="cls-3" d="M4.26,26.29H38.37V38.37H4.26Z"/><path class="cls-1" d="M.71,38.37H41.92v3.55H.71Z"/><path class="cls-4" d="M4.26,23.45H38.37V27H4.26Z"/><path class="cls-5" d="M3.55,17.76H5v2.85H3.55Z"/><path class="cls-5" d="M37.66,17.76h1.42v2.85H37.66Z"/><path class="cls-4" d="M9.24,12.08H33.4v5.68H9.24Z"/><path class="cls-6" d="M8.53,7.11H10v3.55H8.53Z"/><path class="cls-6" d="M32.69,7.11h1.42v3.55H32.69Z"/><path class="cls-2" d="M0,41.21H42.63v1.42H0Z"/><path class="cls-7" d="M7.67,12.29l-.56-1.63,1.13-.43A10.46,10.46,0,0,0,14.5,4l.42-1.14H27.71L28.14,4a10.44,10.44,0,0,0,6.25,6.25l1.14.43L35,12.29a.68.68,0,0,1-.64.5h-26A.69.69,0,0,1,7.67,12.29Z"/><path class="cls-6" d="M16.34,2.84H14.92V1.42A1.43,1.43,0,0,1,16.34,0h.71V1.42h-.71Z"/><path class="cls-6" d="M27.71,2.84H26.29V1.42h-.71V0h.71a1.43,1.43,0,0,1,1.42,1.42Z"/><path class="cls-6" d="M37.94,20.18a6.93,6.93,0,0,1-4.12-2.06l-.42-.36H9.24l-.43.43a7.13,7.13,0,0,1-4.12,2.06l-3.27.36.43,1.77A1.37,1.37,0,0,0,3.2,23.45H39.36a1.37,1.37,0,0,0,1.35-1.07l.5-1.77Z"/><path class="cls-8" d="M19.9,16.34h2.84v2.85H19.9Z"/><path class="cls-9" d="M3.55,23.45H5V38.37H3.55Z"/><path class="cls-9" d="M37.66,23.45h1.42V38.37H37.66Z"/><path class="cls-10" d="M30.55,27l.71,2.84h2.85L34.82,27Z"/><path class="cls-9" d="M32,29.84H33.4v8.53H32Z"/><path class="cls-9" d="M24.87,29.84h1.42v8.53H24.87Z"/><path class="cls-9" d="M16.34,29.84h1.42v8.53H16.34Z"/><path class="cls-10" d="M23.45,27l.71,2.84H27L27.71,27Z"/><path class="cls-10" d="M15.63,29.84h2.84L19.19,27H14.92Z"/><path class="cls-10" d="M8.53,29.84h2.84L12.08,27H7.82Z"/><path class="cls-9" d="M9.24,29.84h1.42v8.53H9.24Z"/><path class="cls-2" d="M40.5,33.4h1.42v8.52H40.5Z"/><path class="cls-11" d="M29,5.68A18,18,0,0,1,28.14,4l-.43-1.14H14.92L14.5,4a9.37,9.37,0,0,1-.86,1.7Z"/></g></g></svg>