<svg xmlns="http://www.w3.org/2000/svg" viewBox="0 0 44.6 53.17"><defs><style>.cls-1{fill:#497f37;}.cls-2{fill:#c57317;}.cls-3{fill:#a46123;}.cls-4{fill:#4f8c36;}.cls-5{fill:#5ca433;}.cls-6{fill:#6eba36;}</style></defs><title>資產 3</title><g id="圖層_2" data-name="圖層 2"><g id="圖層_7" data-name="圖層 7"><path class="cls-1" d="M16.93,29.17a6.23,6.23,0,1,0-5,9.94,6.31,6.31,0,0,0,2-.33,5.07,5.07,0,0,0,2.54.67,5.15,5.15,0,0,0,.47-10.28Z"/><path class="cls-2" d="M21.57,53.17a2.23,2.23,0,0,1-2.22-2.23V23.26a2.22,2.22,0,1,1,4.44,0V50.94A2.22,2.22,0,0,1,21.57,53.17Z"/><path class="cls-3" d="M21.57,50.94V23.26a2.22,2.22,0,0,1,1.11-1.92,2.17,2.17,0,0,0-1.11-.3,2.22,2.22,0,0,0-2.22,2.22V50.94a2.23,2.23,0,0,0,2.22,2.23,2.27,2.27,0,0,0,1.11-.3A2.24,2.24,0,0,1,21.57,50.94Z"/><path class="cls-4" d="M40.63,18.53A7.44,7.44,0,1,0,26.18,16a7.87,7.87,0,0,0,.13,1.38A9,9,0,1,0,36.7,27.84a5.13,5.13,0,1,0,3.93-9.31Z"/><path class="cls-1" d="M37.25,16.44a12.38,12.38,0,0,0-2.76-7.81,8.46,8.46,0,0,0-.87-.05A7.44,7.44,0,0,0,26.18,16a7.87,7.87,0,0,0,.13,1.38,9,9,0,0,0-1.73,17.23,10.76,10.76,0,0,0,2.72-6.06A12.39,12.39,0,0,0,37.25,16.44Z"/><path class="cls-1" d="M29.42,32.59a.83.83,0,0,1-.79-.59.82.82,0,0,1,.57-1,4.93,4.93,0,0,0,3.49-3.86.82.82,0,0,1,1.61.28,6.6,6.6,0,0,1-4.66,5.15A.83.83,0,0,1,29.42,32.59Z"/><path class="cls-5" d="M16.55,19.91a7.38,7.38,0,0,0-3.56.9,6.5,6.5,0,0,0-3.92-1.3H8.9a4.66,4.66,0,1,0-6.39,6.07c0,.17,0,.34,0,.51a6.58,6.58,0,0,0,6.58,6.58A6.74,6.74,0,0,0,11,32.39a7.49,7.49,0,1,0,5.57-12.48Z"/><path class="cls-4" d="M8.11,28.32a4.66,4.66,0,0,1,1.67-8.77,5.63,5.63,0,0,0-.71,0H8.9a4.66,4.66,0,1,0-6.39,6.07c0,.17,0,.34,0,.51a6.58,6.58,0,0,0,6.58,6.58h.26a6.52,6.52,0,0,1-1.24-3.84A4.1,4.1,0,0,1,8.11,28.32Z"/><path class="cls-4" d="M16.55,19.91a7.38,7.38,0,0,0-3.56.9,6.5,6.5,0,0,0-3.92-1.3H8.9A4.68,4.68,0,0,0,3.26,17a11.26,11.26,0,0,0,11,9.16,10.86,10.86,0,0,0,2.56-.29,12.33,12.33,0,0,0,7.05,2.91A7.89,7.89,0,0,0,24,27.39,7.48,7.48,0,0,0,16.55,19.91Z"/><path class="cls-6" d="M29.08,8.43a6.67,6.67,0,0,0,.07-1A7.42,7.42,0,0,0,14.32,7h0a7.91,7.91,0,1,0,3.47,15A9,9,0,1,0,29.08,8.43Z"/><path class="cls-5" d="M18.18,11.55h0A7.44,7.44,0,0,1,28.83,5.26,7.42,7.42,0,0,0,14.32,7h0A7.91,7.91,0,0,0,10.68,22a7.92,7.92,0,0,1,7.5-10.4Z"/><path class="cls-5" d="M24.87,23a.82.82,0,0,1-.81-.82.81.81,0,0,1,.81-.81,5,5,0,0,0,5-5,.81.81,0,1,1,1.62,0A6.61,6.61,0,0,1,24.87,23Z"/><circle class="cls-5" cx="13.65" cy="19.16" r="2.07"/><circle class="cls-4" cx="16.76" cy="30.59" r="2.07"/><circle class="cls-5" cx="24.04" cy="11.22" r="2.07"/><circle class="cls-5" cx="26.11" cy="15.69" r="0.79"/><circle class="cls-5" cx="18.83" cy="16.1" r="0.79"/><circle class="cls-5" cx="21.18" cy="20.14" r="0.79"/><circle class="cls-4" cx="11.23" cy="28.05" r="0.79"/><path class="cls-6" d="M43.93,53.17a3.74,3.74,0,0,0-2.54-5.67,5.76,5.76,0,0,0-11.47.7c0,.1,0,.2,0,.31a3.62,3.62,0,0,0-2.16,3.31A3.52,3.52,0,0,0,28,53.16Z"/><path class="cls-5" d="M33.64,50.24c0-.1,0-.2,0-.3a5.76,5.76,0,0,1,5.76-5.76l.42,0a5.75,5.75,0,0,0-9.89,4c0,.1,0,.2,0,.31A3.62,3.62,0,0,0,28,53.17H31.5A3.62,3.62,0,0,1,33.64,50.24Z"/><circle class="cls-5" cx="37.74" cy="49.07" r="2.07"/><circle class="cls-5" cx="41.97" cy="49.86" r="0.79"/><path class="cls-6" d="M15.18,53.13a3.39,3.39,0,0,0,.24-1.28,3.53,3.53,0,0,0-3.53-3.53,4.38,4.38,0,0,0-.51,0,5.39,5.39,0,1,0-9.56,4.77Z"/><path class="cls-5" d="M9.56,46.42a5.39,5.39,0,0,1,.71,0,5.39,5.39,0,0,0-8.45,6.66H4.33a5.66,5.66,0,0,1-.16-1.31A5.39,5.39,0,0,1,9.56,46.42Z"/><circle class="cls-5" cx="7.36" cy="49.86" r="0.79"/><circle class="cls-5" cx="11.18" cy="51.14" r="0.79"/></g></g></svg>