<svg xmlns="http://www.w3.org/2000/svg" viewBox="0 0 204.31 94.35"><defs><style>.cls-1{fill:#fff;}.cls-2{fill:none;stroke:#231815;stroke-miterlimit:10;stroke-width:0.5px;}</style></defs><title>資產 1</title><g id="圖層_2" data-name="圖層 2"><g id="圖層_1-2" data-name="圖層 1"><rect class="cls-1" x="5.25" y="5.87" width="198.81" height="88.24" rx="10.41" ry="10.41"/><path class="cls-2" d="M153.91,5.87h39.41c5.93,0,10.74,4.51,10.74,10.09V84c0,5.57-4.81,10.09-10.74,10.09H16C10.05,94.1,5.25,89.58,5.25,84V16c0-5.58,4.8-10.09,10.73-10.09H48.36"/><rect class="cls-1" x="0.25" y="0.25" width="198.81" height="88.24" rx="10.41" ry="10.41"/><path class="cls-2" d="M148.92.25h39.41c5.92,0,10.73,4.52,10.73,10.09V78.39c0,5.58-4.81,10.1-10.73,10.1H11C5.06,88.49.25,84,.25,78.39v-68C.25,4.77,5.06.25,11,.25H43.36"/><path class="cls-2" d="M153.91,5.87h39.41c5.93,0,10.74,4.51,10.74,10.09V84c0,5.57-4.81,10.09-10.74,10.09H16C10.05,94.1,5.25,89.58,5.25,84V16c0-5.58,4.8-10.09,10.73-10.09H48.36"/></g></g></svg>