<svg xmlns="http://www.w3.org/2000/svg" viewBox="0 0 26.18 32.77"><defs><style>.cls-1{fill:#40220f;}</style></defs><title>資產 20</title><g id="圖層_2" data-name="圖層 2"><g id="圖層_7" data-name="圖層 7"><path class="cls-1" d="M26.16,13.77c-.76-1.22-2.61-1.84-4-2a6.19,6.19,0,0,0-2,0c.09-.27.19-.54.28-.8h0a.28.28,0,0,0-.11-.3c-.09-.2-.31-.26-.56-.37A3.6,3.6,0,0,0,18.58,10c-.39,0-1.06-.06-1.27.29a.36.36,0,0,0-.18.08,6.36,6.36,0,0,0-.88,1.55l-.26.45a25.09,25.09,0,0,0-.68-4.58,4.71,4.71,0,0,0,5.47-.56.15.15,0,0,0,0-.22,4.53,4.53,0,0,0-4.13-1c-.33.1-1.28.57-1.44,1l-.07,0c-.61-2.38-1.45-4.73-2.23-7A.21.21,0,0,0,12.67,0C12,.11,11.44.31,10.8.36c-.36,0-.49,0-.76.17a.19.19,0,0,0,0,.19c.11.39.4.71.54,1.1s.35,1,.55,1.5c.11.31.23.62.34.92a3.4,3.4,0,0,0-1.79.54,7.25,7.25,0,0,0-.73.5H8.83a11.76,11.76,0,0,1-2.37.24,7.29,7.29,0,0,1-1.55-.06c-.74-.14-.85-.21-.42-.77A7.14,7.14,0,0,1,6.77,3.11c1.05-.48,3.24-.68,4.15.22,0,0,.12,0,.08-.06-.74-1-2.76-.92-3.8-.59A7.34,7.34,0,0,0,5,4c-.51.38-1.06.68-1.29,1.28,0,.07,0,.14.1.17a6.86,6.86,0,0,0,3.05.38A7.27,7.27,0,0,0,8.52,5.6,12,12,0,0,0,7.26,6.91a16.2,16.2,0,0,0-1.9,3,5.61,5.61,0,0,0-.93,2.71.16.16,0,0,0,.24.14,12.39,12.39,0,0,0,5-3.17,8,8,0,0,0,2-4.56c.19.58.36,1.16.5,1.77a34.38,34.38,0,0,1,1.1,6.29v0a5,5,0,0,0-1.36.7,6.4,6.4,0,0,0-1.71,2c-.12.21-.51.68-.35,1,.38.69,2.05.3,2.89,0-.39,2.22-.66,4.49-1.12,6.72l-.12.53a4.33,4.33,0,0,0-.88,0c-.12,0-.7.14-.86.14-.19-.85-.39-1.7-.53-2.53a17.55,17.55,0,0,0-.5-2A1.09,1.09,0,0,0,10,20a2.06,2.06,0,0,0,.79-.64c.19-.19.45-.42.29-.71s-.56-.38-.82-.49a3.64,3.64,0,0,0-1.11-.33,2.65,2.65,0,0,0-1,.08,18.54,18.54,0,0,1-.81-3c.15-.27.12-.6-.28-.67a4.14,4.14,0,0,0-2.58.4h0l-.12.05s0,0,0,0a3.72,3.72,0,0,0-.31.22L3.86,15a0,0,0,0,0,0,0c-.27.26-.43.58-.07.8,0,0,0,0,0,0-.13.39.28.91.43,1.22s.24.51.37.75a3.06,3.06,0,0,0-2.45-.44A3.7,3.7,0,0,0,0,18.48a.18.18,0,0,0,0,.22,2.3,2.3,0,0,0,1.51.62,2.1,2.1,0,0,0,.86-.1l-.32.35A9.86,9.86,0,0,0,1,21.22a9.59,9.59,0,0,0-.71,1.34.17.17,0,0,0,.16.21A5.43,5.43,0,0,0,4,21.54a2.84,2.84,0,0,0,1.31-2.05v0c.06.15.12.3.17.46v0a.1.1,0,0,0,.06.14h0a5.66,5.66,0,0,1,.15.59,44.9,44.9,0,0,1,.81,6,4.85,4.85,0,0,0-2.38-.33c-1,.13-1.86.64-2.81.8,0,0,0,0-.07,0a1,1,0,0,0-.37.1c-.15.07-.06.3.09.31a7.59,7.59,0,0,0,2.19-.67,5.59,5.59,0,0,1,3.36-.07c0,.59.07,1.19.11,1.78a4.17,4.17,0,0,1-.13.42c0,.11-.09.59-.22.62a.15.15,0,0,0-.12.08l-.78.05a13.46,13.46,0,0,0-3.42.09.2.2,0,0,0,.1.39A28,28,0,0,1,6.09,30a9.36,9.36,0,0,0,2.49-.21.21.21,0,0,0,.12-.3A1.69,1.69,0,0,0,7.87,29,11,11,0,0,1,9,28.42c.22-.1,1-.23,1.28-.39-.19.5-.39,1-.59,1.51a.28.28,0,0,0,.19.34c.72.2.8.47,1.43.15a14.16,14.16,0,0,0,3.92-.41,13.16,13.16,0,0,1,5.12.16,4.3,4.3,0,0,0-.65.47.2.2,0,0,0,.09.33,6.29,6.29,0,0,0,1.5,0c.61-.06,1.15.12,1.75.09.14,0,.18-.23,0-.26a4.76,4.76,0,0,0-1.29-.25c-.45,0-.9.09-1.36.11a3.56,3.56,0,0,1,.67-.31.22.22,0,0,0,0-.43A13.65,13.65,0,0,0,16,29.05h-.09c.25-1,.27-2.15.43-3.2.17.24.4.45.56.66a5,5,0,0,1,1.24,2.26.19.19,0,0,0,.37,0,1.65,1.65,0,0,0-.17-.65A42.59,42.59,0,0,1,23,27.79h.19a.15.15,0,0,0,.05-.3,6.13,6.13,0,0,0-2.3,0c-.9.1-1.77.37-2.65.53a9.87,9.87,0,0,0-.59-1,5.45,5.45,0,0,0-.6-.7A9.6,9.6,0,0,1,20,24.72,11.29,11.29,0,0,0,22.3,24a.11.11,0,0,0-.06-.2,7.4,7.4,0,0,0-2.88.74A4.77,4.77,0,0,0,17,26.24a4.45,4.45,0,0,1-.59-.74c.3-1.64.64-3.28,1.07-4.9.51-1.89,1.09-3.78,1.7-5.65l.09.22a10.24,10.24,0,0,0,1.16,1.68c1,1.27,3,1.52,3.81,2.93.13.22.51.07.42-.18-.54-1.56-.64-3.44-1.52-4.88a5.37,5.37,0,0,0,3-.7A.19.19,0,0,0,26.16,13.77ZM16.45,6.41a3.1,3.1,0,0,1,.86-.21,4.39,4.39,0,0,1,1.9.23c.18.07.87.31,1,.59s.16.27-.11.36a2.5,2.5,0,0,1-.77.46,6.8,6.8,0,0,1-1.8.13c-.3,0-1.74-.1-2-.41,0,0,.06,0,0-.08a.21.21,0,0,1,0-.06l0-.06c.11-.13.88-.08,1-.09.76-.07,1.52-.09,2.27-.17a.12.12,0,1,0,0-.24A14.37,14.37,0,0,0,16.21,7l-.53,0A2.71,2.71,0,0,1,16.45,6.41Zm2.39,4.22a7.39,7.39,0,0,1,1,.39A11,11,0,0,0,19,13.08a17.44,17.44,0,0,1-2.12-.68,10.55,10.55,0,0,0,.8-1.66.37.37,0,0,0,0-.14.64.64,0,0,1,.22-.06A4.14,4.14,0,0,1,18.84,10.63ZM10.78,1.32c-.2-.41-.36-.4,0-.57a6.28,6.28,0,0,1,1.31-.2c.56-.06.51,0,.69.56.34,1.09.79,2.14,1.12,3.24.06.18.11.36.16.55-.32.08-.48.4-.84.43-.2,0-.4,0-.6,0a3.12,3.12,0,0,0-.44.09c-.21-.69-.43-1.37-.69-2.08S11.08,2,10.78,1.32Zm.37,4.75a8.55,8.55,0,0,1-2.82,4.36,8.45,8.45,0,0,1-1.57,1c.24-.41.56-.81.79-1.21C8,9.48,8.41,8.72,8.87,8a14.2,14.2,0,0,1,1.85-2.31s.66-.76.67-.75S11.18,6,11.15,6.07Zm.25-1.51A12.7,12.7,0,0,0,8.52,8c-.45.75-.89,1.51-1.32,2.26a8.5,8.5,0,0,0-.8,1.36c-.54.26-1.1.49-1.65.72A6.4,6.4,0,0,1,5.62,10,18.43,18.43,0,0,1,7.14,7.51,10.62,10.62,0,0,1,8.92,5.62c.53-.44,1.7-1.37,2.54-1.24l.06.14A.19.19,0,0,0,11.4,4.56Zm.85,1a3.8,3.8,0,0,0,1.06.09.93.93,0,0,0,.49-.17c.07,0,.11-.13.18-.18a.59.59,0,0,1,.19-.11c.42,1.47.8,2.93,1.12,4.42a.16.16,0,0,0-.1.08,1.28,1.28,0,0,1-.38.26,6.16,6.16,0,0,1-.55.33,2.1,2.1,0,0,1-.85.3c-.2-1.27-.51-2.54-.82-3.75C12.49,6.42,12.37,6,12.25,5.59Zm1.2,5.33a1.81,1.81,0,0,0,1.1-.25,3.48,3.48,0,0,0,.85-.52c.15.77.3,1.53.43,2.3a.08.08,0,0,0,.08.06c-.07.14-.15.27-.22.42h0a4.75,4.75,0,0,0-2.06.06A14.68,14.68,0,0,0,13.45,10.92Zm-2.64,5.74c-.5-.17-.61-.41-.31-.72.21-.89,1.49-1.89,2.26-2.3a5,5,0,0,1,2.53-.55,8.14,8.14,0,0,0-1.66,1.11,14.67,14.67,0,0,0-2.38,2.41.11.11,0,0,0,0,.08A3.11,3.11,0,0,1,10.81,16.66Zm.94,0h-.21c.73-.57,1.32-1.31,2-1.94a11,11,0,0,1,2-1.49l-.22.46c-.19.47-.36.95-.52,1.43a5.37,5.37,0,0,1-2.1,1.31A5.23,5.23,0,0,1,11.75,16.67Zm1.35,0a6.38,6.38,0,0,0,1.49-.88c-.31,1-.59,2-.82,3a25.38,25.38,0,0,0-.5,2.74,6.6,6.6,0,0,1-.77,0A36.69,36.69,0,0,0,13,16.7Zm-.66,5.26a2.33,2.33,0,0,0,.79.06,33.67,33.67,0,0,0-.17,5.59l-.22,0a2.54,2.54,0,0,1-.77-.39,3.36,3.36,0,0,0-.51-.32c-.11-.05-.28-.11-.23-.26s0,0,0,0a26.94,26.94,0,0,0,.83-3.06C12.26,23,12.35,22.44,12.44,21.92Zm-2.14,2.5,1.07-.07s0,0,.06,0a32.78,32.78,0,0,1-1.07,3.31H10.3a17.89,17.89,0,0,0-.48-3.29A1.56,1.56,0,0,0,10.3,24.42ZM9.24,18.13a3.13,3.13,0,0,1,1.33.53c.16.12.22.17.08.37a1.3,1.3,0,0,1-.22.19,2.24,2.24,0,0,1-.36.33,1,1,0,0,1-1.37-.36.07.07,0,0,0-.06,0A.18.18,0,0,0,8.52,19c0-.07,0-.13-.07-.19a1.92,1.92,0,0,0,.75.26c.23,0,.46-.06.61.16,0,.05.15.06.16,0,0-.28-.19-.38-.44-.39a2.45,2.45,0,0,1-.54,0c-.19-.05-.38-.18-.57-.13h0c-.05-.16-.1-.32-.16-.48A2,2,0,0,1,9.24,18.13ZM6.77,14.49c.66.11.16.49-.28.62-.64.18-1.31.18-1.94.37-.08,0-.19.1-.27.09-.45,0-.21-.3-.06-.46s.25-.17.36-.3a4.7,4.7,0,0,1,.9-.28A4.29,4.29,0,0,1,6.77,14.49Zm-5.35,7.2c.69-.61,1.28-1.32,2-1.93.2-.18,1-.94,1.35-.85s.17.69.09,1A3.52,3.52,0,0,1,3,21.77a5.57,5.57,0,0,1-2.3.68c.15-.32.38-.64.53-.94A10.05,10.05,0,0,1,2,20.28,3.6,3.6,0,0,1,4.52,18.5a.06.06,0,0,0,0-.11,2,2,0,0,0-1.2.16.22.22,0,0,0-.12,0c-.48.11-.83.43-1.36.43-.23,0-1,0-1.17-.24s.18-.41.32-.52a3.54,3.54,0,0,1,3.66-.13l.26.54a1.12,1.12,0,0,0-.49.14,10.93,10.93,0,0,0-3.17,2.78C1.15,21.64,1.31,21.79,1.42,21.69ZM4,16l0,0a4.48,4.48,0,0,0,1.12-.27A6.83,6.83,0,0,0,7,15.23a1.33,1.33,0,0,0,.19-.14,11.31,11.31,0,0,0,.54,2.37c.16.53.33,1.06.5,1.59a.29.29,0,0,0-.08.1.08.08,0,0,0,0,0A1.89,1.89,0,0,1,7,19.66a6.36,6.36,0,0,1-.89.16c-.07,0-.23.05-.38.06a7.83,7.83,0,0,0-.45-1.19C5.17,18.46,3.89,16,4,16Zm1.85,4.21A5.45,5.45,0,0,0,7.44,20a1.81,1.81,0,0,0,1-.44c.15.53.29,1.07.39,1.62.16.93.33,1.85.51,2.77a2.92,2.92,0,0,0-1.08.21,9.09,9.09,0,0,1-1,.14l-.56,0c-.14-.94-.31-1.88-.5-2.81C6,21.05,5.94,20.6,5.82,20.16ZM7.39,28.8a.2.2,0,0,0,0,.35c.13.1.44.22.68.35-.35,0-.76,0-1.05,0l-.42,0a1.86,1.86,0,0,0,.1-.37c0-.15.07-.3.11-.45a.13.13,0,0,0,.1-.16,21.34,21.34,0,0,0-.24-4,4.82,4.82,0,0,0,2.69-.4l.06.32a24.5,24.5,0,0,1,.52,3.18A6,6,0,0,0,7.39,28.8Zm4,1a.13.13,0,0,0-.13-.12,2.14,2.14,0,0,1-1-.27c.33-.85.65-1.69.94-2.54a.3.3,0,0,0,.06.11,6.08,6.08,0,0,0,.69.54,1.51,1.51,0,0,0,1.13.42c0,.54.07,1.07.12,1.6C12.53,29.7,11.88,29.8,11.42,29.84Zm2-.3c.23-2.38.27-4.75.52-7.11a2.87,2.87,0,0,0,1.16.47,2.53,2.53,0,0,0,1.28,0,31.1,31.1,0,0,0-.65,6.24C15.23,29.18,14.32,29.37,13.39,29.54Zm3.51-9.09c-.17.63-.31,1.27-.45,1.9h0a.12.12,0,0,0-.1,0,.28.28,0,0,0-.13,0,2.14,2.14,0,0,1-1.23.05,6.42,6.42,0,0,1-1-.34A25.12,25.12,0,0,1,14.49,19c.11-.46.24-.92.36-1.37a3.78,3.78,0,0,0,.92.4c.55.14,1.17.08,1.73.19h0C17.3,19,17.09,19.71,16.9,20.45Zm.77-2.68a2.12,2.12,0,0,0-.78-.12A6.17,6.17,0,0,1,15,17.24c.29-1,.61-2,1-3a10.54,10.54,0,0,1,.8-1.57,7.13,7.13,0,0,0,1,.47,6.52,6.52,0,0,0,.72.21c.17,0,.32.11.48.15-.18.64-.34,1.28-.52,1.89C18.16,16.2,17.91,17,17.67,17.77Zm6.24,1c-.82-.65-1.93-.92-2.74-1.63a8.3,8.3,0,0,1-1.33-1.73,3.32,3.32,0,0,1-.42-1.28c0-.16.1-.33.16-.49.28.42.73.82,1,1.11a16,16,0,0,0,2,2.51c.08.06.24,0,.19-.12A10.33,10.33,0,0,0,21.14,15c-.42-.54-1-1.06-1.46-1.64l.16-.43c.54-.14,1.63.71,1.87.89a5,5,0,0,1,1.55,2.4A21.33,21.33,0,0,1,23.91,18.78ZM25,14.11a9.86,9.86,0,0,1-2,.36,3.85,3.85,0,0,0-.69-.77,8,8,0,0,0-1-.67l.26.05a4.08,4.08,0,0,1,1.64.54.11.11,0,0,0,.18,0s0-.06,0-.09a.16.16,0,0,0-.07-.18,5.78,5.78,0,0,0-1.91-.57l-1.1-.2a1.1,1.1,0,0,0-.28,0l.15-.42c1.25-.47,4,.55,4.55.9a3.8,3.8,0,0,1,.65.46C25.92,14,25.47,14,25,14.11Z"/><path class="cls-1" d="M20.91,31.79c-.59-.17-1.26-.27-1.88-.39a11.18,11.18,0,0,0-3.74,0c-.06,0,0,.11,0,.1a15.89,15.89,0,0,1,3.64.3,13.61,13.61,0,0,1,2.39.55c.1,0,.16-.09.12-.16C21.32,31.85,21.24,31.88,20.91,31.79Z"/><path class="cls-1" d="M19.08,30.61c-.72-.16-1.46-.13-2.19-.22-.41-.06-.71-.12-1,.21,0,0,0,.11.07.07.32-.29,1.24,0,1.66,0a13.76,13.76,0,0,0,1.44.14h0A.1.1,0,0,0,19.08,30.61Z"/><path class="cls-1" d="M8.14,4a23,23,0,0,0-2.35.39.14.14,0,0,0-.1.17s0,0,0,0a.11.11,0,0,0,.21,0s.71-.11.62-.09c.45-.08.9-.14,1.35-.23.8-.16,1.61-.28,2.41-.46.06,0,0-.09,0-.1A8.17,8.17,0,0,0,8.14,4Z"/><path class="cls-1" d="M3.33,25c.06,0,.09-.08,0-.09a6.24,6.24,0,0,0-1.55-.17,3.54,3.54,0,0,0-1.18.11h0c-.17.05-.12.34.08.28a9,9,0,0,1,1-.13A6,6,0,0,1,3.33,25Z"/><path class="cls-1" d="M13,30.84c.18-.08,0-.33-.12-.29l-.27.06h0c-2,.49-4.2.47-5.71,2.06,0,0,0,.11.08.07a8,8,0,0,1,3.33-1.33A12,12,0,0,0,13,30.84Z"/><path class="cls-1" d="M14.55,31.69a7.25,7.25,0,0,0-2.13-.16c-.46,0-.91,0-1.36,0s-1.25.31-1.51.09c-.05,0-.1,0-.08.07.23.53,1.35.15,1.76.14a25,25,0,0,1,3.24.17C14.65,32.1,14.79,31.76,14.55,31.69Z"/></g></g></svg>