<svg xmlns="http://www.w3.org/2000/svg" viewBox="0 0 49.02 34.62"><defs><style>.cls-1{fill:#40220f;}</style></defs><title>資產 18</title><g id="圖層_2" data-name="圖層 2"><g id="圖層_7" data-name="圖層 7"><path class="cls-1" d="M28.22,9.13a.7.7,0,0,0,0,.14.65.65,0,0,1,0,.13.5.5,0,0,0,0,.13c.05.09.2.14.26,0a.13.13,0,0,0,0-.12l0,0a.1.1,0,0,0-.06-.09A.62.62,0,0,0,28.33,9a.07.07,0,0,0-.11.06h0Z"/><path class="cls-1" d="M29.29,9.16a.13.13,0,0,0,0-.06.75.75,0,0,0-.05-.16,2.13,2.13,0,0,1-.11-.33c0-.08-.14,0-.13,0s0,.24,0,.36,0,.1,0,.15,0,0,0,.07.06.07,0,0a.1.1,0,0,0,.18,0S29.29,9.16,29.29,9.16Z"/><path class="cls-1" d="M33.57,8a.13.13,0,0,0,.14.07c.15,0,.12-.22.1-.32s-.05-.3-.16-.35a.07.07,0,0,0-.1,0,.61.61,0,0,0,0,.19,1.21,1.21,0,0,1,0,.19C33.56,7.89,33.54,8,33.57,8Z"/><path class="cls-1" d="M33,8.16a.55.55,0,0,0,.06.4c.07.11.25.24.38.16a.11.11,0,0,0,0-.17c-.07-.07-.18,0-.26-.1a.37.37,0,0,1-.07-.27C33.11,8.1,33,8.09,33,8.16Z"/><path class="cls-1" d="M9.71,7.54a.08.08,0,0,0-.13.08,1,1,0,0,0,.35.5c.12.1.3-.06.18-.18S9.85,7.67,9.71,7.54Z"/><path class="cls-1" d="M10.36,7.55a2,2,0,0,0,.17.61.11.11,0,0,0,.19,0,.93.93,0,0,0-.23-.64C10.44,7.44,10.34,7.47,10.36,7.55Z"/><path class="cls-1" d="M10,31.82a.11.11,0,0,0-.12,0,.14.14,0,0,0-.08.1s0,.07,0,.09a.06.06,0,0,0,.06.08l.06.2c0,.12,0,.22.07.32a.09.09,0,0,0,.13,0c.1-.1.06-.26,0-.39A.81.81,0,0,0,10,31.82Z"/><path class="cls-1" d="M10.81,31.67a.07.07,0,0,0-.13,0,1.24,1.24,0,0,0,0,.43c0,.14,0,.29,0,.41a.09.09,0,0,0,.16,0,.71.71,0,0,0,0-.41A1.24,1.24,0,0,0,10.81,31.67Z"/><path class="cls-1" d="M13.32,34.06a.07.07,0,0,0,0,.13h0a0,0,0,0,1,0,0,.26.26,0,0,1,0,.08c0,.07,0,.15.05.22s.28.12.26,0S13.54,34.08,13.32,34.06Z"/><path class="cls-1" d="M23.1,34a1.29,1.29,0,0,1,0,.39.15.15,0,0,0,.07.13.15.15,0,0,0,.23-.13.64.64,0,0,0-.14-.5C23.21,33.82,23.07,33.93,23.1,34Z"/><path class="cls-1" d="M23.79,33.51a1,1,0,0,1,0,.35c0,.1,0,.2.05.28a.11.11,0,0,0,.11,0c.21-.14,0-.51,0-.68A.07.07,0,0,0,23.79,33.51Z"/><path class="cls-1" d="M48.54,22.32a11,11,0,0,0-3.33-1.49c-1.26-.42-2.55-.77-3.85-1.08A36.08,36.08,0,0,0,36.75,19c-.8-.08-1.61-.11-2.42-.16a8.05,8.05,0,0,0-1.62-.13v0a5.78,5.78,0,0,1-.41-1.57,5,5,0,0,0,1.59-1.27c.16-.22.32-.5.5-.75a1.38,1.38,0,0,0,.43.3c.35.15.51,0,.84,0s.85.24,1.32.14.63-.38,1-.58.69-.2,1-.41c.7-.5.14-1.37.41-2,.11-.25.32-.46.33-.75a1.26,1.26,0,0,0-.38-.85c-.27-.32-.1-.42-.09-.77a.63.63,0,0,0,0-.3.9.9,0,0,0-.54-.49c-.38-.18-.8-.17-1.07-.53a1.36,1.36,0,0,0-.66-.57,2.55,2.55,0,0,0-1.66-.12.59.59,0,0,1,.17-.29,1.68,1.68,0,0,0,.5-1.42,1.49,1.49,0,0,0-.55-1,3.05,3.05,0,0,1-.87-1c-.31-.56-.73-1-1.26-.65A1.81,1.81,0,0,0,32.74,3a1.8,1.8,0,0,0-1-.36c-.58-.14-1-.57-1.61-.66a1.16,1.16,0,0,0-1.49,1.26,1.06,1.06,0,0,0-1.15.42,2.69,2.69,0,0,0-.29,1.11c-.05.3-.21.54-.27.82a1.72,1.72,0,0,0-1.43.45c-.43-.58-1.17-1.59-1.93-1a1.15,1.15,0,0,0-.28.41c-.21.39-.37.23-.74.22a.74.74,0,0,0-.74.53c-.08.34.13.62.24.9.17.48-.27.86,0,1.39.1.21.29.36.39.56a4.33,4.33,0,0,1,.24,1.06,1.47,1.47,0,0,1-.05.42,3,3,0,0,0,.15.83c0,.18.26.14.31,0a1.83,1.83,0,0,0,.13.16l.1.15s0,0,0,.06h0c0,.1.1.15.18.09.27-.23-.26-.6-.38-.76A.11.11,0,0,0,23,11.1a.8.8,0,0,1,.06-.73.17.17,0,0,0,0-.17c-.26-.34-.15-.73-.3-1.1s-.66-.66-.45-1.26c.07-.19.26-.37.22-.6s-.34-.33-.38-.63c-.12-.74.51-.39.9-.44s.32-.14.44-.35.17-.45.43-.54.61.15.81.36a6.82,6.82,0,0,1,.63.79c0,.07.17.05.23,0A1.55,1.55,0,0,1,27.05,6a.15.15,0,0,0,.16-.15c0-.25.14-.39.22-.6a4.54,4.54,0,0,0,.11-.66c.11-.72.43-1.12,1.21-.91a.16.16,0,0,0,.19-.19c-.16-1.06.7-1.32,1.56-1,.32.11.58.33.89.46.68.26,1.36.23,1.58,1.09a.15.15,0,0,0,.25.07c.64-.66,1,.51,1.25.92a1.92,1.92,0,0,0,.49.45,1.4,1.4,0,0,1,.62,1.31c0,.52-.37.66-.61,1a.51.51,0,0,0-.07.4.13.13,0,0,0,0,.06l-.17.11c-.13.11,0,.3.17.23l.07,0a2.93,2.93,0,0,1,.3,1c0,.71-.63,1-1.24.82a.15.15,0,0,0-.18.14c0,.62-.34.85-1,.75l-.13,0a.07.07,0,0,0-.1-.07l-.06,0h0a.49.49,0,0,0-.32.14c-.34.28-.88,1.4-1.13.38a.13.13,0,0,0-.22-.06c-.25.24-.52.52-.92.34a.2.2,0,0,1-.08,0s0,0,0-.06a.12.12,0,0,0-.15-.07,3.15,3.15,0,0,1-.24-.3.15.15,0,0,0-.19,0c-.2.21-.51.28-.67.53s-.09.62-.21.93l-.08-.06a.12.12,0,0,0-.18.08c-.06.45-.54,1.79-1.09.94,0-.06-.15,0-.12.05l.06.13a11.44,11.44,0,0,0-4.79-2.41,9.71,9.71,0,0,0-5.24,0l-.05,0a3.25,3.25,0,0,0-.4.15,7.55,7.55,0,0,0-1,.57.14.14,0,0,0-.1-.07,2.83,2.83,0,0,0-.92.1c-.46.12-.9.45-1.28,0a.15.15,0,0,0-.23,0c-.4.5-.68.21-1.19.38-.1,0-.17.14-.25.17-.38.13-.56-.25-.75-.53a.15.15,0,0,0-.25,0,.77.77,0,0,1-.7.24c-.27,0-.38-.1-.44-.36s.11-.42.08-.65-.23-.31-.46-.38-.1.17-.37-.25c-.46-.69,0,0-.19-.43a1,1,0,0,0-.22-.34A2.42,2.42,0,0,0,7.84,10c0-.08-.09-.14-.17-.09h0c-.34-.17-.61-.4-.34-.83A.06.06,0,0,0,7.23,9c-.31.3-.14.73.14,1a.14.14,0,0,0,0,.2,6.84,6.84,0,0,1-1.07,0,.16.16,0,0,0-.16.27,2.06,2.06,0,0,1,.41.6c.12.3.07,1.21-.55.87a.16.16,0,0,0-.24.1c-.1.56-.59.42-.88.77-.07.09-.08.28-.15.34-.28.26-.48-.24-.6-.42a.17.17,0,0,0-.28,0,1.06,1.06,0,0,1-.37.39c-.39.26-.7.08-.94-.51A3.78,3.78,0,0,1,2.71,12a.15.15,0,0,0-.25-.15c-.33.26-.64.06-.87-.28h0c.07,0,.12-.09,0-.12l-.17-.05a2,2,0,0,1-.25-1.18.16.16,0,0,0-.07-.17C.7,9.83.26,9.51.36,8.94s.45-.55.83-.84.22-.7.29-1.15.66-.69.87-1.17-.07-1.45.89-1.19a.16.16,0,0,0,.19-.11c.27-.75.86-.37,1.43-.36a4.8,4.8,0,0,0,1.49-.29.14.14,0,0,0,.1-.18c-.18-.49.35-.69.31-1.11,0-.26-.15-.42,0-.71s.6-.4,1-.26a.14.14,0,0,0,.18-.1C8.1.63,8.62.07,9.51.3A3.22,3.22,0,0,1,11.2,1.48a.15.15,0,0,0,.23,0C11.88,1.14,12.5.22,13,1.24c.19.41.11.92.4,1.29s.66.35.94.6c.59.56.18,1.23.12,1.89a.16.16,0,0,0,.16.16,3.31,3.31,0,0,1,2.17,1.27c.32.51.1.71-.05,1.18a.58.58,0,0,0,0,.5c.08.16.22.19.36.3.47.36.22,1,.11,1.47-.14.66-.32,1.61-1.05,1.84a.1.1,0,0,0,.05.2c.74-.16,1-.95,1.21-1.61s.54-1.61-.11-2.16C17,8,17,7.94,17.06,7.62a4.81,4.81,0,0,0,.2-.53,1.21,1.21,0,0,0-.35-1,3.78,3.78,0,0,0-2.14-1.25c.09-.65.38-1.19-.1-1.81A1.63,1.63,0,0,0,14,2.59c-.47-.24-.52-.54-.62-1S13,.52,12.43.47s-.77.41-1.09.72C10.29,0,8.2-.73,7.67,1.24a.92.92,0,0,0-1.25.62c-.1.34,0,.62-.1.94s-.26.49-.2.79a4.11,4.11,0,0,1-1.19.23c-.29,0-.57-.1-.86-.12a.8.8,0,0,0-.87.57.77.77,0,0,0-.87.27,1.5,1.5,0,0,0-.2.66,1.09,1.09,0,0,1-.39.85,1.4,1.4,0,0,0-.55,1.23c0,.78-1,.78-1.16,1.53a1.21,1.21,0,0,0,.53,1.24c.06,0,.35.18.36.19s0,.19,0,.24a2.8,2.8,0,0,0,.13.64,1.85,1.85,0,0,0,.13.29,1.26,1.26,0,0,0-.75.86,1.31,1.31,0,0,0,.74,1.65c-.09.39-.29.77-.12,1.17s.39.39.66.56a1.21,1.21,0,0,1,.32.22c.14.2.06.49.13.72a1.05,1.05,0,0,0,.63.7c.51.14.74-.34,1.32-.1.33.14.55.34.92.23a1.63,1.63,0,0,0,.38-.24c.27-.16.35-.07.63-.06s.36-.09.44-.36h0a2.1,2.1,0,0,0,.36.37.68.68,0,0,0,.42.17l0,.34c.06.86.1,1.72.14,2.58a1.63,1.63,0,0,0-2,1.25c-.06.26,0,.52-.1.77a4.27,4.27,0,0,1-.3.44c-.25.36-.36.64-.16,1a1.56,1.56,0,0,0-1,.76c-.05.1-.05.21-.09.31s0,.21-.33.18A2.41,2.41,0,0,0,2.36,25l-.2.11a1.21,1.21,0,0,1-.65.1,1.16,1.16,0,0,0-.61.1,1.06,1.06,0,0,0-.52,1,2.27,2.27,0,0,0,.4,1.31c.29.44.5.25.94.4.27.09.42.33.71.34s.42-.17.66-.31a1.55,1.55,0,0,1,.51-.18A.9.9,0,0,1,4,27.74a1.57,1.57,0,0,1,.33.62c0,.18-.26.26-.27.48,0,.42.52.88.92.67s.25-.48.71-.43c.25,0,.42.22.66.28a5.64,5.64,0,0,0-.39.87.14.14,0,0,0,.14.18,5,5,0,0,0,1.61-.63,1.66,1.66,0,0,1,.52-.19c.15,0,0,0,.12.06s.09.26.14.35c.2.31.3.35.69.28a8.93,8.93,0,0,1,.89-.23,9.28,9.28,0,0,1,1.16.11.14.14,0,0,0,.14,0h0a.15.15,0,0,0,.14-.08.08.08,0,0,0,0,0c.07-.13-.07-.32-.22-.22l-.09.06h0c-.17,0-.79-.13-.94-.14a2.3,2.3,0,0,0-.86.16c-.29.09-.43.16-.61,0s0-.33-.15-.46c-.49-.54-1.64.38-2.32.62.24-.58.59-1.12.85-1.7a9.17,9.17,0,0,0,.55-1.78,15.13,15.13,0,0,0,.12-4.25c-.11-1.49-.18-3-.28-4.47S7,15,7,13.51a.05.05,0,0,0,0,0c.09-.21-.15-.45-.28-.6a2.35,2.35,0,0,0-.59-.54.73.73,0,0,0,.74-.45c.2.25.47.46.68.68a.14.14,0,0,0,.23-.06,4,4,0,0,0,0-1.24,4.54,4.54,0,0,1,0-1,.71.71,0,0,1,.48.62c.05.26.13.48.41.57s.46-.16.5.35c0,.15-.12.3-.09.48a.55.55,0,0,0,.1.25,28.31,28.31,0,0,0,.25,3.8A12,12,0,0,0,9.81,19a11.33,11.33,0,0,0-.52,5.36,4,4,0,0,0,.09.43l0,.11a.19.19,0,0,0,.16.23,1,1,0,0,0,.71.41,23.72,23.72,0,0,0,3,.86,29.07,29.07,0,0,0,7.07-.71l0,.06a.15.15,0,0,0,.11.23,1.51,1.51,0,0,0,1.08-.29l0,0c.06,0,.15,0,.09-.09l0,0a.05.05,0,0,0,0,0s0,.05,0,.05a2.7,2.7,0,0,0,.49.12c.32.06.65.1,1,.14a14.21,14.21,0,0,0,2.26,0,.15.15,0,0,0,.13-.22,14.67,14.67,0,0,1-1.46-3.95,6.58,6.58,0,0,0-.78-2.4,3.31,3.31,0,0,1,2,1.46,4.22,4.22,0,0,1,.49,4.12.12.12,0,0,0-.1.1.59.59,0,0,0-.05.23.22.22,0,0,0,0,.14l-.13.07a.11.11,0,0,0-.05.14.13.13,0,0,0,.11.09.58.58,0,0,0,.27-.06,1.18,1.18,0,0,0,.43.25,1.26,1.26,0,0,0,.7.18.19.19,0,0,0,.09-.32c-.15-.15-.42-.14-.61-.19s-.3-.1-.45-.14c.87-.94.69-2.7.23-3.78a4.59,4.59,0,0,0-2.54-2.59c-2.25-.7-3.46,1.91-3.43,3.74a3.91,3.91,0,0,0,1,2.68,1.26,1.26,0,0,1-.26.13l-.53.13s0,0,0,0h.08c.12,0,.09-.22,0-.21h-.15a6.37,6.37,0,0,1-.43-4.12c.46-1.65,2.07-3.26,3.9-2.78a5.56,5.56,0,0,1,3.61,3.71c.36,1.2.44,3-.48,3.95a.15.15,0,0,0,.14.26,1.21,1.21,0,0,0,.72-.61l0,0c.48-.5,1.29-.43,1.76-1a2.63,2.63,0,0,0,.48-1.47h0v0c.07,0,.16.06.22.11a2.94,2.94,0,0,0,.61.22.15.15,0,0,0,.16.05h0a11.45,11.45,0,0,1,1.69.63,10.16,10.16,0,0,0,1.46.66c-.78.21-1.54.5-2.32.71-1.18.3-2.37.57-3.55.87-2.33.6-4.69,1.09-7,1.72a34.4,34.4,0,0,1-3.43.86,2.71,2.71,0,0,1-.8,0,.12.12,0,0,0-.16,0,7,7,0,0,1-2.21-.91c-1-.55-2-1.18-3-1.75a19.86,19.86,0,0,1-2.72-1.48A.23.23,0,0,1,9.22,25a.07.07,0,0,0,0-.13c-.19-.06-.31,0-.37.07s-.13.05-.08.1a.08.08,0,0,1,0,0,4,4,0,0,0,.43,1.67,4.51,4.51,0,0,0,1.17,1.3,10.73,10.73,0,0,0,3.06,3.67c.81.6,1.65,1.19,2.51,1.72.5.31,1.22.87,1.85.65.35-.12.63-.41,1-.54a9,9,0,0,1,1.44-.29,19,19,0,0,0,2.92-1c1-.37,2-.61,3-.89.11,0,1.14-.41,1.65-.66a3.22,3.22,0,0,0,1.31.4,2.3,2.3,0,0,0,1.3,0l.05,0a1,1,0,0,0,.72.06,9.69,9.69,0,0,0,1.58-.42,15.69,15.69,0,0,0,2.61-1.1c.8-.45.74-1,.82-1.79a6.91,6.91,0,0,0,2.4,0,6.45,6.45,0,0,0,2.48-.63c.73-.45.26-1.19.54-1.83.2-.44.82-.51,1.23-.6.73-.17,1.47-.27,2.21-.37s1.33-.18,2-.31a4.08,4.08,0,0,0,1.68-.52C49.26,23.25,49,22.68,48.54,22.32ZM7.42,26.5a8.57,8.57,0,0,1-.7,2.09l-.29.54c-.42,0-.78-.48-1.24-.25s-.09.43-.57.07-.14-.29,0-.65c.42-.91-1.12-.8-1.54-.6s-.56.35-1,.16a2.81,2.81,0,0,0-.58-.19.72.72,0,0,1-.64-.48,2.11,2.11,0,0,1-.22-.74,1.06,1.06,0,0,1,.23-.86c.36-.36.65,0,1-.08s.47-.31.72-.38a3.51,3.51,0,0,1,1.29.05A.13.13,0,0,0,4,25.06c-.09-.75.48-1.06,1.12-1.22a.12.12,0,0,0,.07-.18c-.47-.62.38-1,.47-1.58s0-.81.35-1.19a1.42,1.42,0,0,1,1.41-.49c0,.57.06,1.13.1,1.7A15.08,15.08,0,0,1,7.42,26.5Zm-.71-13a.13.13,0,0,0,.11.08A16.29,16.29,0,0,0,7.21,17,1,1,0,0,1,7,16.88a2,2,0,0,1-.44-.43c-.08-.1-.23,0-.17.13a.16.16,0,0,0-.18.1c-.09.22-.39,0-.58,0s-.33.22-.51.32c-.51.29-.76-.17-1.2-.26a1.12,1.12,0,0,0-.54.09.83.83,0,0,1-.87-.24c-.15-.24,0-.36-.1-.56a.9.9,0,0,0-.19-.42,2.05,2.05,0,0,0-.47-.29c-.68-.37-.37-.91-.28-1.47a.14.14,0,0,0-.1-.16,1.07,1.07,0,0,1-.72-1.33,1,1,0,0,1,.64-.8c.25.41.63.77,1.06.68-.15.49-.27,1,.36,1.26a1.14,1.14,0,0,0,1.27-.41c.23.34.59.82.95.4C5,13.42,5,13.3,5,13.2s.3-.28.51-.39a.94.94,0,0,0,.39-.34A3.88,3.88,0,0,1,6.71,13.48Zm.19-1.83a1.34,1.34,0,0,0-.31-1.07,2.53,2.53,0,0,0,.85-.12c0,.13,0,.25,0,.35a12.55,12.55,0,0,1,0,1.37A7.57,7.57,0,0,0,6.9,11.65Zm15,8a1.92,1.92,0,0,1,1.13-.35,9.34,9.34,0,0,1,.82,2.85,14.82,14.82,0,0,0,1.27,3.46,13.67,13.67,0,0,1-2,0c-.39-.05-.79-.11-1.18-.2-.17,0-.39-.18-.55,0l0,0C20.08,23.9,20.33,20.79,21.93,19.69Zm11.41-8.13a1,1,0,0,0,.8-1,1.15,1.15,0,0,0,1.43-1.21,4.82,4.82,0,0,0-.29-.91s0,0,0-.05a2,2,0,0,1,1.89.41,1.44,1.44,0,0,0,.78.61,1.65,1.65,0,0,1,.75.33c.23.27,0,.46,0,.75,0,.63.87.78.45,1.52a1.68,1.68,0,0,0-.23,1.16c.06.48,0,.86-.45,1-.18.08-.38.11-.56.2s-.42.33-.65.48c-.42.26-.72.09-1.14,0a1,1,0,0,0-.49,0c-.17,0-.36.15-.55.11a.7.7,0,0,1-.44-.28.69.69,0,0,1,.13-.11s0-.13,0-.12a.66.66,0,0,0-.2.06.53.53,0,0,1,0-.49.18.18,0,0,0-.11-.26c-.38-.07-.53-.32-.44-.74a.17.17,0,0,0-.17-.21,1.15,1.15,0,0,1-1.06-.36,1.32,1.32,0,0,1-.11-1.13h.08C32.92,11.41,33.1,11.58,33.34,11.56Zm-1.11.2.07-.1a1.72,1.72,0,0,0,.11.88,1.17,1.17,0,0,0,1.19.68.83.83,0,0,0,.51.88c-.94.53-1.53,1.48-2.47,2-.48-1.21,0-2.55-.33-3.78C31.58,12.4,31.92,12.13,32.23,11.76Zm-3.39.63c.09-.35.35-.46.59-.66a2.77,2.77,0,0,0,.25.24,3,3,0,0,0,.06,1A14,14,0,0,1,30,14.56c-.23-.28-.45-.57-.68-.86L29,13.26l-.12-.16c0-.1-.07-.13-.1-.12v0C28.79,12.78,28.78,12.61,28.84,12.39Zm-1.16,2.76a9.3,9.3,0,0,0-.05,2.11A12.62,12.62,0,0,1,26.69,16c-.3-.39-.82-.69-1-1.16v0l.84-.13a6.26,6.26,0,0,1,.65-.06C27.36,14.81,27.53,15,27.68,15.15ZM28.89,17h0a9.32,9.32,0,0,1,.66,2.16l-.1-.11a5.59,5.59,0,0,1-1.35-1.71h0a6.13,6.13,0,0,1,.64-.3Zm-.25-.25a3,3,0,0,0-.4.2l-.31.16a9.87,9.87,0,0,0,0-1.72,7.67,7.67,0,0,1,.86,1.32Zm-9,4.61a5.62,5.62,0,0,0-.1.7s0,0-.06.05c-.33.6-.83,1.09-1.17,1.68a6.92,6.92,0,0,0-.63,1.77,12.79,12.79,0,0,1-1.07-2.69,3.38,3.38,0,0,0-.44-1.23h0a.39.39,0,0,0,.16-.2c.68,0,1.36-.1,2-.13a7.15,7.15,0,0,1,1.31-.07A.65.65,0,0,1,19.59,21.36Zm-6.13,4.27c-.89-1.25-1-2.85-1.52-4.27,0,0,0,0,0,0a4.55,4.55,0,0,0,1.82.33,7.13,7.13,0,0,0,2-.11h0a2.92,2.92,0,0,1-.24.92,8.33,8.33,0,0,1-.81,1.22A7.06,7.06,0,0,0,13.46,25.63Zm-3.3-6.32a.13.13,0,0,0,0-.12,11.52,11.52,0,0,1,.87-1.93A14.34,14.34,0,0,0,11.63,21l0,0a13.74,13.74,0,0,0-1.83-.34c0-.15.06-.3.1-.45C10,20,10.05,19.63,10.16,19.31Zm3.31-4.95c.95.59,2.21,0,3.27,0a7.84,7.84,0,0,0-2.35,2.92.1.1,0,1,0,.17.1,8.88,8.88,0,0,1,2.49-2.92v0a.06.06,0,0,0,0,.09c.18.6.25,1.23.47,1.81s.37.9.52,1.36c-.35,0-.71.08-1.05.08-.78,0-1.57-.12-2.34-.11l0,0a.12.12,0,0,0,0-.08l0-.07a.09.09,0,0,0-.14,0h0l0,0a4.43,4.43,0,0,1-1.11-3.06h0Zm7.66-.06s0,0,0,0l0,0a.1.1,0,0,0,0,.13c-.7.33-1.11,1.19-1.54,1.79-.31.43-.64.85-.95,1.29a1.78,1.78,0,0,0-.17.27h-.13a4.2,4.2,0,0,0-.46-1.14,13.7,13.7,0,0,1-.57-2c.75.06,1.52-.1,2.28-.09A2.32,2.32,0,0,0,21.13,14.3Zm2.08-1.88a.08.08,0,0,0,0-.09l.13,0a10.47,10.47,0,0,0,.94,1.15,7,7,0,0,1,1.11,1.06,25,25,0,0,1-3.76-.31c.18-.25.34-.52.53-.77a5.17,5.17,0,0,1,.52-.62C22.86,12.71,23.07,12.59,23.21,12.42Zm.64,5.34c-.05,0-.1,0-.11.09a0,0,0,0,1,0,0s0,0,0,0a.13.13,0,0,0,0-.13,5,5,0,0,0-.5-.85c-.5-.78-1.05-1.53-1.56-2.31a25,25,0,0,0,3.78.33,9.16,9.16,0,0,1-1,1.86c-.07.14-.28.65-.45,1ZM15.77,21.2s0,0,0,.05h-.05a7.22,7.22,0,0,1-3.75-.17.2.2,0,0,0,0-.07c1-.85,1.53-2.19,2.59-3,.26.55.6,1.06.89,1.6A5.55,5.55,0,0,1,16,20.9,3.3,3.3,0,0,0,15.77,21.2Zm-1.51-3.31c-1,.81-1.46,2-2.36,2.87a34.7,34.7,0,0,1-.62-3.67,9.5,9.5,0,0,0,2.2.68A5.18,5.18,0,0,0,14.26,17.89Zm1.67,2.16c-.35-.73-.81-1.39-1.15-2.11a14.92,14.92,0,0,0,2.51.2,8.16,8.16,0,0,0,.9,0,.11.11,0,0,0,.16,0,.65.65,0,0,0,.21-.06h0a34,34,0,0,1-2.37,2.57C16.1,20.41,16,20.18,15.93,20.05Zm1.14-5.92A9.73,9.73,0,0,1,17.15,12a7.54,7.54,0,0,1,1.7-.34A4.79,4.79,0,0,0,17.07,14.13Zm-2.91,3.46c-.43-.05-1.19-.18-1.23-.19a13.53,13.53,0,0,0-1.65-.48,10.22,10.22,0,0,1,.59-.87,9.44,9.44,0,0,1,1.27-1.4A4.2,4.2,0,0,0,14.16,17.59ZM9.65,23.83c0-.39-.05-.78-.05-1.17a9.63,9.63,0,0,1,.13-1.61,13.63,13.63,0,0,0,1.7.23,3.86,3.86,0,0,0-.81,1.27c-.27.54-.66,1-.95,1.56C9.66,24,9.66,23.91,9.65,23.83Zm10-2.82a13,13,0,0,0-3.38.07s0,0,0-.07c.77-.92,1.9-1.64,2.39-2.74a13.37,13.37,0,0,1,1,2.59l0,.05Zm-.87-3.14c0-.12.35-.56.42-.66.22-.31.47-.61.7-.92a7.66,7.66,0,0,1,1.35-1.7h0c.46.69.95,1.37,1.43,2a8.69,8.69,0,0,1,.7,1.05c-.69.08-1.39,0-2.09.06-.41,0-.83.13-1.24.16C19.94,17.94,18.85,18,18.82,17.87Zm5.71-.78a19.24,19.24,0,0,0,1.08-1.94,3.85,3.85,0,0,0,.64.75c.4.44.66,1,1,1.44a14.2,14.2,0,0,0-1.6.34,7.19,7.19,0,0,1-1.13.18,1,1,0,0,1-.34-.05C24.37,17.51,24.48,17.19,24.53,17.09ZM26.7,14.4a3.69,3.69,0,0,0-1,.25.13.13,0,0,0,0-.12,3.74,3.74,0,0,0-1.05-1,9.28,9.28,0,0,1-1-1,10.93,10.93,0,0,1,3.27,1.91Zm-3.63-2.13c-.38.09-.74.62-1,.91a10.16,10.16,0,0,0-.68,1,.09.09,0,0,0,0-.05c-.44-.81-.86-1.61-1.27-2.43.3,0,.61.05.91.1A12.46,12.46,0,0,1,23.07,12.27ZM20,11.68A9.37,9.37,0,0,0,21,14H20.9a.1.1,0,0,0-.06.19,4.36,4.36,0,0,0-.5,0,7.85,7.85,0,0,1-.84,0,16.3,16.3,0,0,0-2.2.17l-.06-.19,0-.06c.57-.83,1.13-2.17,2.2-2.42a.14.14,0,0,0,.1-.11Zm-3.13.47a5.55,5.55,0,0,0,0,2c-1.07,0-2.18.48-3.21.1a19.63,19.63,0,0,1,1.94-1.41A7.27,7.27,0,0,1,16.84,12.15Zm-7.46.59h0a1.1,1.1,0,0,0,1.28-.07c.25.37.56.75,1,.54a1.66,1.66,0,0,1,.51-.21c.14,0,.28,0,.42,0a.89.89,0,0,0,.49-.3.79.79,0,0,0,.81.23c.23-.06.44-.17.67-.23a5.3,5.3,0,0,1,.55-.1l-1,.7a10.38,10.38,0,0,0-1.88,1.62,11.42,11.42,0,0,0-1,1.21.88.88,0,0,1-.42-.52.12.12,0,0,0-.2,0c-.38.38-.66.24-1,0C9.55,14.6,9.45,13.67,9.38,12.74Zm.3,3a.76.76,0,0,0,1,.06.89.89,0,0,0,.44.49A11.85,11.85,0,0,0,10,18.56c-.19-.82-.17-1.7-.28-2.53A2.42,2.42,0,0,0,9.68,15.78Zm2.35,10c-.41-.14-.8-.32-1.22-.45a5,5,0,0,1-.79-.18.65.65,0,0,1-.25-.36,15.65,15.65,0,0,1,1.05-1.87,4.46,4.46,0,0,1,.89-1.5h0A10.47,10.47,0,0,0,13.39,26,5.85,5.85,0,0,1,12,25.75Zm1.62.28s0,0,0,0a8.13,8.13,0,0,1,1.62-2.62A4.75,4.75,0,0,0,16,22a6.75,6.75,0,0,1,.43,1.52,12.05,12.05,0,0,0,1,2.31c-.84.1-1.68.19-2.53.23C14.49,26.05,14.06,26.05,13.65,26Zm6.55-.53c-.78.06-1.56.15-2.33.25a6.83,6.83,0,0,1,.74-2c.26-.41.6-.77.86-1.17A6.94,6.94,0,0,0,20.2,25.5Zm1.89-7.21a4.21,4.21,0,0,0-2.16,2.14,6.38,6.38,0,0,0-.39-.95,4.86,4.86,0,0,0-.61-1.23,5.67,5.67,0,0,0,1.61-.08A11,11,0,0,1,22.26,18,4.22,4.22,0,0,0,23.54,18a.83.83,0,0,1,0,.15A2.84,2.84,0,0,0,22.09,18.29Zm4.12,1.21A5.52,5.52,0,0,0,24,18.2h0a2.9,2.9,0,0,0,1,0,19.88,19.88,0,0,1,2.59-.54l.07,0,0,0a.12.12,0,0,0-.05.05,11.29,11.29,0,0,1-1.15,2,.2.2,0,0,0,0,.08Zm.42.42.09,0a3,3,0,0,0,.62-.94,11.72,11.72,0,0,0,.52-1.14.11.11,0,0,0-.06-.15.1.1,0,0,0,.07-.07.59.59,0,0,1,0-.13l.06,0c0,.47.44.9.72,1.22a5,5,0,0,1,1,1.2l0,.32a7.15,7.15,0,0,0-2.45.28c-.06,0-.07.11,0,.12a4,4,0,0,0,1.25-.05,6.66,6.66,0,0,1,1.23-.1c.05.6.06,1.21.05,1.81,0,.18,0,.38,0,.58-.4-.55-1.87-1.84-2.11-1.5a.07.07,0,0,0,0,.1c.08,0,.26.18.33.23s.43.33.64.51a10.88,10.88,0,0,1,.95.85,8.29,8.29,0,0,0-.78.79,3.37,3.37,0,0,0-.67.88,6.79,6.79,0,0,0,0-1.09A5.83,5.83,0,0,0,26.63,19.92Zm2.76,4.58c-.29.45-.84.53-1.31.72a1.29,1.29,0,0,1,0-.19.11.11,0,0,0,.12,0,6.67,6.67,0,0,1,.91-1.15c.18-.17.39-.33.58-.52A2.37,2.37,0,0,1,29.39,24.5Zm.74-1.44v0a14.4,14.4,0,0,0-.46-5,8.05,8.05,0,0,0-2-3.38.12.12,0,0,0,0-.08.57.57,0,0,0-.18-.12l0,0a.56.56,0,0,0,.46-.25A10.79,10.79,0,0,1,30,18.39a33.92,33.92,0,0,1,.83,5l-.08,0A4.06,4.06,0,0,0,30.13,23.06Zm2.25.87c-.4-.17-.82-.29-1.23-.43,0-.2-.06-1.16-.07-1.21-.06-.43-.14-.86-.22-1.29-.17-.93-.34-1.87-.56-2.79A8.56,8.56,0,0,0,28,14a2.61,2.61,0,0,0,.41-.88l.05,0a.14.14,0,0,0,.14,0,2.69,2.69,0,0,0,.47.67,14.31,14.31,0,0,0,1,1.22.15.15,0,0,0,.26-.1,10.2,10.2,0,0,0-.17-1.56c-.07-.41-.08-.84-.13-1.26a.94.94,0,0,0,1-.24A.61.61,0,0,0,31,12a0,0,0,0,0,0,0c.32,1.44-.22,3,.39,4.35a.17.17,0,0,0,.23.06,15.93,15.93,0,0,0,2.47-1.95,1,1,0,0,0,.12.32c-.15.17-.28.37-.4.52a5.06,5.06,0,0,1-.66.73,7.22,7.22,0,0,1-.87.62.11.11,0,0,0-.16,0,.5.5,0,0,0-.12.08.17.17,0,0,0,0,.27,2.31,2.31,0,0,0,.15,1.11c.23.74.43,1.49.62,2.24a18.13,18.13,0,0,0,1.43,4.42A17.8,17.8,0,0,1,32.38,23.93Zm3.37,3.44a.17.17,0,0,0-.13.15,4.41,4.41,0,0,1-.52.28A23.17,23.17,0,0,1,32.25,29c-.82.31-1.87.85-2.73.45a10.41,10.41,0,0,0-1.09-.58l.63-.2c1.78-.59,3.51-1.3,5.31-1.83a1.43,1.43,0,0,0,.62-.29.13.13,0,0,0,.12,0c-.08.09.45.35.51.4S35.81,27.26,35.75,27.37ZM20,29.08l3-.78c1.95-.51,3.93-.91,5.89-1.41,1.1-.28,2.2-.52,3.29-.81S34,25.46,35,25.29a2.75,2.75,0,0,1,0,.5.68.68,0,0,1-.58.76c-.66.22-1.32.4-2,.65-1.73.66-3.5,1.23-5.26,1.8-3,1-6.16,1.47-9,2.76a.12.12,0,0,0-.16,0,.41.41,0,0,0-.07.11l-.44.22a5.62,5.62,0,0,0-.05-1.19,5.87,5.87,0,0,0-.14-1.3h.12A10.18,10.18,0,0,0,20,29.08ZM9.51,26.7A3.3,3.3,0,0,1,9,25.29a8.3,8.3,0,0,0,1.65,1c.81.41,1.59.9,2.36,1.38s1.6.95,2.42,1.37a4.84,4.84,0,0,0,1.49.53c.14.65.43,2.6,0,2.71s-1-.44-1.24-.59c-.55-.33-1.07-.69-1.59-1.06-1-.68-1.85-1.41-2.76-2.13A7.62,7.62,0,0,1,9.51,26.7ZM29,30.78a8,8,0,0,1-.78-.27s0,0,0,0a.09.09,0,0,1,0,0,.11.11,0,0,0,0-.07.26.26,0,0,0,.09-.18.09.09,0,0,0-.09-.12c0-.19,0-.39,0-.58s-.1-.38-.34-.35a.07.07,0,0,0,0,.13c.1,0,.11.4.12.47s0,.39,0,.59h0l-.22.09a.12.12,0,0,0-.08,0c-.33.16-.64.34-1,.47-.89.33-1.84.5-2.75.79s-1.79.7-2.71,1-1.76.29-2.57.62c-.3.11-.53.35-.81.47-.53.21-1.1-.2-1.54-.46-.82-.49-1.59-1.06-2.37-1.6a11.78,11.78,0,0,1-3.19-3.41l.12.1,1.65,1.32a31.87,31.87,0,0,0,2.87,2.05c.34.22,1.53,1.11,1.92.62l0,0a.14.14,0,0,0,.11,0l.45-.21c0,.14.05.27.06.36a1.71,1.71,0,0,1,0,.9.12.12,0,0,0,.13.17c.29-.1.25-.47.23-.72s-.05-.38-.08-.57a2.34,2.34,0,0,0,0-.26,35.94,35.94,0,0,1,5.07-1.6c1.59-.41,3.15-.88,4.7-1.38a.2.2,0,0,0,.11.06c.79.06,1.3.82,2.1.86a2.84,2.84,0,0,0,.15,1C29.87,30.86,29.44,30.87,29,30.78Zm6.8-2.53a1.3,1.3,0,0,1-.68,1.1,20,20,0,0,1-1.84.79,8.23,8.23,0,0,1-1.21.42c-.27.08-1,.4-1.29.28s-.22-.56-.31-.88a15.59,15.59,0,0,0,3.3-1.16c.6-.26,1.17-.56,1.75-.86l.27-.14.11,0A2.46,2.46,0,0,0,35.83,28.25Zm12-4.62a24.45,24.45,0,0,1-3.51.57,6.81,6.81,0,0,0-2.75.65c-.52.35-.43.89-.46,1.45,0,.95-1.43,1-2.18,1.15a6.61,6.61,0,0,1-2.8,0,.57.57,0,0,0,0-.14.67.67,0,0,0-.37-.6,3.18,3.18,0,0,0-.64-.46,1.21,1.21,0,0,0,.05-.18,1.75,1.75,0,0,0,0-.85h.05a.17.17,0,1,0,0-.33,2,2,0,0,1-.49,0A16.67,16.67,0,0,0,34,23.38c-.28-.81-.49-1.66-.71-2.49-.18-.67-.32-1.35-.53-2a10.09,10.09,0,0,1,1.08.17c.6.07,1.21.1,1.81.14a32.42,32.42,0,0,1,3.94.52,38.47,38.47,0,0,1,6.76,1.87,13,13,0,0,1,1.51.71c.24.13.65.33.75.59C48.83,23.4,48.21,23.53,47.86,23.63Z"/><path class="cls-1" d="M41.49,21.49a1.19,1.19,0,0,0-1,.17c-.25.16-.46.41-.78.41s-.57-.29-.85-.4a1.65,1.65,0,0,0-1.43.15c-.13.06,0,.26.09.22A1.62,1.62,0,0,1,38.7,22c.21.09.38.28.59.37a1,1,0,0,0,.91,0c.44-.22.63-.55,1.19-.43.28.06.71.37,1,.25a.13.13,0,0,0,.07-.18C42.32,21.64,41.76,21.55,41.49,21.49Z"/><path class="cls-1" d="M39.64,23.66c-.25.11-.67-.13-1-.11s-.26.07-.39.1a1.08,1.08,0,0,1-.77-.08,1.92,1.92,0,0,0-1.56.19A.1.1,0,0,0,36,24c.55-.11.92-.31,1.46-.06a1.27,1.27,0,0,0,.72.13c.37,0,.45-.16.89-.05a1.75,1.75,0,0,0,.32.12c.22,0,.31-.06.44-.23S39.76,23.61,39.64,23.66Z"/></g></g></svg>