<svg xmlns="http://www.w3.org/2000/svg" viewBox="0 0 35.28 27.99"><defs><style>.cls-1{fill:#40220f;}</style></defs><title>資產 15</title><g id="圖層_2" data-name="圖層 2"><g id="圖層_7" data-name="圖層 7"><path class="cls-1" d="M35.1,17.45c-.07-3.6.51-7.45-.09-11,0-.07-.1-.09-.16-.06s0,0,0,0c-.41-.75-1.34-.8-2.1-1.06-1.68-.56-3.4-.73-5.07-1.33-2.05-.75-4.07-1.42-6.17-2.06S17.19,0,15,.06A.16.16,0,0,0,14.9,0a20.31,20.31,0,0,0-3.5,1.33A33.91,33.91,0,0,0,8.07,2.56.1.1,0,0,0,8,2.65H8l0,0h0a.11.11,0,0,0-.12.09h0v.09c0,.12,0,.26,0,.38,0,.29,0,.6,0,.89s.37.47.69.47h0l.11,0c0,1-.05,2-.11,3A8.75,8.75,0,0,0,2.63,8.64C1.37,9.26-.13,11.29.21,12.81a.21.21,0,0,0-.11.34c-.5,1.1,1,1.59,1.72,1.85,1.13.38,2.27.72,3.41,1.05,0,1.05.14,2.09.09,3.13a15,15,0,0,0,.07,2.76.19.19,0,0,0,.17.14l.37.1s0,0,0,0a.15.15,0,0,0,.25-.1h0C6.12,20.18,6,18.27,6,16.36c0,0,0-.07-.06-.09l3.37,1s0,0,0,.06c0,.64,0,1.28,0,1.93h0c-.1,0-.1.2,0,.2,1.22,0,2.58,1.13,3.71,1.54.92.33,1.91.54,2.86.79.74.19,6.64,1.58,6.71,2.22a.16.16,0,0,0,.05.08,11.46,11.46,0,0,0,.2,3.4.19.19,0,0,0,.24.12l.29.33a.21.21,0,0,0,.36-.13c0-1.07,0-2.15,0-3.23a28.07,28.07,0,0,0,4.32,1.61.18.18,0,0,0,.12-.33h0a5.94,5.94,0,0,1,2.68-1.76,16.82,16.82,0,0,1,2.5-1,.2.2,0,0,0,.19.07C35.74,22.71,35.12,18.91,35.1,17.45Zm-.26-9.74a11.77,11.77,0,0,0-2.62.9c-1.4.55-3,.58-4.3,1.35l0-.9a.15.15,0,0,0,0-.19v0s0,0,0,0a22.21,22.21,0,0,0,3.82-1.18,20,20,0,0,0,3-1l0,0C34.83,6.93,34.83,7.32,34.84,7.71ZM15,.29h0a52,52,0,0,1,6.37,2c1.74.53,3.51,1,5.2,1.66A18,18,0,0,0,30.38,5c.74.12,3.59.66,4.1,1.46-.35-.25-2.18.58-2.49.71-1.34.56-2.76,1-4.13,1.45a.14.14,0,0,0-.09,0,4,4,0,0,0-1.91-.9c-1.8-.52-3.62-.91-5.41-1.46s-3.82-.94-5.7-1.5c-1.21-.37-2.38-.91-3.59-1.24a11.94,11.94,0,0,1-2.91-.8A39.49,39.49,0,0,0,15,.29ZM8.12,4.05c-.06-.08,0-.45,0-.57s0-.3,0-.44c.9.75,2.54.71,3.57,1,2.1.68,4.16,1.16,6.26,1.77,1.81.52,3.57,1.2,5.42,1.64C24.42,7.74,27,8,27.65,9c0,0,0,0,.05,0,0,.36-.05.73-.08,1.1-3.26-.77-6.53-1.77-9.72-2.79-1.57-.5-3.16-.84-4.71-1.43A17.77,17.77,0,0,0,8.67,4.37a.13.13,0,0,0-.1-.15C8.45,4.18,8.2,4.16,8.12,4.05ZM3.58,8.57a11.84,11.84,0,0,1,2.66-.81,5,5,0,0,1,1.44,0,1.25,1.25,0,0,1,.64.13s.06,0,.08,0,0,0,.06.05l.1,0c.15.05.24-.1.21-.22s0-.06,0-.1h0a19.75,19.75,0,0,0-.06-3A41.41,41.41,0,0,1,13.7,6.54c1.64.59,3.34,1,5,1.54a81.34,81.34,0,0,0,8.84,2.43.11.11,0,0,0,.08,0c-.05.76-.09,1.53-.1,2.3a24.57,24.57,0,0,1,0,2.64,6.85,6.85,0,0,0-2.79-2.26.15.15,0,0,0-.14-.14,15.41,15.41,0,0,1-2.93-1c-1.3-.46-2.61-.84-3.92-1.28C14.94,9.81,12,9.1,9.2,8.06A.11.11,0,0,0,9.11,8h0l-.28-.1c-.08,0-.12,0-.13.08a5.91,5.91,0,0,0-4.49,1.5,8.15,8.15,0,0,0-2.3,3.89,5.24,5.24,0,0,1-1.43-.51C.27,11,2,9.22,3.58,8.57ZM27.81,17.3h-.08a.17.17,0,0,0-.14.28c-1.4-1.75-2.84-4.25-5.58-3.46A4.25,4.25,0,0,0,19.73,16c-.46.87-.37,1.76-.9,2.51a2.65,2.65,0,0,0-.41-1l0,0c.12-.3.15-.64.25-1A4.39,4.39,0,0,1,22,13.32c2.66-.51,4.93,1.63,5.85,3.95Zm-3.46-.39a6.66,6.66,0,0,0-.83-.45c0-.32,0-.63,0-1a4.51,4.51,0,0,1,.73.38c.27.19.22.28.17.56S24.36,16.76,24.35,16.91Zm-1.69-2.4c0,.15,0,.3,0,.44s0,0-.06,0a8,8,0,0,1-.85-.19A3.15,3.15,0,0,1,22.66,14.51Zm-1,.47a2.14,2.14,0,0,0,.47.2h.35a.11.11,0,0,0,.16,0c0,.45-.05.89-.05,1.33a1,1,0,0,0-.34-.11c-.26-.07-.52-.21-.77-.3s-.5-.18-.73-.3l-.35-.14,0,0a3.35,3.35,0,0,1,1.17-.88A.14.14,0,0,0,21.65,15Zm-1.38.88a3,3,0,0,0,.79.43c.25.09.5.19.74.3s.41.12.59.2a.09.09,0,0,0,.09.05h.05l0,0v.57a6.28,6.28,0,0,0-1.27-.56A4.6,4.6,0,0,1,20,16.37s0,0,0,0A2.7,2.7,0,0,1,20.27,15.86ZM9.09,8.29l0,0,1.11.44a5.32,5.32,0,0,0-4,1.51c-.83.86-2,2.53-1.67,3.83L4,13.87c-.55-.17-1.24-.29-1.91-.44A9.12,9.12,0,0,1,4.25,9.89,6.37,6.37,0,0,1,9.09,8.29Zm-4.3,5.84a5.18,5.18,0,0,1,1.84-3.8,5.93,5.93,0,0,1,4-1.32.14.14,0,0,0,.13-.08l.75.27C9,9.47,6.38,12.12,6.31,14.61ZM12.3,9.46h0c.48.16.95.33,1.43.48a6.61,6.61,0,0,0-3.44,1.51c-1,.86-2.43,2.19-2.35,3.63-.48-.12-1-.25-1.42-.4C6.78,11.9,9.63,9.65,12.3,9.46ZM8.24,15.14c.15-1.5,1.5-2.8,2.63-3.67a4.9,4.9,0,0,1,1.91-1c.56-.13,1.07-.14,1.62-.32h0l1.32.4c-2.56.33-5.38,2.49-5.52,5.09-.31-.08-.62-.17-.94-.23l-1-.25Zm8.45-4.32.77.23a6.9,6.9,0,0,0-2.69,1.24c-1.11.83-2.69,2.47-2.1,4-.74-.22-1.49-.43-2.24-.61A6.73,6.73,0,0,1,16.69,10.82Zm2.36.78a.1.1,0,0,0,.12,0l.7.26a6.48,6.48,0,0,0-2.55,1.3c-1.17.95-2.46,2.38-2,4l-2.46-.74h0C12.33,13.74,16.72,10.63,19.05,11.6Zm1.68.58.83.33a1.67,1.67,0,0,1,.16.12.14.14,0,0,0,.17,0l.3.11a4.55,4.55,0,0,0-2.72,1.38c-1,1.06-.84,2.23-1.34,3.43,0,.06,0,.11.08.12s.06.2.08.29,0-.09-.07-.09c-.89-.2-1.77-.45-2.65-.71,0,0,0,0,0-.05C15.05,15,18.47,11.87,20.73,12.18ZM5.88,21.71c-.52-.48-.23-1.86-.21-2.51,0-1-.16-2-.19-3.07l.46.13a.11.11,0,0,0-.11.09A33.07,33.07,0,0,0,5.88,21.71ZM4.2,15.3c-.91-.29-4-.53-3.84-2a16.66,16.66,0,0,0,2.94.82c1.8.51,3.54,1.16,5.37,1.57s3.79.87,5.67,1.45c.19.06,3.75.9,3.75.91s.21.11.2,0h0c.21,1.57-2.51.68-3.37.45-2-.55-4-1.16-5.95-1.74C7.37,16.28,5.79,15.81,4.2,15.3Zm5.43,3.89c0-.34,0-.66,0-1a5.26,5.26,0,0,0-.08-.89l1,.31c.4.12,2,.73,3.73,1.21a2.88,2.88,0,0,1,0,1c0,.37,0,.74,0,1.11a.13.13,0,0,0,0,.12c-.4-.11-.79-.23-1.18-.36C12.13,20.31,10.74,19.14,9.63,19.19Zm4.81,1.87a.16.16,0,0,0,.13-.14c0-.44,0-.87,0-1.32a2.35,2.35,0,0,0,0-.7,13.73,13.73,0,0,0,2.63.49,2.06,2.06,0,0,1,0,.43c0,.25,0,.48,0,.73a6.65,6.65,0,0,0,.09,1,.12.12,0,0,0,0,.22C16.37,21.53,15.4,21.31,14.44,21.06Zm3,.77h0a.13.13,0,0,0,.16-.13c0-.44-.09-.88-.07-1.32a3.55,3.55,0,0,0-.05-.57c0-.16,0-.28,0-.4.69,0,1.2-.14,1.35-.53l.5-.27a.15.15,0,0,0,.13-.11c.16-.6.25-1.27.46-1.87a3.48,3.48,0,0,0,.91.37,9.62,9.62,0,0,1,1.62.69.15.15,0,0,0,.17,0c0,1.57.11,3.13.11,4.69,0,.38,0,.79,0,1.21C21.66,22.79,18.05,22,17.46,21.83Zm5.65,5.27A31.24,31.24,0,0,1,23,21.63c0-2.37-.25-4.76-.15-7.13l.27,0c0,.64,0,1.28,0,1.92a.14.14,0,0,0,0,.17c0,1.88,0,3.76.1,5.64,0,1.16.06,2.32.05,3.48C23.29,26.36,23.68,27.41,23.11,27.1ZM23.58,18c1.58.39,1.1,1.63,1.18,2.9,0,.58.19,1.15.22,1.73s-.05,1.36.33,1.74a.14.14,0,0,0-.24.12s0,.06,0,.09a.18.18,0,0,0,.16.13h.08a.18.18,0,0,0,.19-.13,6.72,6.72,0,0,0-.11-1.73c-.07-.91-.25-1.8-.26-2.71,0-1.35.16-2.26-1.51-2.43l-.06,0,0-.93a7.62,7.62,0,0,0,.9.46.16.16,0,0,0,.2-.1c.07-.31.05-.63.11-.95a.47.47,0,0,0-.1-.48,2.64,2.64,0,0,0-.69-.35,2.56,2.56,0,0,0-.49-.16c0-.24,0-.49,0-.73a3.76,3.76,0,0,1,1.8.86c.7.62,1.3,2.6,2.39,2.33a15.09,15.09,0,0,0,0,3.14c0,1.12.08,2.24.09,3.37a6.46,6.46,0,0,0,0,1.46c-1.34-.37-2.56-1.15-3.93-1.4C23.73,22.22,23.66,20.13,23.58,18Zm10,4.54h0l-.12,0h0A13.25,13.25,0,0,0,30,24c-.53.29-1.6.68-2,1.31a30,30,0,0,1,0-3.68,21.84,21.84,0,0,1-.13-4.1.23.23,0,0,0,.43-.14,4.53,4.53,0,0,0-.57-1.52.18.18,0,0,0,0-.09c-.05-1.82,0-3.63,0-5.44a.05.05,0,0,0,.05,0c1.36-.82,3-.81,4.46-1.39a14.24,14.24,0,0,0,2.43-.89c0,2.42-.15,4.9-.24,7.29C34.55,17.3,35.37,21.26,33.62,22.58Z"/></g></g></svg>