<svg xmlns="http://www.w3.org/2000/svg" viewBox="0 0 38.33 28.07"><defs><style>.cls-1{fill:#40220f;}</style></defs><title>資產 13</title><g id="圖層_2" data-name="圖層 2"><g id="圖層_7" data-name="圖層 7"><path class="cls-1" d="M5.53,24.26a10.27,10.27,0,0,0,0,1.84.09.09,0,0,0,.17,0,9.43,9.43,0,0,0,0-1.84C5.63,24.19,5.54,24.19,5.53,24.26Z"/><path class="cls-1" d="M35.12,12.18s0,0,0,0h0s0,0,0,0,0,0,0,.06a1.06,1.06,0,0,0,0,.19c0,.11.18.13.2,0s.07-.29,0-.36h0c.2,0,.34,0,.43-.2a3.19,3.19,0,0,0,0-1.41,2.52,2.52,0,0,0-.2-.93,1.4,1.4,0,0,0,1-.65.1.1,0,0,0,0-.14,2.45,2.45,0,0,0-.64-.23.05.05,0,0,0,0-.07c-.12,0,0-.76,0-.88,0-.27,0-.54,0-.81a2.59,2.59,0,0,1,.56-.49.15.15,0,0,0,.08,0h.11c.09,0,.16-.12.08-.18A1.1,1.1,0,0,0,35.85,6C35.24,6,34.63,6,34,6c-1.21-.06-2.41-.14-3.62-.16s-2.53,0-3.79-.11a21.81,21.81,0,0,0-3.43-.1,22.78,22.78,0,0,1-3.6,0c-1.23-.12-2.45-.1-3.68-.19C13.46,5.17,11,5,8.56,5c-2.12,0-4.23.08-6.35.13a0,0,0,0,0,0,0,5.31,5.31,0,0,0-.42-.63.09.09,0,0,0-.13,0c-.52-.66,1.08-1.2,1.56-1.27.31-.05,1,0,1.15.39s0,.3-.22.35h0a.06.06,0,0,0-.07,0C3.74,4,3.37,4,3.23,4a.1.1,0,0,0,0,.13c.28.63,1.88.92,2.27.29a.09.09,0,0,0-.16-.1c-.34.44-1.53.27-1.89-.17.23,0,.57,0,.82,0,.3.18.72.39,1,.14,0,0,0-.14-.06-.13a1.85,1.85,0,0,1-.23,0,.61.61,0,0,1-.32-.08A.59.59,0,0,1,4.44,4a.35.35,0,0,0,.14-.28C4.6,3.22,3.8,3,3.4,3c-.65,0-2.73.77-1.79,1.65a.09.09,0,0,0,.11,0c.12.16.23.32.34.49q-1,0-2,0S0,5.24,0,5.26s0,.07,0,.09a4,4,0,0,1,.74.49A12,12,0,0,0,.82,7.73a.06.06,0,0,0,0,.08L.61,7.74c-.06,0-.1,0,0,.09a1.49,1.49,0,0,0,1,.21c.55,0,1.1,0,1.65,0,1.14,0,2.27.06,3.41,0,2.33-.1,4.68,0,7,.06s4.72.29,7.08.37,4.65-.06,7,0c1.3.06,2.6.13,3.9.13.11,0,2-.08,2.36,0H34a.11.11,0,0,0,.2,0A7.7,7.7,0,0,1,36.31,9a1.09,1.09,0,0,1-.79.48h-.14a1,1,0,0,0-.62-.16,12.88,12.88,0,0,1-3,0s-.09.05-.07.08c-.63,0-1.3-.15-1.93-.18-.84,0-1.69-.05-2.53-.07-1.74,0-3.48-.14-5.22-.21s-3.51-.11-5.27-.07c-1.59,0-3.17.12-4.75.11,0-.09-.1-.15-.16-.09a.47.47,0,0,0-.06.09h-.34l-3-.09A14.56,14.56,0,0,1,6.93,8.7a2,2,0,0,0-.94,0,.05.05,0,0,0,0,.1A3.92,3.92,0,0,1,7.2,8.9C7.6,9,8,9,8.4,9L10.21,9c-.08.28-.32.24-.5.44s-.15.6-.51.5a.09.09,0,0,0-.12.07c-.12.36-.39.69-.82.58,0,0-.11-.07-.16-.07a.56.56,0,0,0-.34.12c-.41.27-1.09,1-1.61.57a.05.05,0,0,0-.06.08c.47.51,1.23-.07,1.65-.38s.5,0,.88-.1a1,1,0,0,0,.62-.65c.25,0,.38-.07.49-.32s.61-.41.69-.83h.48l.73,0a.66.66,0,0,1-.32.23c-.06,0-.14,0-.19,0s-.17.1-.26.28-.35.35-.64.47c-.06,0-.11,0-.18.06-.22.21.09,1-.62.68a.1.1,0,0,0-.14,0c-.13.19-.27.45-.54.47s-.33-.15-.5-.17-.27.05-.39.2a1.65,1.65,0,0,1-1.2.76,1.2,1.2,0,0,1-1-.24.06.06,0,0,0-.08,0l0,0c0-.12,0-.37-.1-.41h.41a.08.08,0,0,0,.15,0H6v0a.1.1,0,0,0,0-.09A17.61,17.61,0,0,0,6,9.5c0-.27,0-.64-.24-.78a3.46,3.46,0,0,0-1.32-.18L2.34,8.39a.08.08,0,0,0-.07,0H2.1a8.07,8.07,0,0,0-1,.07l0,0A.38.38,0,0,0,1,8.4a.07.07,0,0,0-.11,0A5.38,5.38,0,0,1,.44,7.8s-.13,0-.09,0a3.72,3.72,0,0,0,.59.78.09.09,0,0,0,.14,0v0l0,0c.25,0,.5,0,.74,0h.39a12.26,12.26,0,0,0,.09,2.57c0,.07.09.07.1,0a18.94,18.94,0,0,0,0-2c0-.09,0-.46,0-.54h0l.1,0a.08.08,0,0,0,.11-.08,0,0,0,0,0,0,0c.1,0,.2,0,.27,0l1,.08c.34,0,.69,0,1,.06a1.6,1.6,0,0,1,.58.09c.2.09.21.2.23.41a14.81,14.81,0,0,1,0,2c-.52,0-1,0-1.54-.07a3.83,3.83,0,0,0-1.75,0,.05.05,0,0,0,0,.1l.33,0a.61.61,0,0,1,0,.19.19.19,0,0,0,0,.08l-.24,0s0,0-.05.06,0,0,0,0c0,.24-.12.55,0,.76a.62.62,0,0,0,.29.18c0,1.77-.06,3.53-.08,5.29,0,.88,0,1.76,0,2.64s-.07,1.82,0,2.72a.08.08,0,0,0,.1.08v.07a.46.46,0,0,0-.38,0s0,0,0,0a1.94,1.94,0,0,0-.15-.24.09.09,0,0,0-.08,0s0,0,0-.06a.11.11,0,0,0,0-.11.8.8,0,0,0-.53-.21c-.26,0-.73.17-.92-.09a.17.17,0,0,0-.12-.07.85.85,0,0,1,.53-.5c.33-.12,1.22-.28,1.33.21a.06.06,0,0,0,.12,0c0-.64-1-.55-1.41-.44a1.26,1.26,0,0,0-.89,1.34,1,1,0,0,0,.15.93.41.41,0,0,0,.19.11A1,1,0,0,0,.5,25.28a.67.67,0,0,0,.27.23c-.05.43,0,.85,0,1.28,0,.12-.13.3-.05.43l.06.05c-.18.12-.32.31-.15.51s.6.26.87.28a1.78,1.78,0,0,0,1-.16.57.57,0,0,0,.21-.27l0,0a4.37,4.37,0,0,0,2,.19c.68,0,1.78.21,2.29-.39a1.24,1.24,0,0,0,.18-.9c0-.26-.07-.91-.31-1.05,0,0,0,0,0-.05.06-.5.1-2-.7-2a.06.06,0,0,0,0,0v0c0-.23,0-.46,0-.68a13.78,13.78,0,0,0,0-1.44c0-1-.07-1.93-.11-2.9-.09-1.88-.24-3.76-.33-5.64,0,0,0,0,0-.08v-.06s0,0,0,0a1.16,1.16,0,0,0,0-.47c.43.35,1.46.09,1.81-.16.16-.11.26-.28.41-.4s.39-.14.68-.09.61-.2.8-.49a.51.51,0,0,0,.67-.21c.07-.12,0-.42.09-.49s.41-.07.49-.12A1.07,1.07,0,0,0,11,9.71c.13-.28.12-.14.41-.2a.66.66,0,0,0,.44-.42c1.44,0,2.89-.05,4.33-.09,3.44-.1,6.87.16,10.32.26h.06a1,1,0,0,0,.18.67c.24.34.49.24.83.38s.3.45.55.63a1.74,1.74,0,0,0,.91.2.77.77,0,0,0,.31.67,1.56,1.56,0,0,0,.52.2,7.8,7.8,0,0,0,.72.31c.39.1.7-.12,1.08-.15s.62.12.86-.07A6.52,6.52,0,0,0,35.12,12.18ZM3.53,5.27C4.79,5.21,6,5.21,7.3,5.21c2.4,0,4.82,0,7.21.23,1.19.11,2.37.17,3.56.2s2.45.25,3.68.22S24,5.7,25.18,5.74,27.52,6,28.7,6c1.33,0,2.66,0,4,.1l2.1.11c.32,0,.64,0,1,0a2.24,2.24,0,0,1,.58,0,1.83,1.83,0,0,0-.55.49.11.11,0,0,0-.16,0l0,0s0,.09,0,.12a1.93,1.93,0,0,0-.34,0,9.55,9.55,0,0,1-1.07,0c-.89-.07-1.77-.12-2.66-.21a32.36,32.36,0,0,0-5.39-.11h0a3.12,3.12,0,0,0-.4,0,2.6,2.6,0,0,0-1,0c0-.06-.11-.08-.25-.11a10.18,10.18,0,0,0-1.66-.21c-1.33-.06-2.64,0-4,0-.7,0-1.41,0-2.11,0s-1.35-.09-2-.06c0,0,0,0,0,0a11.25,11.25,0,0,0-1.16,0l-.07,0c-1.06,0-2.1-.25-3.17-.26s-2.13.09-3.2.1S5,5.79,4,5.78l-1.57,0A14.65,14.65,0,0,0,.91,5.74l-.05,0,0,0a3.48,3.48,0,0,0-.68-.38A20.2,20.2,0,0,0,3.53,5.27Zm19.26,3c-2.43,0-4.85-.17-7.27-.29s-4.78-.2-7.17-.2C7,7.81,5.72,8,4.4,7.91c-.63,0-1.27,0-1.91,0A10.4,10.4,0,0,1,1,7.87v0C1,7.21.94,6.57.88,5.94a.09.09,0,0,0,.13,0H1a.06.06,0,0,0,0,0c.42,0,.84.11,1.27.12S3.35,6,3.87,6c1.07,0,2.13.17,3.21.15S9.15,6,10.19,6c.86,0,1.72.19,2.57.24h0a.41.41,0,0,0-.1.34c0,.39,0,.78,0,1.17a.11.11,0,0,0,.13.1h0c.07,0,.08-.1.06-.15h0a.05.05,0,0,0,0,0c0-.25,0-.49,0-.74s-.06-.43.08-.54.66-.08.86-.09l.73,0a5.66,5.66,0,0,0,0,1,5.46,5.46,0,0,0,0,.58.08.08,0,0,0,.16,0,2,2,0,0,0,0-.6c0-.32,0-.65-.05-1,2.27.29,4.53,0,6.8.07.51,0,1,0,1.54.06.31,0,.62,0,.93.1a1.58,1.58,0,0,1,.58.11,2.34,2.34,0,0,1,.13,1.64Zm2.08,0a1.91,1.91,0,0,0,0-.67,4.72,4.72,0,0,0-.11-.92,2.84,2.84,0,0,1,1.33,0c.34.13.26.43.26.72s.07.54-.11.72a.07.07,0,0,0,0,.11Zm8.6.05a.06.06,0,0,0,0,0L33,8.4q-1.56,0-3.12,0c-1.16,0-2.32-.06-3.48-.07.16-.08.16-.38.16-.54s.09-.75-.09-1a.41.41,0,0,0-.1-.09c1.64.07,3.28,0,4.93.17q1.24.13,2.49.21c.43,0,.85.07,1.27,0h.5a6,6,0,0,0,0,1.47l-.47-.06ZM3.05,11.4a.61.61,0,0,0,0-.13,9.9,9.9,0,0,1,1.43.09c.27,0,.54,0,.81.05h.09c-.09,0-.06.15-.06.23a.11.11,0,0,1,0,.08l-.14,0a6.35,6.35,0,0,0-2.09-.16A.57.57,0,0,1,3.05,11.4Zm-.33.93c-.1-.15,0-.41-.05-.6a15.75,15.75,0,0,1,2.06,0,2.29,2.29,0,0,1,.58.11l0,0a.09.09,0,0,0,.09,0,.47.47,0,0,1,.14.41,0,0,0,0,0,0,.05v.26a6.58,6.58,0,0,1-2.45-.18h0A.48.48,0,0,1,2.72,12.33ZM2.3,24a.12.12,0,0,0-.17-.1c-.22.12-.47,0-.7,0a2.3,2.3,0,0,1-.58,0,.37.37,0,0,1-.25-.3.48.48,0,0,1,.1-.17c.15.18.29.38.53.2.06,0,.1-.12.15-.15s.24,0,.37,0a.92.92,0,0,0,.4,0v0a.12.12,0,0,0,.17.07,2.48,2.48,0,0,1,0,.29ZM1.33,23c.19,0,.58-.11.69.1,0,0,0,.12,0,.16l.05.12a1.26,1.26,0,0,1-.42-.06.45.45,0,0,0-.28,0c-.1,0-.14.13-.22.17s-.25-.08-.38-.21a.12.12,0,0,0-.16,0l0,0a1.89,1.89,0,0,1,.12-.38A.83.83,0,0,0,1.33,23ZM.76,24.4l.12-.21.4,0c.31,0,.69.17,1,0a.14.14,0,0,0,0-.08,7,7,0,0,0-.07,1.77.89.89,0,0,0,.21.48,1.45,1.45,0,0,0-.17.52s-.14,0-.13.07-.22.25-.29.15,0-.44,0-.57c0-.34-.24-.67-.18-1,0-.07,0-.16-.13-.13a1.14,1.14,0,0,1-.32.07c-.31,0-.4-.1-.51-.4A.53.53,0,0,1,.76,24.4Zm.69,1.18a6.93,6.93,0,0,0,.16.7c0,.27,0,.54,0,.8-.1,0-.21,0-.32,0a1.37,1.37,0,0,1-.4-.05h0s0,0,0,0a4.41,4.41,0,0,0,0-1.45A1.1,1.1,0,0,0,1.45,25.58Zm.77,2.14a2,2,0,0,1-.68.1,1.64,1.64,0,0,1-.66-.11c-.22-.11-.15-.23,0-.38a1.14,1.14,0,0,0,.9,0h0a1.07,1.07,0,0,0,.51-.13.86.86,0,0,0,.11.24h0C2.36,27.58,2.44,27.62,2.22,27.72Zm4.64-2.07c0,.07,0,.39,0,.42.1.44.25,1.06-.18,1.37s-1.37.21-2,.21a7.59,7.59,0,0,1-1.58,0,1.25,1.25,0,0,1-.53-.19.18.18,0,0,0-.09-.08l-.06-.08a1.08,1.08,0,0,1,0-.88c.49.44,1.46.35,2.09.35.85,0,1.95-.15,2.22-1.05C6.84,25.67,6.86,25.66,6.86,25.65Zm-.68-2c.65,0,.59,1.5.49,1.91-.2.92-1.34,1-2.1,1-.58,0-1.88.15-2.1-.55a3.88,3.88,0,0,1,0-1.36c0-.2,0-.39.05-.59s0-.5.4-.5h0c.14.52,1.27.55,1.66.57A5.89,5.89,0,0,0,6,24a.16.16,0,0,0,.08.05c.06,0,.12,0,.13-.1v0a.21.21,0,0,0,.12-.16c0-.08-.1-.1-.14,0l0-.15Zm-.29-2.3c0,.48,0,.95,0,1.44a5.14,5.14,0,0,0,0,.68c0,.12,0,.24.06.36l-.32,0a8.19,8.19,0,0,1-1,0c-.38,0-1.59,0-1.67-.55a0,0,0,0,0,0,0v0c.08-.9,0-1.82,0-2.72s0-1.76,0-2.64V17.3a.25.25,0,0,0,.31.17c.25-.07.39-.45.47-.65a1.84,1.84,0,0,0,.12-1.09,9.79,9.79,0,0,1-.17-1.21,5.91,5.91,0,0,0-.09-1.12.05.05,0,0,0-.1,0c.08.49,0,1,0,1.46a10.32,10.32,0,0,1,.15,1.23,1.51,1.51,0,0,1-.18.69c-.08.16-.24.55-.38.26A.12.12,0,0,0,3,17c0-1.45,0-2.91,0-4.36l.24.06a.07.07,0,0,0,.09-.05,6.24,6.24,0,0,0,.75.16A.06.06,0,0,0,4,12.9a13.35,13.35,0,0,1,.08,2.9,3.55,3.55,0,0,0,.24,1.94.1.1,0,0,0,.08.05c.43-.05.55-.55.57-1a2.57,2.57,0,0,0,.35,1,.1.1,0,0,0,.17,0,.76.76,0,0,0,.11-.57c0-.09-.15-.1-.15,0a.7.7,0,0,1,0,.32c-.51-1-.22-2.27-.24-3.32a.05.05,0,0,0-.1,0c0,.5-.09,1-.12,1.58-.06-.86-.22-1.72-.23-2.58a.07.07,0,0,0-.14,0,7.28,7.28,0,0,0,.09,1.54,10.32,10.32,0,0,1,.07,2.15c0,.15-.07.69-.3.65s-.17-1.3-.17-1.51c0-.51,0-1,0-1.52a4.41,4.41,0,0,0-.16-1.66s0,0,0,0l.43.06a2.12,2.12,0,0,0,1,0c0,1.85.18,3.71.26,5.55C5.82,19.39,5.84,20.35,5.89,21.32ZM34.59,9.46h.15a.07.07,0,0,0,0,0l.1,0a.08.08,0,0,0,0,.12,3.45,3.45,0,0,1,.2.89,2.47,2.47,0,0,1,0,.61c0,.27-.2.32-.45.35a4.82,4.82,0,0,1-.76,0,2,2,0,0,1-.6,0c-.09-.06-.09-.25-.1-.41a2.68,2.68,0,0,1,0-.4c0-.36,0-.72,0-1.08a.06.06,0,0,0,0-.06l.39,0Zm-1.52.08a.05.05,0,0,0,0,.05,6.51,6.51,0,0,0,.05,2,.11.11,0,0,0,.11.08c.51,0,1.94.36,2.14-.35a2.64,2.64,0,0,0-.09-1.15,1.68,1.68,0,0,0-.16-.6l.24,0a.59.59,0,0,1,.17.39,8.3,8.3,0,0,1,.09,1.11,1.64,1.64,0,0,1-.05.7c-.11.21-.31.15-.5.15a6.81,6.81,0,0,1-2.34,0c0-.4,0-.8,0-1.2a4.93,4.93,0,0,0,0-.86.52.52,0,0,0-.36-.38A6.6,6.6,0,0,0,33.07,9.54ZM32,9.46h0ZM31.7,12a4.08,4.08,0,0,0-.6.16c-.41.09-.65-.1-1-.25s-1-.2-.82-.8A.11.11,0,0,0,29.2,11a2.43,2.43,0,0,1-.89-.17c-.21-.14-.22-.36-.38-.54a.56.56,0,0,0-.32-.17c-.19-.07-.46,0-.64-.16a1,1,0,0,1-.27-.65h0l1,0s0,0,0,0c.06.21,0,.4.23.55a1.39,1.39,0,0,0,.28.12.93.93,0,0,1,.41.4.58.58,0,0,0,.4.3c.28.07.49,0,.68.3a2.71,2.71,0,0,0,.21.37,1,1,0,0,0,.75.27,2.29,2.29,0,0,0,.28-.08.9.9,0,0,1,.51.1c.17.05.87,0,.79-.31a.1.1,0,0,0-.14-.06,1.16,1.16,0,0,1-.42.14c-.23,0-.38-.18-.59-.17-.4,0-.61.35-1,0-.17-.16-.2-.41-.37-.57a.56.56,0,0,0-.39-.13.75.75,0,0,1-.59-.3c-.05-.06-.07-.14-.12-.2s-.17-.11-.3-.19l-.42-.32a.65.65,0,0,0,0-.13l-.05-.09,1.52,0a14.36,14.36,0,0,1,1.46.12,6.71,6.71,0,0,0,.89.09l0,0c.29.12.66,0,.76.47a2.73,2.73,0,0,1,0,.57c0,.43,0,.87,0,1.3l-.14-.06c-.1-.05-.2.11-.09.16h0C32.11,12,31.9,12,31.7,12Z"/><path class="cls-1" d="M35.31,25.24a5.05,5.05,0,0,0-.06.67.09.09,0,0,0,.15,0c.18-.14.13-.56.12-.75a1.82,1.82,0,0,0-.16-.8c0-.08-.15,0-.13.05A4.15,4.15,0,0,1,35.31,25.24Z"/><path class="cls-1" d="M38,25.85a1.77,1.77,0,0,0,.15-1c0-.35-.13-.91-.47-1.11a.84.84,0,0,0,.41-.71.09.09,0,0,0,0-.07h0a.38.38,0,0,0,0-.29v0a.4.4,0,0,0,0-.15c.65-.77-1.42-1.62-2.05-.83a1,1,0,0,0-.09.15c-.08-.95-.15-1.91-.23-2.86s-.13-1.76-.18-2.64a17,17,0,0,1-.16-2.67,1.08,1.08,0,0,0,.19,0c.09,0,.08-.13,0-.17a.92.92,0,0,0,.11-.64.1.1,0,0,0-.1-.09c-.91,0-1.81-.19-2.73-.14a.56.56,0,0,0,0-.13.28.28,0,0,0-.07-.23.08.08,0,0,0-.08,0h0c-.06,0,0,.08,0,.1h0v0a.48.48,0,0,1,0,.12c0,.05,0,.11,0,.16a0,0,0,0,0-.06,0c0,.11-.18.53-.08.68a.07.07,0,0,0,0,.07.86.86,0,0,0,.32.15,0,0,0,0,0,0,0c0,1.74-.06,3.47-.11,5.2,0,.84-.06,1.67-.1,2.5,0,.43-.07.87-.06,1.3s.09.69.08,1.05a.1.1,0,0,0,.2,0c0-.36-.07-.7-.08-1.05s0-.87.05-1.3c0-.83.07-1.66.09-2.5C33,17,33,15.28,33,13.55h0a5.29,5.29,0,0,0,.88,0c.45,0,.91.1,1.36.08A9.41,9.41,0,0,0,35.28,16c.06.94.1,1.88.18,2.83s.17,1.85.22,2.77c0,.43,0,.86.08,1.29,0,.24,0,.49.07.73l0,.21a.2.2,0,0,0,0,.11h-.13a3.79,3.79,0,0,0-1.12.05,9.82,9.82,0,0,1-1.87-.2s-.05,0-.05.07a1.16,1.16,0,0,0-.34,1c0,.27-.07.91.14,1.14-.33.64-.16,1.23.6,1.3,1.16.12,2.31-.22,3.46-.17a.12.12,0,0,0,.11-.08.74.74,0,0,0,0-.14l0,.07a.66.66,0,0,0,.58.2c.42,0,1-.33,1-.8A.7.7,0,0,0,38,25.85ZM32.64,12.24Zm1.26,1.14a7.32,7.32,0,0,1-1.24-.1,0,0,0,0,0,0,0c0-.06,0-.22,0-.3a2.45,2.45,0,0,1,0-.27v0a.06.06,0,0,0,.06,0c.53.05,1.07,0,1.6.08.24,0,.47.06.7.09.4,0,.57,0,.34.53a.07.07,0,0,0,0,0h-.06s0,0-.06,0C34.81,13.5,34.35,13.38,33.9,13.38Zm3.71,10.44c.28.49.57,1.44.17,2l0,0a.86.86,0,0,1-.1-.16,4.2,4.2,0,0,0,0-.87,1.48,1.48,0,0,0-.27-.8,2.09,2.09,0,0,0,.28-.17Zm-1.55-1.7c.14-.5.6-.62,1.08-.53s.86.3.74.68l-.08,0c-.18-.05-.33,0-.52-.07s-.27-.1-.4,0a.3.3,0,0,0-.22.06.49.49,0,0,0,0-.24c0-.1-.11-.21-.23-.22s-.19.1-.22.2,0,.09.08,0a.6.6,0,0,1,.08-.08h0a.39.39,0,0,1,.08.14.37.37,0,0,1,0,.18c0,.06-.06.08-.1.14a.08.08,0,0,0,0,.11.22.22,0,0,0,.11,0c-.06.16-.12.39-.32.31S36,22.31,36.06,22.12Zm.44.86c.13-.11.18-.5.34-.57l.16,0a.14.14,0,0,0,.15-.07c.14,0,.29.15.42.14a.53.53,0,0,1,.21,0,.11.11,0,0,0,.08.09l0,0a.09.09,0,0,0,0,.05.52.52,0,0,0-.06.16,1.83,1.83,0,0,1-.35,0c-.11,0-.48.1-.56,0a1,1,0,0,0,0-.17.09.09,0,0,0-.17,0,3.24,3.24,0,0,1-.05.62c0,.12.17.17.19.05a1.41,1.41,0,0,0,0-.28,3.12,3.12,0,0,0,.74,0h.16a1.31,1.31,0,0,1-.67.74c-.45.23-.84.15-1-.36,0,0,0-.05-.09-.05L36,23A.42.42,0,0,0,36.5,23Zm-3.69,1a3.47,3.47,0,0,0,1.62.28l.8,0c.19,0,.41,0,.6,0h.09s0,.08.06.08h0a.12.12,0,0,0,.11,0c.21.15.19.55.19.77s.05.77-.29,1a2.85,2.85,0,0,1-1.66.15l-.72-.08a3.66,3.66,0,0,1-.81-.09c-.31-.12-.24-.51-.25-.8A1.58,1.58,0,0,1,32.81,24Zm3.68,2.86c-.07.17-.1.12-.29.13-.54,0-1.07.11-1.6.15s-.82,0-1.23,0a1.71,1.71,0,0,1-.45,0,.74.74,0,0,1-.39-.44c0-.16.06-.36.08-.53a2.69,2.69,0,0,0,.82.11c.39,0,.78.1,1.17.12s1.44.08,1.79-.45c.12.1.11.47.12.58A.87.87,0,0,1,36.49,26.82ZM38,26.49A.89.89,0,0,1,37,27c-.23-.1-.23-.43-.21-.64,0,0,0-.06-.08,0a2.11,2.11,0,0,0-.14-.49.12.12,0,0,0-.09-.08,2.41,2.41,0,0,0-.06-1.41.42.42,0,0,0-.32-.29c0-.07,0-.13,0-.2a.78.78,0,0,0,.91.29l.12,0a1,1,0,0,1,.13.23,2.14,2.14,0,0,1,.12.66,3.17,3.17,0,0,1,0,.44.13.13,0,0,0-.09.17.83.83,0,0,0,.07.13,2,2,0,0,1,0,.24c-.38-.26-.25-1.17-.64-1.45-.06,0-.15,0-.12.09.18.47.22,1.51.81,1.67a.14.14,0,0,0,.16-.09s0-.1,0-.15l.09.09a.12.12,0,0,0,.17,0h0C38,26.2,38.08,26.3,38,26.49Z"/><path class="cls-1" d="M16.13,7.6h0c0-.23-.09-.53-.38-.47a.56.56,0,0,0-.17.09.5.5,0,0,0,0-.12c.21-.06.53-.22.45-.45a.07.07,0,0,0-.08,0c-.05,0-.05,0-.09.07a0,0,0,0,0,0,.07.47.47,0,0,1-.14.12.48.48,0,0,1-.26.07s-.09,0-.09.09.07.35.08.53v.12h0v0c0,.11.19.07.2,0h0a.1.1,0,0,0,0,.16.42.42,0,0,0,.54-.13A.08.08,0,0,0,16.13,7.6Zm-.37-.26a.1.1,0,0,1,.11,0l-.21,0A.18.18,0,0,1,15.76,7.34Z"/><path class="cls-1" d="M17.5,7.18h0a.31.31,0,0,0-.32,0l-.09.06a.36.36,0,0,1,.15-.15l.37,0c.11,0,.07-.18,0-.19a.74.74,0,0,0-.4.06,1.52,1.52,0,0,0-.46.18s0,.11,0,.1l.18-.05a.62.62,0,0,0-.08.24.11.11,0,0,0,.07.12h0v0a.05.05,0,0,0,.1,0,.14.14,0,0,1,0-.06h.13l-.07.06L17,7.57a.35.35,0,0,0-.35.23c0,.08.06.15.13.13a1.08,1.08,0,0,0,.28-.15.11.11,0,0,0,.07.06.06.06,0,0,0,0,.06c.1.16.27.23.42.1a.64.64,0,0,0,.16-.6C17.71,7.22,17.61,7.17,17.5,7.18Zm.05.35v0l0,0a.1.1,0,0,0,0,0,.86.86,0,0,0-.16,0l0,0a1.06,1.06,0,0,0,.17-.2C17.54,7.39,17.55,7.43,17.55,7.53Zm-.21.3h0Z"/><path class="cls-1" d="M19.2,7.45a.73.73,0,0,0-.12-.3s-.12,0-.1,0a.74.74,0,0,1,0,.14.07.07,0,0,0,0,.12l0,0c0,.06,0,.13,0,.19l-.12,0c-.07,0-.24,0-.31,0s0-.15,0-.2a.61.61,0,0,0-.08-.3,0,0,0,0,0-.09,0,1.92,1.92,0,0,0,0,.24,1.48,1.48,0,0,0,0,.21.28.28,0,0,0,.25.25.76.76,0,0,0,.42,0,.1.1,0,0,0,.15-.08,0,0,0,0,0,0,0A.25.25,0,0,0,19.2,7.45Z"/><path class="cls-1" d="M18.74,7.74a.06.06,0,0,0,.07,0c.09-.09,0-.26,0-.36a1.68,1.68,0,0,1,0-.63,0,0,0,1,0-.09,0,1.35,1.35,0,0,0-.06.63C18.63,7.45,18.61,7.69,18.74,7.74Z"/><path class="cls-1" d="M21,7.64l-.16.07a.27.27,0,0,0,0-.26.29.29,0,0,0-.1-.35.32.32,0,0,0-.38.05A.18.18,0,0,0,20.1,7l-.06,0V7a.06.06,0,0,0-.11,0s0,.09,0,.13a.25.25,0,0,0-.09.28.75.75,0,0,0,.07.12v0a.09.09,0,0,0,.15.07h0c-.08.11.1.21.17.1a.21.21,0,0,1,0-.06.62.62,0,0,0,.37-.09c0,.07-.05.14-.1.19a.09.09,0,0,0,.07.16.63.63,0,0,0,.46-.19C21.13,7.7,21.05,7.61,21,7.64Zm-.41-.39s.05,0,0,.09a.33.33,0,0,0-.27,0v0C20.39,7.32,20.5,7.23,20.57,7.25Zm-.44,0a.05.05,0,0,1,0,0l-.09.08V7.25S20.09,7.23,20.13,7.24Z"/><path class="cls-1" d="M22.9,7.71l-.25.06a.74.74,0,0,0-.32-.8.12.12,0,0,0-.17.13,2.66,2.66,0,0,1,.16.55.23.23,0,0,0-.21-.13s-.13,0-.17,0-.08-.12-.05-.2A.58.58,0,0,0,22,7a.06.06,0,0,0-.11,0c0,.2-.28.4-.1.6s.14.07.23.08.21.17.29.33a.11.11,0,0,0,.18,0l0,0h0A.54.54,0,0,0,23,7.84.08.08,0,0,0,22.9,7.71Z"/><path class="cls-1" d="M24,7.44a1.06,1.06,0,0,0-.1-.17.1.1,0,0,0-.12,0,1,1,0,0,0-.38.32.17.17,0,0,1,0-.18.05.05,0,0,0-.06-.08c-.18.11-.16.3-.05.46a.1.1,0,0,0,0,.17c.31.1,1,.12.84-.38A.13.13,0,0,0,24,7.44Zm-.52.31a1.48,1.48,0,0,1,.28-.28.28.28,0,0,1,0,.19s0,0,0,.06A1.16,1.16,0,0,1,23.44,7.75Z"/><path class="cls-1" d="M5.48,4.25c.29,0,.39-.28.54-.49A.76.76,0,0,1,6.7,3.4a.8.8,0,0,1,.43.13c.21.16.17.31.06.51s0,.14.1.09A.53.53,0,0,0,7.39,4c.37-.25.65,0,.92.27A10.81,10.81,0,0,1,6,4.08c-.07,0-.1.09,0,.11a6.32,6.32,0,0,0,2.5.28,1.16,1.16,0,0,0,.25.21.31.31,0,0,0,.5-.24l1.05-.05a.08.08,0,0,0,0-.15,5.44,5.44,0,0,0-1.75,0A1.54,1.54,0,0,0,8.31,4a.79.79,0,0,0-.84-.2c0-.31-.39-.56-.73-.59A.86.86,0,0,0,6,3.5c-.18.19-.28.58-.56.65C5.42,4.16,5.43,4.25,5.48,4.25Zm3.3.21H9A.17.17,0,0,1,8.78,4.46Z"/><path class="cls-1" d="M8.82,4C9.1,3.5,10,3.16,10.16,4c0,0,.07.08.11.07s.41,0,.4.07l-.06.1a0,0,0,0,0,0,0h0s0,.15.07.12.31-.18.25-.33a.82.82,0,0,1,.85-.19c.15.09.37.41.26.53l-.17,0c-.35,0-.8,0-.9.16,0,0,0,.11.08.06s.4-.1.71-.07c0,0,0,.06.09.07h0a.09.09,0,0,0,0,.08c.2.22.43.15.61,0l1,.12a.08.08,0,0,0,0-.13l-.08-.06a4.86,4.86,0,0,0,.66.15,1.06,1.06,0,0,0,.58-.14c.19.32.83.58,1.08.29a5.37,5.37,0,0,0,1.65-.08.11.11,0,0,0,.08-.07h.38c.41,0,.8.08,1.2.1s.82,0,1.23,0,.62,0,.92,0l.29,0,.06.09a.12.12,0,0,0,.22,0,.28.28,0,0,1,0-.11,3.5,3.5,0,0,1,.72-.06,5.36,5.36,0,0,1,1,.14.27.27,0,0,0,.05.11,2.07,2.07,0,0,0,1,.35.82.82,0,0,0,.35,0,1.47,1.47,0,0,0,.51,0A6.86,6.86,0,0,1,26.55,5c.34,0,.81.35,1.12.07.12-.12.11-.45.3-.47a.57.57,0,0,1,.27.15l0,0h0l.12.11-.17,0A.48.48,0,0,1,28,4.79c-.05-.06-.14,0-.12.07s.22.16.32.18a1,1,0,0,0,.42,0c.58.37,1.45.61,1.78.13,0,0,0-.09-.07-.07A1.33,1.33,0,0,1,29,5a1.91,1.91,0,0,0,.89-.11.07.07,0,0,0,0-.13c-.13-.1-.21,0-.35,0h0a2.14,2.14,0,0,1-.44,0h0a.13.13,0,0,0-.07-.18,1.81,1.81,0,0,1,.64-.08,2.79,2.79,0,0,1,1,.37.25.25,0,0,0-.08.21c0,.29.51.4.75.44a.09.09,0,0,0,.14,0,4.18,4.18,0,0,0,1.68-.46,1.91,1.91,0,0,1,.28.15c.28.19.61.51,1,.41a.82.82,0,0,0,.44-.34.31.31,0,0,1,.05.1s0,.14,0,.17a.08.08,0,0,0,0,.15c.18,0,.21-.19.17-.32A.67.67,0,0,0,35,5.17a.89.89,0,0,0,0-.81c-.41-.65-1.82-.83-2.19-.09a1.19,1.19,0,0,0-.92-.09c-.34.12-.4.5-.68.71v0a.45.45,0,0,0-.22-.08,2.46,2.46,0,0,0-1.68-.52,1,1,0,0,0-.61.29.1.1,0,0,0-.17.05,3,3,0,0,1-.26-.22.09.09,0,0,0-.11,0,.41.41,0,0,0-.16,0,.29.29,0,0,0-.29.19c-.56-.44-1.14-1.06-1.87-.56-.29.2-.45.53-.27.73-.18.07-.37.16-.55.21l-.19,0c-.32-.1-.62-.25-1-.32h0v0a.11.11,0,0,0-.05-.13c-.44-.31-1-.09-1.47-.15-.3,0-.5,0-.62.22h0a1.56,1.56,0,0,0-1.36-.77A.77.77,0,0,0,19.94,3c-.07-.06-.16-.11-.23-.18-.22-.23-.1-.34.09-.47s.21-.1.27-.21c.21-.34-.09-.7-.36-.89,0,0-.1,0-.06.08.23.24.37.59.06.82-.07.05-.15.05-.22.11a.4.4,0,0,0-.13.31.57.57,0,0,0,.19.41c.09.09.22.15.31.25a.46.46,0,0,1,.18.34.31.31,0,0,1,0,.2l-.05,0-.18.11h0a.59.59,0,0,1,0-.08A5,5,0,0,0,19.09,3s0,0-.05,0l0,0a.84.84,0,0,0-.13-1.33l-.05,0h0s.07,0,.12,0a.16.16,0,0,0,.07-.15c0-.1-.13-.2-.18-.27A1.88,1.88,0,0,0,18.74,1h.05a1.25,1.25,0,0,0,.38,0c.12,0,.08-.19,0-.2a1.35,1.35,0,0,0-.35,0c-.34-.05-.54-.32-.64-.71a.1.1,0,0,0-.2.06,1.22,1.22,0,0,1-.08.71L17.26.7a.09.09,0,0,0-.07.17,2.43,2.43,0,0,0,.61.24s0,.06,0,.09.11.11.15,0L18,1.13a.29.29,0,0,0,.2-.07v0a1.29,1.29,0,0,0-.17.33.9.9,0,0,0-.7.44.86.86,0,0,0-.12.44,1,1,0,0,1,0-.35c0-.23.13-.56.41-.57a.05.05,0,0,0,0-.1c-.32,0-.49.24-.55.53a1.32,1.32,0,0,0,0,.53c-.31-.12-.58-.19-.37-.77.06-.16.27-.31.21-.49S16.8,1,16.76,1H16.7c-.06,0-.07.09,0,.1s-.13.21-.19.34a.8.8,0,0,0-.11.56c.07.38.39.41.68.55-.34.4-1,.57-1,1.19a.65.65,0,0,0,.49.62l0,.06a.46.46,0,0,0-.07.07.16.16,0,0,0,0,.09l-.63,0c0-.29-.39-.48-.65-.47h-.06c.24-.37-.42-.55-.75-.39l-.05,0c-.69-.35-1.88-.27-1.43.57,0,.06.11,0,.08-.05-.2-.47.22-.59.6-.55a1.41,1.41,0,0,1,.6.19c0,.09.12.17.29.22l.08.1a.09.09,0,0,0,.08,0,.13.13,0,0,0,0,.06l-.14.07c-.39.18-.78,0-1.19,0,0,0-.06,0,0,.07h-.11l-.6-.07,0,0-.24-.07A.77.77,0,0,0,12,3.83a.83.83,0,0,0-1.18.11.69.69,0,0,0-.53-.09C10.1,3,9,3.3,8.73,4A.05.05,0,1,0,8.82,4ZM30.87,5.15c-.08-.14,0-.12.14-.08a.5.5,0,0,1,.24.27A.55.55,0,0,1,30.87,5.15Zm.85.22A1.51,1.51,0,0,1,32.9,5,4.2,4.2,0,0,1,31.72,5.37Zm-.08-.79a.92.92,0,0,1,1.07-.21,1,1,0,0,0,0,.18s.09.07.1,0a.58.58,0,0,1,0-.14.05.05,0,0,0,0-.09c.46-.67,2.11-.36,2,.51a.62.62,0,0,1-.08.24s0,0,0,.06a.66.66,0,0,1-.92.15A3.08,3.08,0,0,0,33,4.83a1.77,1.77,0,0,0-1.57.49,1.89,1.89,0,0,0-.19-.3C31.46,5,31.53,4.74,31.64,4.58Zm-2.74.11,0,0ZM16.82,4.58h0Zm.87-.06-.61,0,.17,0a.09.09,0,0,0,0-.17h0a.73.73,0,0,0,.05-.12v0c.35-.22.77-.39,1-.26s.37.43.58.6l.06,0A12.1,12.1,0,0,0,17.69,4.52Zm8.14-.27a.79.79,0,0,1,.67-.19,3.8,3.8,0,0,1,1.09.61c-.07.14-.14.28-.35.28a3.61,3.61,0,0,1-.61-.15,2.11,2.11,0,0,0-.74.11,2.87,2.87,0,0,1-.38.08,1.5,1.5,0,0,1,.36-.11c.12,0,.11-.21,0-.23S25.68,4.38,25.83,4.25Zm-2.28.28h0S23.56,4.51,23.55,4.53Zm-.09,0-.2,0A.4.4,0,0,1,23.46,4.51Zm-2.1,0-.42.06c-.36,0-.72,0-1.08,0h-.22c-.16-.07,0-.25.19-.41A.38.38,0,0,0,20.17,4l.15-.06C20.72,3.85,21.1,4.2,21.36,4.53ZM19,3.11a4.38,4.38,0,0,0,.37.58,2.68,2.68,0,0,1,.18.33v0h-.06a.08.08,0,0,0,0,.12s0,0,0,0a.52.52,0,0,0-.15.34,1.65,1.65,0,0,1-.57-.45.81.81,0,0,0,.44,0c.06,0,.09-.09.08-.15-.09-.38-.13-.64-.56-.69a1.36,1.36,0,0,0-.29,0v0A1.23,1.23,0,0,0,19,3.05S19,3.09,19,3.11Zm-.18-1.66s0,0,0,0h0a.07.07,0,0,0,0,.09,1.25,1.25,0,0,0-.49-.17c.09-.1.19-.21.3-.31a1.82,1.82,0,0,0,.15.27A.35.35,0,0,1,18.81,1.45Zm-.43-.4h.05l-.05,0h0Zm0-.2s0,0,0,0V.77l.1.07ZM18.18.61h0v0Zm-.05.17a.19.19,0,0,1,0,.08h0S18.12.81,18.13.78Zm-.54,1A1,1,0,0,1,19,2a.58.58,0,0,1-.14.94.85.85,0,0,1-.5.1,1.55,1.55,0,0,1-.53-.23.1.1,0,0,0-.09,0C17.26,2.7,17.32,2.06,17.59,1.8ZM16.36,4a.67.67,0,0,1,.16-.7c.26-.25.57-.38.77-.68a.5.5,0,0,0,.4.26.7.7,0,0,0,.57.32v0a1.93,1.93,0,0,0-.49.06.06.06,0,0,0,0,.11l.24,0h.22v.08a.1.1,0,0,0,.2,0V3.48h0c.12,0,.33,0,.42.1a.65.65,0,0,1,.11.33c-.11,0-.22,0-.33,0a.08.08,0,0,0-.08.07,1.59,1.59,0,0,0-.13-.13A.5.5,0,0,0,18,3.66a2.63,2.63,0,0,0-1.21.57l0,0h0c0-.13.17-.34.23-.43A3.91,3.91,0,0,0,17.51,3a.05.05,0,0,0-.09,0,3.85,3.85,0,0,0-.85,1,.88.88,0,0,0-.05.15A.3.3,0,0,1,16.36,4Zm-.78.65h-.17a.1.1,0,0,0-.11.11.91.91,0,0,1-.45-.25.85.85,0,0,1,.22-.09C15.19,4.42,15.61,4.49,15.58,4.66Zm-.68-.41a.07.07,0,0,0,0-.13h-.17a.58.58,0,0,0-.21-.2c.21-.08.66,0,.45.29,0,0,0,0,0,0l-.08,0Z"/><path class="cls-1" d="M5,10.36a3.34,3.34,0,0,1-1.14.07c-.22,0-.42,0-.55-.23a1.05,1.05,0,0,1-.11-.53,2.53,2.53,0,0,0-.15-.87c0-.08-.15,0-.13,0,.16.47-.07,1.4.46,1.67a1.87,1.87,0,0,0,.81.1,4.63,4.63,0,0,0,1-.12.1.1,0,0,0,.07-.09A6.44,6.44,0,0,0,5.17,9.1C5.15,9,5,9,5,9.15s.09.47.13.71a.9.9,0,0,1,0,.4C5.11,10.35,5.14,10.31,5,10.36Z"/><path class="cls-1" d="M33.53,18.62c0-.06-.1,0-.1,0,0,.58.47.79.87.43a1.52,1.52,0,0,1,.22.22.1.1,0,0,0,.15,0c.53-.5.41-1.37.32-2-.15-1.09-.23-2.18-.36-3.26a.09.09,0,1,0-.18,0,11.75,11.75,0,0,0,.24,2.77c.11.65.37,1.7-.09,2.28a1.47,1.47,0,0,1-.22-.21.11.11,0,0,0-.15,0C34.07,19,33.57,18.86,33.53,18.62Z"/><path class="cls-1" d="M34.06,13.82a.05.05,0,1,0-.1,0c0,.76-.05,1.52-.07,2.29a8.53,8.53,0,0,0,0,2,.08.08,0,0,0,.15,0,9.73,9.73,0,0,0,0-2C34.08,15.34,34.08,14.58,34.06,13.82Z"/></g></g></svg>