<svg xmlns="http://www.w3.org/2000/svg" viewBox="0 0 24.83 21.86"><defs><style>.cls-1{fill:#40220f;}</style></defs><title>資產 17</title><g id="圖層_2" data-name="圖層 2"><g id="圖層_7" data-name="圖層 7"><path class="cls-1" d="M20.26,11.66a1.28,1.28,0,0,0-.59-.66.88.88,0,0,0,0-.28c0-.17-.21-.35-.4-.27a.1.1,0,0,0,0,.17c.12.07.18.09.19.24v.06a1.22,1.22,0,0,0-.9.14,1,1,0,0,0-.51,1,.11.11,0,0,0-.08.1,1,1,0,0,0,.3.54h0l0,0a1.53,1.53,0,0,0,1.4.32A1,1,0,0,0,20.26,11.66Zm-.73,1.25a1.29,1.29,0,0,1-1.28-.51.92.92,0,0,1,.39-1.16,1,1,0,0,1,.79-.1.19.19,0,0,1,0,.08.08.08,0,0,0,.14,0l0,0a1.05,1.05,0,0,1,.47.54A.79.79,0,0,1,19.53,12.91Z"/><path class="cls-1" d="M12.83,7.62a1,1,0,0,0-.51,1,.09.09,0,0,0-.07.1.9.9,0,0,0,.29.53h0l0,0a1.56,1.56,0,0,0,1.4.32,1,1,0,0,0,.58-1.43A1.17,1.17,0,0,0,12.83,7.62Zm1,1.85A1.3,1.3,0,0,1,12.55,9a.91.91,0,0,1,.38-1.16,1,1,0,0,1,1.43.51A.79.79,0,0,1,13.82,9.47Z"/><path class="cls-1" d="M10.93,12.14a.86.86,0,0,1,0-.17.74.74,0,0,1,0-.36c0-.08-.09-.15-.14-.08a.45.45,0,0,0-.12.39,1,1,0,0,0,.12.32.57.57,0,0,0-.11.11,1,1,0,0,0,.1,1.46.08.08,0,0,0,0,.12c.57.26,1.25.5,1.68-.14a1.26,1.26,0,0,0-.09-1.49A1.11,1.11,0,0,0,10.93,12.14Zm1.39,1.55c-.37.52-.88.24-1.36.1a.94.94,0,0,1-.08-1.34.92.92,0,0,1,1.48.14A1.06,1.06,0,0,1,12.32,13.69Z"/><path class="cls-1" d="M18.56,8.4a.75.75,0,0,0-1.06-.28.66.66,0,0,0-.17.9v.05a.68.68,0,0,0,1,.24A.67.67,0,0,0,18.56,8.4Zm-.73.8A1,1,0,0,1,17.47,9a.52.52,0,0,1,.16-.72.56.56,0,0,1,.78.27.46.46,0,0,1-.23.62A.48.48,0,0,1,17.83,9.2Z"/><path class="cls-1" d="M16.65,12.32c-.29-.16-.79-.19-.92.2a.1.1,0,0,0,0,.12c-.25.79,1,1.5,1.31.62A.78.78,0,0,0,16.65,12.32Zm.24.84a.42.42,0,0,1-.66.22.64.64,0,0,1-.31-.75l0,0a.44.44,0,0,1,.63-.1A.57.57,0,0,1,16.89,13.16Z"/><path class="cls-1" d="M20.11,13.17a.72.72,0,0,0-.14,1,.06.06,0,0,0,0,.06.6.6,0,0,0,1,.12.84.84,0,0,0,.09-1.17A.76.76,0,0,0,20.11,13.17Zm.81.95a.68.68,0,0,1-.37.25.44.44,0,0,1-.42-.21h0a.6.6,0,0,1,.75-.9A.59.59,0,0,1,20.92,14.12Z"/><path class="cls-1" d="M15.87,7.56a.45.45,0,0,0,.38-.51c-.12-.52-.91-.19-.81.24C15.38,7.5,15.69,7.61,15.87,7.56Zm-.19-.21s0-.08-.07-.12a0,0,0,0,0,0,0c.06-.21.4-.38.45-.13s-.1.22-.21.26A.22.22,0,0,1,15.68,7.35Z"/><path class="cls-1" d="M4.46,10a.77.77,0,0,0-.92.37.83.83,0,0,0,.08,1A.79.79,0,0,0,5,11.09,1,1,0,0,0,4.46,10Zm0,1.47c-.39.2-.72-.06-.89-.4,0,0-.05,0-.07,0-.07-.62.7-1.26,1.14-.56A.66.66,0,0,1,4.51,11.49Z"/><path class="cls-1" d="M6.78,8.32a.38.38,0,0,0-.15.16.05.05,0,0,0-.07,0,.52.52,0,0,0,.24.58.49.49,0,0,0,.53,0,.5.5,0,0,0,0-.61A.45.45,0,0,0,6.78,8.32ZM7,9a.36.36,0,0,1-.25-.28c0-.32.62-.38.55.1C7.26,9,7.11,9,7,9Z"/><path class="cls-1" d="M8.25,5.64a.76.76,0,0,0-.94.21.54.54,0,0,0-.12.48c-.05,0-.11,0-.08.08A1.06,1.06,0,0,0,7.6,7a.79.79,0,0,0,.74-.15A.75.75,0,0,0,8.25,5.64ZM8.17,6.73a.54.54,0,0,1-.63,0h0s0,0,0-.05A.48.48,0,0,1,7.43,6a.64.64,0,0,1,.64-.22A.57.57,0,0,1,8.17,6.73Z"/><path class="cls-1" d="M4.91,5.64a1.06,1.06,0,0,0-1.21.28.89.89,0,0,0,.06,1.31h0c.42.55,1.49.23,1.7-.44A1,1,0,0,0,4.91,5.64ZM4.83,7.25c-.48.22-.82,0-1.06-.43,0-.07-.13,0-.12,0a.83.83,0,0,0,0,.15.89.89,0,0,1,1.58-.8A.75.75,0,0,1,4.83,7.25Z"/><path class="cls-1" d="M24.74,7.66a1.32,1.32,0,0,0,.06-.76A2.38,2.38,0,0,0,24.44,6c-.08-.13-.42-.34-.45-.45s.15-.68,0-1-.44-.47-.48-.74.11-.28.14-.47a1.36,1.36,0,0,0-1.57-1.73s0-.06,0-.1A1.4,1.4,0,0,0,20.44.54a1.28,1.28,0,0,0-.87.58.42.42,0,0,0-.09.14c0,.29-.09.33-.17.13L19,1.15A1.33,1.33,0,0,0,18.1.72c.09,0-.45.05-.39.06-.28-.05-.23-.17-.43-.36A1,1,0,0,0,16.4.13c-.34.07-.38.24-.54.43v0a.06.06,0,0,0-.1,0c.14-.13-.4-.41-.47-.44a1.61,1.61,0,0,0-.69,0A2,2,0,0,0,14,.29a.93.93,0,0,0-.25.31,1.15,1.15,0,0,0-.07.22,4,4,0,0,1-.49,0,1.11,1.11,0,0,0-.51.18.82.82,0,0,0-.32.81l0,0a.72.72,0,0,0-.59.25.89.89,0,0,0-.27.67,1.25,1.25,0,0,1-.19-.15c-.24-.22-.14-.69-.47-.94a.61.61,0,0,0-.38-.15c-.26,0-.26.1-.46-.11A2.92,2.92,0,0,1,9.8,1,1,1,0,0,0,8.94.46a1.46,1.46,0,0,0-.5.12C8.31.63,8.09.82,8,.83S7.57.65,7.42.57a1.27,1.27,0,0,0-1.28,0A2.38,2.38,0,0,0,5.58,1c-.4.33-.24.1-.74.1a1.56,1.56,0,0,0-1.25.85c-.07.13-.16.6-.29.67s-.65,0-.87.05a1.81,1.81,0,0,0-1.13,1,2.88,2.88,0,0,0-.14.71c0,.46-.11.25-.49.46a.79.79,0,0,0-.42.9c0,.11.1.2.12.31.19,1-.11.28-.25.73-.07.21-.13.2-.12.46s.3.51.25.86c0,.15-.15.21-.14.39a1.13,1.13,0,0,0,.35.65c.29.38.22.25.08.59-.38,1,.79,2,1.65,2.14-.2.52.06.79.61,1a11.29,11.29,0,0,0,1.08.46c.42.09.91-.29,1.27-.16s.29.33.57.38a.82.82,0,0,0,.07.65c.13.22.28.17.49.23s.22.48.54.61a1.83,1.83,0,0,0,.7,0c.1,0,.1-.13,0-.16s-.33,0-.5,0c-.37,0-.24-.28-.42-.48a.51.51,0,0,0-.39-.15c-.38,0-.41-.36-.41-.68a1.24,1.24,0,0,0,.77-.34c.14-.12.27-.33.42-.41s.44-.08.69-.09c-.06,1,0,2.08-.11,3.13a6.25,6.25,0,0,1-.22,1.61,8.57,8.57,0,0,1-.87,1.45.1.1,0,0,0,.14.14,6.75,6.75,0,0,1,.82-.48c.33-.12.51,0,.78.09.08,0,.12,0,.19,0s.39-.08.53,0,.19.15.32.18.22-.1.24-.1c.45.09.55.49,1,.35a.11.11,0,0,0,.06-.16,6.78,6.78,0,0,1-1.48-3.86,1.75,1.75,0,0,0,.52.53c.23.15.4.18.53.43a1.62,1.62,0,0,0,.17.32c.37.43,1.07.77,1.47.26a.8.8,0,0,0,.46,0,1,1,0,0,0,1.3,1,.85.85,0,0,0,1,.56h0v.35a10.69,10.69,0,0,1-.93,3.31c0,.12.12.18.2.11.41-.33.93-1,1.53-.67.26.16.43.45.7.6a.13.13,0,0,0,.19-.08c.19-.61.68-.2,1.07,0a1.91,1.91,0,0,0,1.08.1.14.14,0,0,0,.1-.18c-.14-.33-.44-.54-.6-.86A4.88,4.88,0,0,1,17.24,19a2.22,2.22,0,0,1,.08-.85h0a1.47,1.47,0,0,0,.75-.06c.29,0,.58.11.86,0a6,6,0,0,0,.78-.44,1.5,1.5,0,0,0,.62-.44c.16-.21.21-.51.44-.6s.51,0,.75-.13c.51-.19.58-.55.6-1,.74-.13,1.27-.45,1.11-1.29a1,1,0,0,1,.11-.71.76.76,0,0,0,.1-.39.68.68,0,0,0-.3-.55.77.77,0,0,0,.36-.47.82.82,0,0,0-.33-.78,1.12,1.12,0,0,0,.25-.93,1.41,1.41,0,0,0-.26-.5.52.52,0,0,1-.07-.12c.44,0,1,.06,1.27-.37s-.15-.79,0-1.18C24.42,8,24.67,7.86,24.74,7.66ZM7.34,12.44a.69.69,0,0,0-.28,0,2.44,2.44,0,0,0-.39.33c-.31.25-.11.19-.73.24s-.47.08-.79-.26a.12.12,0,0,0-.13,0,1.52,1.52,0,0,1-1.74-.08c-.31-.17-1.12-.33-.84-.9a.11.11,0,0,0-.09-.16A1.83,1.83,0,0,1,1,10.75c-.18-.29-.45-1,0-1.2A.11.11,0,0,0,1,9.4C.71,9,0,8.53.58,8a.12.12,0,0,0,0-.13,2.82,2.82,0,0,1-.24-.36c-.18-.4-.14-.68.13-.86.09-.24.11,0,.16-.33A.92.92,0,0,0,.57,6c0-.11-.09-.21-.12-.32.1-.57.39-.82.86-.75.06,0,.1,0,.1-.1a1.92,1.92,0,0,1,.41-1.57,1.62,1.62,0,0,1,1.61-.38.09.09,0,0,0,.12-.07c.23-.83.72-1.9,1.84-1.3a.11.11,0,0,0,.14,0A1.41,1.41,0,0,1,7,.59a2.94,2.94,0,0,1,.76.52.11.11,0,0,0,.11,0,2.1,2.1,0,0,1,1-.45c.63,0,.57.58.84.93a1,1,0,0,0,.16.14c.07.06.22,0,.29,0a.87.87,0,0,1,.67,1,.12.12,0,0,0,.11.1c.52,0,.57.34.92.5a2.93,2.93,0,0,0,.65.07c.38,0,1.81.35,1.45,1a.1.1,0,0,0,.06.15.5.5,0,0,1,.46.28.47.47,0,0,0-.23,0,.59.59,0,0,0-.28.18,1.15,1.15,0,0,0-1.54,0c-.06.07-.13.28-.22.3s-.29-.18-.37-.21a.75.75,0,0,0-.68.07,6.45,6.45,0,0,1-.68.41,2.11,2.11,0,0,0-.34.16,1.64,1.64,0,0,0-.53.66c-.16.28-.44.4-.62.66s-.06.6-.17.92-.41.58-.53.92a2.87,2.87,0,0,0,0,1c0,.27-.2.34-.31.61a1.35,1.35,0,0,0,0,.91,2.28,2.28,0,0,0,.23.47l.19.2A2,2,0,0,1,7.34,12.44Zm2,4.78c.06.13.92,1.46.91,1.46s-.62-.28-.74-.32-.12.05-.16.05l-.06.07A3.78,3.78,0,0,1,9,18.26c-.24-.09-.2,0-.48,0s-.44-.12-.74-.14a1.53,1.53,0,0,0-.83.37,4.75,4.75,0,0,0,.51-.83,3.87,3.87,0,0,0,.28-1.34,25.65,25.65,0,0,0,0-3.72,1.44,1.44,0,0,0,.71-.32l.06.08c.09.22-.15.51-.11.77s.34.53.49.85a1.12,1.12,0,0,1,.07.45A4.73,4.73,0,0,0,9.38,17.22Zm5.17.66c-.33-.14-.67-.1-.75-.56a.12.12,0,0,0-.15-.08,1,1,0,0,1-.86,0,1,1,0,0,1-.37-.76,2.14,2.14,0,0,0,.54-.32,4.26,4.26,0,0,0,.7-.64c.23-.26.19-.22.51-.17h.05a7.86,7.86,0,0,1,.36,2.58Zm2.38.73a3.07,3.07,0,0,0,.38,1.57c.15.29.29.62.46.9a4.48,4.48,0,0,0,.36.4,2,2,0,0,1-1.06-.28,1,1,0,0,0-.6-.19c-.27,0-.35.22-.41.43-.32-.26-.63-.73-1.06-.71a1.85,1.85,0,0,0-1,.59,8.77,8.77,0,0,0,.76-3.14,7.19,7.19,0,0,0-.4-2.86,1.93,1.93,0,0,0,.43-.08c.16-.06.34-.24.5-.26a.84.84,0,0,1,.27,0,.11.11,0,0,0,0,.14,2.44,2.44,0,0,1,.2.43c.1.18.21.36.32.53a.54.54,0,0,0,.5.31c.7,0,1.36-.84,1.81-1.29l.2.12a1.13,1.13,0,0,0-.09.45l0,0A5.11,5.11,0,0,0,16.93,18.61Zm6-7.16c.7.49.15.75-.13,1a.17.17,0,0,0,0,.3l.21.66-.08.1s-.07.1-.08.16a.62.62,0,0,0,0,.33c.05.38.18.78-.22,1a1.75,1.75,0,0,1-.69.17.17.17,0,0,0-.12.17c0,.43-.17.8-.63.88a4.81,4.81,0,0,0-.53.07c-.32.09-.29.24-.45.52a1.42,1.42,0,0,1-.78.58c-.14.07-.27.2-.4.26s-.42,0-.64,0-.59.25-.95.17h0a6.17,6.17,0,0,1,1.22-1.76,1.59,1.59,0,0,0,.24.49c.05.07.18.06.17,0,0-.48-.41-.77-.12-1.27a.12.12,0,0,0-.07-.17.85.85,0,0,1-.58-.66c0-.08-.13-.05-.13,0a.7.7,0,0,0,.22.61c-.41.25-.75.58-1.16.83a.65.65,0,0,1-.85,0,1.93,1.93,0,0,1-.43-.81,1.35,1.35,0,0,0,.62-.34c.08-.08,0-.22-.12-.16a1,1,0,0,1-1.13.14.14.14,0,0,0-.15,0,1,1,0,0,1-.9.35s0,0,0,0a.06.06,0,0,0-.1,0,.7.7,0,0,1-.23-.11.15.15,0,0,0-.16,0c-.43.4-1.15,1.62-1.91,1.27a.13.13,0,0,0-.18.05c-.3.52-.95,0-1.15-.33a2.09,2.09,0,0,0-.25-.44,3.5,3.5,0,0,0-.47-.25c-.34-.23-.7-.7-.52-1.13a.14.14,0,0,0,0-.15c-.2-.17-.51-.44-.53-.7a2.9,2.9,0,0,1,.11-.6c0-.14.07-.17,0-.29s-.34-.36-.45-.54c-.25-.42-.4-1.16.17-1.43a.13.13,0,0,0,.06-.14,1.92,1.92,0,0,1-.06-1.11c.12-.37.42-.59.59-.92A.58.58,0,0,0,9.22,8c0-.19-.06-.43,0-.62s.27-.26.41-.4c.37-.35.41-.84,1-1a2.72,2.72,0,0,0,.56-.22c.24-.15-.38-.47.6-.29a1.76,1.76,0,0,1,.51.3.14.14,0,0,0,.17,0A.92.92,0,0,1,14,5.33a.13.13,0,0,0,.17,0c.17-.23.32-.25.46-.21s0,0,0,0,.16.18.19.06v0a.53.53,0,0,0,.35.06c.16-.05.22-.23.33-.35a6.66,6.66,0,0,1,.85-.73c.6-.48,1.11,0,1.35.53a.13.13,0,0,0,.16.09c.56-.23,1.11-.45,1.61.05.13.13.21.3.38.39s.37.11.54.2.3.33.47.63.63.78.39,1.33a.15.15,0,0,0,.07.16c.1,0,.61.18.49.32A.15.15,0,0,0,22,8.1a.77.77,0,0,1,.92.72,1.52,1.52,0,0,1-.26.8.17.17,0,0,0,0,.2.88.88,0,0,1,.18,1.38A.16.16,0,0,0,22.89,11.45ZM21.06,5.72a1.27,1.27,0,0,0-.69-.62,1.75,1.75,0,0,1-.44-.23,0,0,0,0,0,0,0c0-.83,1.22-.7,1.52-.17a1,1,0,0,1,0,.81c-.06.19-.25.28-.37.43A1.51,1.51,0,0,1,21.06,5.72Zm3,2.54v.16c-.15.46.43-.31-.11.69-.28.52-.43.48-.9.44,0-.08.06-.16.1-.32a1.09,1.09,0,0,0-1-1.44.24.24,0,0,0,0-.14c-.09-.21-.37-.15-.49-.29s-.11,0-.06-.05A1.86,1.86,0,0,0,21.67,7a.59.59,0,0,0,0-.23.64.64,0,0,0-.15-.36l-.24-.21A.61.61,0,0,1,21.21,6a.94.94,0,0,0,.55-.77,1.05,1.05,0,0,0-.38-1,1.21,1.21,0,0,0-1.15-.11.87.87,0,0,0-.35.25c-.11.15-.05.25,0,.41l-.19-.19c-.52-.56-1.13-.4-1.76-.15-.31-.62-1-1.11-1.63-.6-.31.24-.94,1-1.37,1h-.05a.6.6,0,0,0,0-.14c-.09-.2-.39-.22-.48-.37s0-.18,0-.27A1.27,1.27,0,0,0,14,3.72c-.54-.56-.52-.5-1.34-.54A2.09,2.09,0,0,1,11.89,3l-.26-.16s0-.07,0-.08,0-.2,0-.21a.47.47,0,0,1,.06-.15,1.14,1.14,0,0,1,.18-.25.63.63,0,0,1,.47-.2s0,0,.06,0,.11,0,.1,0A.74.74,0,0,1,13.12,1c.15,0,.31,0,.45,0s0,.05,0,.05h0a0,0,0,0,0,0,0,.17.17,0,0,0,0-.05.33.33,0,0,0,.1-.06s0-.09,0-.12a1.13,1.13,0,0,1,.84-.63,1.18,1.18,0,0,1,1.09.47l0,0h0s0,.13.07.09c.58-.44,1.24-.57,1.62.22a.06.06,0,0,0,.08,0c.56-.08.65-.25,1.27.15a2.71,2.71,0,0,1,.53.54.08.08,0,0,0,.14,0c.33-.58.5-1,1.35-1A1.26,1.26,0,0,1,22,1.53a.08.08,0,0,0,0,0,0,0,0,0,0,0,.07c.85,0,1.77.58,1.46,1.59,0,.13-.24.28-.24.42s.1.19.14.26c.28.56.66.94.25,1.59a.09.09,0,0,0,.05.14A1.73,1.73,0,0,1,24.6,7.5C24.52,7.78,24.09,8,24.07,8.26Z"/><path class="cls-1" d="M15.52,2.84c-.21.2-.25.71.11.72a.68.68,0,0,0,.77.15.56.56,0,0,0,.11-.87A.67.67,0,0,0,15.52,2.84Zm.68.76c-.28,0-.41-.1-.54-.33s-.17,0-.15.07a.61.61,0,0,0,.05.12.33.33,0,0,1-.05-.38.55.55,0,0,1,.37-.29.44.44,0,0,1,.61.32A.34.34,0,0,1,16.2,3.6Z"/></g></g></svg>