<svg xmlns="http://www.w3.org/2000/svg" viewBox="0 0 27.52 28.34"><defs><style>.cls-1{fill:#40220f;}</style></defs><title>資產 14</title><g id="圖層_2" data-name="圖層 2"><g id="圖層_7" data-name="圖層 7"><path class="cls-1" d="M13.69,24.6c0,.43,0,.87-.08,1.3a3.63,3.63,0,0,1-.21,1.21v-.05a.06.06,0,0,0-.12,0c-.28.59-1.06.79-1.64.94a7.91,7.91,0,0,1-2.91,0,3.26,3.26,0,0,1-2.38-1.15,5,5,0,0,1-.5-1.78c.83.9,2.74.88,3.76.88s2.83.06,3.75-.74S13,23.6,12.27,23.36a11.45,11.45,0,0,0-4.9-.46s0-.1-.08-.08L6.8,23,6.42,23a0,0,0,0,0,0,.09c-.65.27-1.18.7-.86,1.51a1.47,1.47,0,0,0,.1.22c.07.42.15.84.22,1.25a2.43,2.43,0,0,0,.38,1,3.52,3.52,0,0,0,2.45,1.14A7.86,7.86,0,0,0,12,28.1a2.77,2.77,0,0,0,1.32-.67.12.12,0,0,0,.09,0c.41-.08.42-.75.44-1.07a11.87,11.87,0,0,0,0-1.79C13.77,24.54,13.69,24.54,13.69,24.6Zm-8-.68c.17-.55.87-.72,1.4-.89a13.5,13.5,0,0,1,4.43.28c.65.15,1.57.36,1.91,1s-.62,1.1-1.16,1.24a10.74,10.74,0,0,1-5,0,2.53,2.53,0,0,1-1.51-.88c0-.13-.06-.26-.1-.39s0,0,0,0A.78.78,0,0,1,5.69,23.92Z"/><path class="cls-1" d="M20.75,18.46c-.08.95-.09,1.89-.19,2.84,0,.15.21.16.25,0a8.13,8.13,0,0,0,.07-2.87A.07.07,0,1,0,20.75,18.46Z"/><path class="cls-1" d="M26.59,5.25,24.7,5a3.07,3.07,0,0,0-1.28-.66c-.77-.3-1.48-.63-2.21-1C19.4,2.41,17.5,1.69,15.69.8c0,0,0-.05-.08-.05h0L15,.45a1.5,1.5,0,0,0-.33-.23s-.05,0-.07,0l.1-.07c.08-.07,0-.18-.11-.14a5,5,0,0,1-1.37.35A6.72,6.72,0,0,0,12,.75c-1.1.42-2.23.74-3.36,1.07-2.23.64-4.46,1.24-6.67,1.9A5.57,5.57,0,0,0,.29,4a.43.43,0,0,0-.16.72C.37,5,.91,5,1.27,5a12.26,12.26,0,0,1,1.48.1C2.69,8,2.66,10.9,2.64,13.81s-.09,5.79,0,8.68a.12.12,0,0,0,.13.12c.07,0,.14,0,.13-.12s0-.37,0-.55c.11.23.67.2.86.15a.5.5,0,0,0,.4-.54,3,3,0,0,1,.9.06v.2l-.06,0c-.14,0-.23.18-.1.24l.16.07v.23a.16.16,0,0,0,.31,0h0a1.09,1.09,0,0,0,0-.18c.3,0,.51-.21.58-.63,0-.15,0-.3,0-.45a5.54,5.54,0,0,1,1.22.11c0,.14.07.26.18.29a.14.14,0,0,0,.14,0,.46.46,0,0,0,0-.35.07.07,0,0,0,.09,0,17,17,0,0,1,1.94-.89c.65-.27,1.26-.61,1.91-.86,0,.18,0,.36,0,.53,0,.53,0,1.06,0,1.59a3.79,3.79,0,0,0,0,1c.14.46.58.42,1,.33a.13.13,0,0,0,.11-.12,2.37,2.37,0,0,0,.53,0,1.22,1.22,0,0,0,.54,0,.08.08,0,0,0,0,0c.49.07,1,.12,1.47.2a.21.21,0,0,0,.16,0c.39.08.79.21,1.18.3a.11.11,0,0,0,.1.11.07.07,0,0,0,0,.1,1.24,1.24,0,0,0,2.05-.15.17.17,0,0,0-.1-.25h0v-.05a24.54,24.54,0,0,0,3.14-1.52c.48-.26,1-.52,1.42-.8,0,.07,0,.15-.07.23a.12.12,0,0,0,.19.11,1,1,0,0,0,.33-.65l.25-.19a4.57,4.57,0,0,1,.62-.39.2.2,0,0,0,.27-.17c.11-2.11,0-4.25,0-6.36s0-4.21,0-6.32a7.5,7.5,0,0,0,1.51-.07h0a1.07,1.07,0,0,0,1.1-.4C27.79,5.71,27.2,5.35,26.59,5.25Zm-2.26-.31L22.9,4.76a23.73,23.73,0,0,0-4.19-.5.07.07,0,0,0-.06,0h-.84a.05.05,0,0,0,0,0L17.63,4a20.44,20.44,0,0,0,4.56.13l.5.21A6.59,6.59,0,0,1,24.33,4.94ZM21.79,3.88a36.15,36.15,0,0,1-4.29-.11c-.32-.43-.65-.84-1-1.26a5.34,5.34,0,0,0,2.18.13.08.08,0,0,0,0-.16,12.92,12.92,0,0,1-2.33-.16L16.17,2,16,1.83a4.81,4.81,0,0,0,1.36.25.08.08,0,0,0,0-.16c-.44-.14-.91-.13-1.36-.23-.05,0-.08,0-.09.06s-.1-.15-.14-.23h0a.07.07,0,0,0,.08,0,7.19,7.19,0,0,1,.91.09.07.07,0,0,0,.06,0c1.26.59,2.55,1.13,3.8,1.74Zm-6.24-3c.24.13.49.25.74.37a4.14,4.14,0,0,0-.61,0,3.09,3.09,0,0,0-.26-.37Zm-5.3.64h0a3.35,3.35,0,0,0,2.08.19c1.05-.07,2.1.14,3.15,0a.08.08,0,1,0,0-.15c-1,0-1.92-.12-2.89-.09a5.05,5.05,0,0,1-2.19,0c.67-.21,1.33-.44,2-.68S14,.63,14.59.22a.07.07,0,0,0,0,.1.87.87,0,0,1,.11.09s0,0,0,0l0,0A3.83,3.83,0,0,1,15,.76c-.88,0-1.76.05-2.63.07a.06.06,0,0,0,0,.12c.92,0,1.84,0,2.76,0a3.33,3.33,0,0,1,.24.32c-1.1-.2-2.27,0-3.37-.18-.07,0-.09.12,0,.13,1.18.18,2.37.13,3.55.29.19.28.37.57.57.84l0,0a9.47,9.47,0,0,0-3.52-.28A22.72,22.72,0,0,0,9,1.94H9ZM8.63,2c0,.05,0,.11.06.1a36.22,36.22,0,0,1,3.75.19,18.3,18.3,0,0,1,3.77.26.08.08,0,0,0,.08,0l.41.57c-1.62-.19-3.27-.47-4.9-.51-.88,0-1.76,0-2.63,0a10,10,0,0,1-2.44,0,.07.07,0,0,0,0,.13,5.37,5.37,0,0,0,2,.1c1,0,1.91,0,2.87,0a22.16,22.16,0,0,1,2.93.27,12.59,12.59,0,0,0,2.37.22l.17.24.14.2a.06.06,0,0,0,0,.09h0a2.24,2.24,0,0,0,.33.36c-2.18,0-4.38-.14-6.55-.24-1.37-.07-2.74-.17-4.11-.26a31.24,31.24,0,0,0-4-.13C4.82,3.08,6.73,2.58,8.63,2ZM.82,4.71c-.3,0-.84-.33-.28-.53a3.24,3.24,0,0,1,1-.15,2.84,2.84,0,0,0,1.29-.29c1.33.11,2.66.12,4,.21s2.81.2,4.22.27c2.43.12,4.87.23,7.3.25a.07.07,0,0,0-.06.07c-.07.56,0,1.12-.05,1.69A16.89,16.89,0,0,0,15.47,6c-1.43-.12-2.86-.26-4.3-.37s-2.86-.18-4.3-.29l-2.1-.19a5.33,5.33,0,0,0-.57,0,.38.38,0,0,1,0-.1A.08.08,0,0,0,4,5a.28.28,0,0,0,0,.09H4a.09.09,0,0,0,0-.18A25.21,25.21,0,0,0,.82,4.71Zm16,2.19-.06.3V7.08a.05.05,0,1,0-.1,0q-.08,3.64-.12,7.29c-.54-.09-1.09-.18-1.63-.3a4.33,4.33,0,0,0-1.06-.13c0-.52,0-1,0-1.58,0-1-.08-1.95-.13-2.92s0-2-.14-3a.07.07,0,0,0-.13,0,23.94,23.94,0,0,0,0,3.28c0,1,.06,2,.07,3,0,.42,0,.85,0,1.27h0c-.09,0-.07.14,0,.16s0,.29,0,.44,0,.07,0,.09c0,.24,0,.48,0,.72s0,.25,0,.41a.06.06,0,0,0,0,.12c0,.54,0,1.21.4,1.44a.09.09,0,0,0,.13-.05c.13-.32-.05-.69-.09-1,0-.12,0-.23,0-.35a5.2,5.2,0,0,1,2.69.53c0,.41,0,.82,0,1.23a3.72,3.72,0,0,0-1.48-.12,7.58,7.58,0,0,1-2.27-.25h0l0-.67s0-.06-.05-.06a.1.1,0,0,0-.08,0,.7.7,0,0,0-.87.62l-.16.08c-.5.23-1,.4-1.53.58-1.25.44-2.48,1.2-3.84.76a.08.08,0,0,0-.07,0c0-.18,0-.35,0-.53h0a10.45,10.45,0,0,1,3.06-1.23c.06,0,.14,0,.15,0l.3-.09.28-.09a.12.12,0,0,0,.19-.06l.49-.16s0,.05,0,.06a.12.12,0,0,0,.22-.06v-.08a12,12,0,0,0,1.65-.65.08.08,0,0,0,0-.15,2,2,0,0,0-.93.26.44.44,0,0,0-.17-.42s-.08,0-.09,0a.5.5,0,0,0,0,.21,2.43,2.43,0,0,0,0,.27h0l-.49.18a.5.5,0,0,1,0-.12,4.15,4.15,0,0,0-.11-.48.07.07,0,0,0-.13,0,3.11,3.11,0,0,0,0,.53.76.76,0,0,0,0,.15l-.44.15c0-.25-.12-.49-.17-.73a.07.07,0,0,0-.13,0c0,.26,0,.53,0,.78l-.43.14-.12,0a3.53,3.53,0,0,1-.17-.73c0-.07-.11-.09-.12,0a1.47,1.47,0,0,0,0,.83l-.53.15c0-.18-.05-.35-.07-.53a5.29,5.29,0,0,0,0-.56l.74-.14a24.63,24.63,0,0,0,2.6-.64v0a1.15,1.15,0,0,0,0,.61.11.11,0,0,0,.2,0,1.15,1.15,0,0,0,0-.61.07.07,0,0,0,0-.05l.83-.29a6.57,6.57,0,0,0,.14,1.93.16.16,0,0,0,.12.12.21.21,0,0,0,0,.08.61.61,0,0,0,.24.5.12.12,0,1,0,.12-.21.48.48,0,0,1-.13-.23c0-.05,0-.1-.05-.15v0s0,0,0,0a.14.14,0,0,0,0-.07,1.42,1.42,0,0,0,0-.41A.1.1,0,0,0,13,16a12.94,12.94,0,0,1,0-2c0-.85,0-1.71,0-2.57,0-1.83-.22-3.64-.33-5.46l1.83.16,2,.16.42,0,0,0A4.3,4.3,0,0,1,16.84,6.9ZM13.2,22.41a.06.06,0,0,0-.06.05,1.83,1.83,0,0,0-.33,0c.08-1.41,0-2.84,0-4.26a3.56,3.56,0,0,0,.58.18,15.17,15.17,0,0,0-.06,1.65c0,.72,0,1.44,0,2.16a.18.18,0,0,0,.35,0h0V22c0-.64,0-1.28,0-1.91s0-1.08,0-1.61c.25,0,.51.08.76.12,0,.64-.09,1.29-.12,1.94a6.72,6.72,0,0,0,0,1.9v0A8.34,8.34,0,0,0,13.2,22.41Zm1.24-7.08a1,1,0,0,0-.18-.34.09.09,0,0,0-.15.09,2.09,2.09,0,0,0,.08.34.76.76,0,0,0,.11.33h-.45q0-.39,0-.78v-.24c.4.09.8.2,1.2.25l0,.22a.93.93,0,0,0,.14.47.12.12,0,0,0,.19,0,.62.62,0,0,0,0-.46,1.59,1.59,0,0,0-.07-.2h.64c0,.28-.08.65.11.85a.09.09,0,0,0,.15,0,1.63,1.63,0,0,0-.05-.49,1.8,1.8,0,0,0-.06-.32,2.5,2.5,0,0,1,.47.05v.06a.06.06,0,0,0-.08.06,3.53,3.53,0,0,1,0,.46.89.89,0,0,0,0,.46s0,0,0,0v.06a4.19,4.19,0,0,0-2.11-.43l0,0A.55.55,0,0,0,14.44,15.33Zm2.09,3.28c-.67-.09-1.34-.2-2-.31a7,7,0,0,0-1.75-.22l0-.59a2.41,2.41,0,0,0,1.64.38,15.19,15.19,0,0,1,2.14.12Zm-2.08,3.75v0h0a.09.09,0,0,0,0-.1,12.61,12.61,0,0,0,0-1.74c0-.64,0-1.28,0-1.92l.21,0,.66.12s0,0,0,0c-.05.69-.09,1.39-.11,2.09a13.3,13.3,0,0,0,0,1.67l-.74-.09A.19.19,0,0,0,14.45,22.36Zm1.09-1.5c0-.7-.07-1.4-.11-2.09,0,0,0,0,0,0,.37.05.74.11,1.11.15v.25c0,1.2-.05,2.41,0,3.61a7.27,7.27,0,0,0-1-.18A11,11,0,0,0,15.54,20.86Zm0-6.1-.34,0a.19.19,0,0,1,0-.08.07.07,0,0,0-.14,0v.05c-.4-.05-.79-.15-1.19-.17v-.39a10.86,10.86,0,0,1,1.49.28,3.84,3.84,0,0,0,1.21.16v.18A4.27,4.27,0,0,0,15.55,14.76ZM5.32,15.7a3.48,3.48,0,0,0-.41.1c-.09,0-.36.13-.46.06s-.11,0-.09.09c.12.24.45.18.73.08,0,.11,0,.22,0,.33l-.23,0a3,3,0,0,0-.52,0V13.17c0-1.32,0-2.63,0-3.95s0-2.61-.08-3.89c.53,0,1.07.11,1.6.16,1.48.14,2.95.23,4.42.33q1.14.07,2.28.18c-.09,1.9.18,3.8.15,5.71,0,.65,0,1.3,0,1.95a17.2,17.2,0,0,0-3.59.85,28.91,28.91,0,0,1-4.11,1c-.08,0-.08.13,0,.12l.47,0A.44.44,0,0,0,5.32,15.7Zm3.38-.87a21,21,0,0,1,4-1c0,.13,0,.26,0,.38v.14a26.6,26.6,0,0,1-3.39.94c-.58.12-1.17.21-1.74.37A15.11,15.11,0,0,1,6,16.15a1.57,1.57,0,0,0-.15-.43.43.43,0,0,0-.16-.2A25.55,25.55,0,0,0,8.7,14.83Zm-2.6,3a10,10,0,0,0,0-1.54h.22c0,.09,0,.26,0,.34.06.34.06.68.09,1a.08.08,0,0,0,0,0l-.32.24Zm.48-1.05c0-.09,0-.18-.07-.27s0-.1,0-.14a.1.1,0,0,1,0,0v0a.11.11,0,0,0,0-.06A6.07,6.07,0,0,0,7.22,16h0a1.63,1.63,0,0,0,0,.54,2,2,0,0,0,.12.6l0,0a6,6,0,0,0-.72.35A3.65,3.65,0,0,0,6.58,16.8Zm.93-.21c0-.21-.07-.42-.11-.62.28-.08.56-.15.85-.21a2.44,2.44,0,0,0,0,1.14c-.22.06-.45.14-.67.22A1.57,1.57,0,0,0,7.51,16.59ZM3.62,21.84a1.13,1.13,0,0,1-.32-.05c-.11,0-.2-.08-.3,0l0,0c.09-2.65,0-5.31,0-8C3,10.92,2.94,8,2.88,5.14a3.18,3.18,0,0,0,1,.17H4A36.89,36.89,0,0,0,3.92,9.1c0,1.36,0,2.71,0,4.07,0,2.71,0,5.42.1,8.13a.13.13,0,0,0,0,.09s0,0,0,0v.06l0,0a.07.07,0,0,0,0,.09C4,21.76,3.84,21.84,3.62,21.84Zm.58-.47a.15.15,0,0,0,0-.07c.06-1.59.08-3.18.09-4.78.16,0,.32,0,.48.05a2,2,0,0,0,.26.07c-.06,1.57,0,3.14.06,4.71H5.06a.06.06,0,0,0-.06,0A1.65,1.65,0,0,0,4.2,21.37ZM5.83,18.3c0,.71,0,1.41,0,2.12,0,.28,0,.57,0,.85s-.11.51-.32.56c0-1.74-.16-3.48-.2-5.23a.09.09,0,0,0,0-.11l0,0V16l.1,0a.11.11,0,0,0,.09,0h0a.11.11,0,0,0,.06-.07c.28-.23.32.6.33.82C5.86,17.19,5.83,17.75,5.83,18.3ZM9.56,20c-.63.26-1.51.42-1.92,1v0a.59.59,0,0,1,0-.13c0-.3,0-.6,0-.91s0-.85-.28-.87a.07.07,0,0,0,0,.13s0,.33,0,.41c0,.26,0,.52,0,.78,0,.09,0,.28,0,.47a3,3,0,0,0-1.19-.06c0-.68,0-1.38,0-2.07h0c1.43.5,2.75-.31,4.08-.78a15.22,15.22,0,0,0,1.46-.57,16.23,16.23,0,0,0-.09,1.72C10.91,19.1,10.15,19.75,9.56,20Zm2.31,1.59c0-.64,0-1.27,0-1.91s0-1.14,0-1.71c0-.22,0-.45.05-.65.23-.11.57-.28.58-.53v0h0c-.07,1.89-.2,3.83-.09,5.72v0h0C11.77,22.67,11.88,22.11,11.87,21.59Zm6.83-5.92a7.83,7.83,0,0,1,1.68.24c.05.28-.05.62,0,.91a5.09,5.09,0,0,0-.67-.18,1.87,1.87,0,0,0,0-.32,1.43,1.43,0,0,0-.17-.49.06.06,0,0,0-.11,0,4.26,4.26,0,0,0,0,.5c0,.08,0,.16,0,.24a2.8,2.8,0,0,0-.41,0c-.15,0-.16.24,0,.24a8,8,0,0,1,1.53.39c-.61.22-1.21.46-1.83.63C18.71,17.13,18.7,16.4,18.7,15.67Zm4,.61a.09.09,0,0,0,.07.16.18.18,0,0,0,.13-.12.2.2,0,0,0,0-.15,7.5,7.5,0,0,1,.82,0s0,.05,0,.08a4,4,0,0,1-.45.15l-1,.22c0-.17-.05-.35-.06-.49h.55A.09.09,0,0,1,22.74,16.28Zm1.1.74c0-.06-.11-.06-.12,0l0,.11c-.57.21-1.14.39-1.72.59s-1.15.37-1.71.6a5.67,5.67,0,0,0-.65.33.07.07,0,0,0-.1.06,3.76,3.76,0,0,1-.79.36V18a6.34,6.34,0,0,0,2.61-.78.1.1,0,0,0,.12,0h0a4,4,0,0,1,.45-.16l.21-.05a.09.09,0,0,0,.13,0h0c.45-.11.91-.19,1.36-.31l.21-.05,0,.1c0,.08.18.11.21,0a1,1,0,0,0,0-.17l.29-.1c0,.14,0,.29,0,.44-.18.06-.36.16-.52.22A.13.13,0,0,0,23.84,17Zm-1.73-.85a4.5,4.5,0,0,0-.07.56l-.27.07-.25.08a1.64,1.64,0,0,0,0-.22,1.52,1.52,0,0,0-.13-.55,6.13,6.13,0,0,0,.74.05Zm-.87-.05a2.57,2.57,0,0,1,0,.62,1.94,1.94,0,0,0,0,.24l-.22.07,0,0-.3-.11a3.75,3.75,0,0,0,0-.48,2.5,2.5,0,0,0-.1-.49l.64.13h.07A0,0,0,0,0,21.24,16.12ZM23.65,20c0-.67-.27-1.45-.3-1.95,0-.08-.13-.08-.13,0a21,21,0,0,1,0,2.24,9.12,9.12,0,0,1-.79.47c0-.4-.11-.82-.11-1.24s.05-.93,0-1.41a.07.07,0,0,0-.13,0c-.05.55-.14,1.1-.16,1.65a1.7,1.7,0,0,0,.19,1.11l-.34.19c-1.07.58-2.26,1-3.29,1.68.06-1.17.08-2.34.09-3.51a2.42,2.42,0,0,0,.82-.28,9.54,9.54,0,0,1,0,1.69,2.07,2.07,0,0,0,.21,1.3.1.1,0,0,0,.18-.05c0-.55-.12-1.1-.12-1.66a5.57,5.57,0,0,0-.13-1.35l.47-.23c.47-.19.94-.35,1.42-.51,0,0,0,0,0,0a10.15,10.15,0,0,1,0,1.46,3,3,0,0,0,0,1.22c0,.07.14.12.18,0a3.09,3.09,0,0,0,.08-1.25,5.65,5.65,0,0,0-.17-1.48,0,0,0,0,0,0,0l.52-.17,1.5-.5c0,.4,0,.83,0,1.22a4.14,4.14,0,0,0,.07,1.27l0,0Zm.37-.31A8.25,8.25,0,0,0,24,18.54c0-.39,0-.81-.07-1.21l.05,0,.42-.13c0,.77,0,1.53,0,2.28l-.17.07A.86.86,0,0,0,24,19.66Zm.47-6.47c0,1-.07,1.92-.1,2.88h0l-.06,0-.21,0c0-.18,0-.36,0-.55,0-.45,0-.9,0-1.35,0-1,.05-1.94.05-2.91s0-1.82,0-2.74c0-.46.2-1.08-.13-1.48-.05-.06-.15,0-.11.09.2.32.05.71,0,1s0,.69,0,1c0,.88,0,1.76,0,2.65s-.05,1.69-.09,2.54c0,.29-.05.61-.07.93a5.88,5.88,0,0,0-1.3-.17A16.63,16.63,0,0,0,19,14.79.08.08,0,1,0,19,15c1.07.1,2.12.2,3.19.35a7.52,7.52,0,0,1,1.55.22c0,.14,0,.28,0,.41A25.56,25.56,0,0,1,21,15.76c-.65-.14-1.59-.53-2.25-.24,0-.22,0-.44,0-.66l0-4c0-1.39,0-2.81-.11-4.2a0,0,0,1,0-.06,0c-.13,1.35-.09,2.73-.11,4.08l0,4.08c0,2.66-.08,5.32.07,8h0a.08.08,0,0,0,0,.09.11.11,0,0,0-.08.16l.06.09c-.36.53-1.1.37-1.61.11h0a.15.15,0,0,0,.09-.06,1.63,1.63,0,0,0,.31,0c.12,0,.13-.14.06-.2a2.74,2.74,0,0,0-.34-.19c.1-1.2.06-2.41.05-3.61,0-1.36,0-2.72,0-4.09A.12.12,0,0,0,17,15l-.08,0c0-2.49-.06-5-.12-7.45a.1.1,0,0,0,.16,0c.12-.25.31-.87,0-1.08a5.55,5.55,0,0,1,1.22.12.1.1,0,0,0,.16,0l.3.1a.08.08,0,0,0,.08,0l0,0c1.28.16,2.62.09,3.91.12.63,0,1.3.08,2,.1C24.56,9,24.53,11.08,24.49,13.19ZM27,6.44a1.1,1.1,0,0,1-.67.1c-.32,0-.63-.09-.95-.12a.1.1,0,0,0-.09.14h-.63l-2,0a29.11,29.11,0,0,0-3.85,0,.09.09,0,0,0-.06-.09l-.33-.12a4.22,4.22,0,0,0,0-1.77.06.06,0,0,0,0,0h.32q3,.32,5.89.73a.11.11,0,0,0,.08,0l.22,0,1.16.2a2.64,2.64,0,0,1,1,.2A.49.49,0,0,1,27,6.44Z"/><path class="cls-1" d="M5.78,3.12c1.94,0,3.87.22,5.81.37.9.06,1.8.1,2.7.2a17.5,17.5,0,0,0,2.87.38.09.09,0,1,0,0-.18c-.93,0-1.83-.27-2.76-.39s-1.87-.16-2.81-.22C9.65,3.15,7.72,3,5.78,3A.07.07,0,0,0,5.78,3.12Z"/><path class="cls-1" d="M17.29,3.43a26.62,26.62,0,0,0,3.46.13.08.08,0,1,0,0-.15c-1.16,0-2.31,0-3.46-.11C17.2,3.29,17.21,3.42,17.29,3.43Z"/></g></g></svg>