<svg xmlns="http://www.w3.org/2000/svg" viewBox="0 0 40.45 24.47"><defs><style>.cls-1{fill:#40220f;}</style></defs><title>資產 21</title><g id="圖層_2" data-name="圖層 2"><g id="圖層_7" data-name="圖層 7"><path class="cls-1" d="M18,5.15c0,.34-.07.69-.12,1a2,2,0,0,1-.12.64s0,.1.08.08.12-.3.13-.43C18,6,18,5.59,18,5.15a0,0,0,1,0-.08,0Z"/><path class="cls-1" d="M18,5.18c1.09-.08,2.24,0,3.34,0,.56,0,1.32-.09,1.45.59a4.17,4.17,0,0,1,0,1.41.06.06,0,0,0,.11,0,3.68,3.68,0,0,0,.05-1.55c0-.34-.09-.4-.41-.53A6.37,6.37,0,0,0,20.35,5,15.61,15.61,0,0,0,18,5.08c-.06,0,0,.11,0,.1Z"/><path class="cls-1" d="M17.82,6.93c.8,0,1.62,0,2.42.07a11.4,11.4,0,0,1,2.55.17A.09.09,0,1,0,22.84,7a10.36,10.36,0,0,0-2.43-.16,7.82,7.82,0,0,0-2.6,0,0,0,0,0,0,0,.08Z"/><path class="cls-1" d="M17.29,4.8c0,.44,0,.88,0,1.32a8.74,8.74,0,0,0-.08,1.14c0,.07.11.1.12,0a13.69,13.69,0,0,0,.08-2.48,0,0,0,0,0-.08,0Z"/><path class="cls-1" d="M23.76,5.15a9.35,9.35,0,0,0-.22,1.39,2.39,2.39,0,0,1-.19.84s0,.1.06.09c.23,0,.22-.33.24-.52a15.11,15.11,0,0,1,.18-1.78s-.06-.07-.07,0Z"/><path class="cls-1" d="M16.08,4.07c1.3,1.07,2.52.77,4.16.77,1.86,0,3.78.56,5.53-.17.07,0,0-.16,0-.12-1.53.62-3.17.2-4.78.16S17.63,5,16.13,4c0,0-.08,0-.05.07Z"/><path class="cls-1" d="M16.06,4c.73.65,2.42.36,3.31.36l3,0,1.56,0c.18,0,1.52.17,1.49.18s0,.14.06.11a.79.79,0,0,0,.38-.25s0-.11,0-.12c-1.76-.07-3.51-.11-5.26-.11-1.3,0-3.29.37-4.48-.3,0,0-.09,0-.05.07Z"/><path class="cls-1" d="M16.14,3.94c-.12-.11,0-.33-.07-.48a.37.37,0,0,0-.17-.2.72.72,0,0,0-.64,0l.1.08c0-.2.42-.28.59-.28a.79.79,0,0,1,.68.37c0,.08.16,0,.12-.07A.93.93,0,0,0,15.9,3c-.22,0-.63.11-.68.38a.07.07,0,0,0,.11.08.77.77,0,0,1,.34-.08c.23,0,.28.22.28.4a.34.34,0,0,0,.13.28c.05,0,.11,0,.06-.08Z"/><path class="cls-1" d="M16.63,3.52a.8.8,0,0,0,.63.17.06.06,0,0,0,0-.12,1.55,1.55,0,0,1-.31,0,2.67,2.67,0,0,0-.26-.09c-.05,0-.09.05-.05.08Z"/><path class="cls-1" d="M17.28,3.73a34,34,0,0,0,3.78.06c1.37,0,2.72.12,4.09.17.1,0,.1-.16,0-.17a66.7,66.7,0,0,0-7.87-.16c-.07,0-.06.09,0,.1Z"/><path class="cls-1" d="M25.17,4c.21,0,.33-.08.44-.25s.21-.34.46-.36.47.11.72.23c.08,0,.15-.07.07-.13a1.06,1.06,0,0,0-1-.21c-.29.13-.34.62-.67.64,0,0-.06.07,0,.08Z"/><path class="cls-1" d="M26.78,3.46a.76.76,0,0,0-.67.35,1,1,0,0,0-.11.34.36.36,0,0,1-.22.32c-.07,0,0,.12,0,.12.23,0,.34-.14.38-.35a.88.88,0,0,1,.1-.35.73.73,0,0,1,.49-.35,0,0,0,0,0,0-.08Z"/><path class="cls-1" d="M16.41,4.28c-.12.08-.09.31-.09.43,0,.3,0,.6,0,.9a.07.07,0,0,0,.08.07c.2,0,.43,0,.53-.19a.86.86,0,0,0,0-.39c0-.21,0-.43,0-.64a.06.06,0,0,0-.11,0,3.75,3.75,0,0,0,0,.75.26.26,0,0,1-.25.32.62.62,0,0,0-.19,0l.08.06c0-.25.06-.5,0-.76a1.51,1.51,0,0,1,0-.52,0,0,0,0,0-.06,0Z"/><path class="cls-1" d="M25.09,4.81A3.76,3.76,0,0,1,25,5.87l.08,0c-.2-.06-.4-.07-.6-.12a.18.18,0,0,0,0,.07c0-.26,0-.53,0-.79a.07.07,0,1,0-.13,0,5.21,5.21,0,0,0,0,.79.08.08,0,0,0,.06.08c.2,0,.4.06.6.11a.08.08,0,0,0,.08,0,2.54,2.54,0,0,0,.09-1.13s-.07-.06-.08,0Z"/><path class="cls-1" d="M25.89,4.5c0,.16,0,.31,0,.47a1.52,1.52,0,0,1-.06.47c0,.08-.09.09-.18.07s-.15-.06-.17-.18,0-.33,0-.48-.11-.09-.12,0-.15.51,0,.71a.42.42,0,0,0,.43.13c.14,0,.17-.14.19-.27a2.78,2.78,0,0,0,0-.91s-.06,0-.07,0Z"/><path class="cls-1" d="M17.19,7.37a32.1,32.1,0,0,0,6.2.14c.1,0,.1-.17,0-.16-2.07.13-4.12,0-6.19-.06a0,0,0,0,0,0,.08Z"/><path class="cls-1" d="M23.42,7.44c.18.15.42,0,.62,0a3.2,3.2,0,0,0,.76-.15.64.64,0,0,0,.27-.57c0-.25.18-.66,0-.87a.07.07,0,0,0-.14,0c0,.23-.06.45-.08.67s0,.5-.25.6a3,3,0,0,1-.52.08c-.2,0-.43.17-.64.12,0,0-.09,0,0,.08Z"/><path class="cls-1" d="M16.74,3.5c0,.25.55,0,.62,0a4.54,4.54,0,0,0,.45-.21,4.39,4.39,0,0,0,.75-.68c.08-.06,0-.18-.12-.11a6.63,6.63,0,0,1-.52.54,2.43,2.43,0,0,1-.35.2c-.07,0-.74.36-.76.3a0,0,0,0,0-.07,0Z"/><path class="cls-1" d="M18.54,2.4c-.58-1-.31-.45.23-.19A4.13,4.13,0,0,0,21,2.39c.94-.05,1.87-.09,2.81-.17.62-.05,1.57-.6.75.29-.06.06,0,.15.1.09a1.48,1.48,0,0,0,.55-1c0-.08-.08-.16-.14-.08-.57.7-2.52.61-3.37.65-1.08,0-2.83.43-3.48-.73a.07.07,0,0,0-.12.06,2.41,2.41,0,0,0,.41.91s.11,0,.08-.05Z"/><path class="cls-1" d="M24.57,2.66c.08.34.36.58.43.91a.08.08,0,0,0,.16,0c-.08-.35-.38-.57-.52-.9,0,0-.08,0-.07,0Z"/><path class="cls-1" d="M24.49,2.59a.74.74,0,0,0,0,.17,2.19,2.19,0,0,1-.12.33,2.12,2.12,0,0,1-.27.49.07.07,0,0,0,0,.09c.2.09.34-.35.38-.48s.23-.57.07-.62a0,0,0,0,0-.05,0Z"/><path class="cls-1" d="M19.18,2.35a1.26,1.26,0,0,1-.47.71c-.12.1-.24.2-.37.29a2.2,2.2,0,0,0-.25.17.06.06,0,0,0,.05.1,1.78,1.78,0,0,0,.75-.53,1,1,0,0,0,.37-.73s-.07-.06-.08,0Z"/><path class="cls-1" d="M19.8,2.56c0,.18-.21.34-.32.47s-.33.34-.48.54,0,.12.09.08a3.27,3.27,0,0,0,.6-.63.55.55,0,0,0,.18-.47s-.07,0-.07,0Z"/><path class="cls-1" d="M20.48,2.46A.91.91,0,0,1,20.2,3a1.22,1.22,0,0,0-.27.37.06.06,0,0,0,.09.06A2.14,2.14,0,0,0,20.43,3a.76.76,0,0,0,.13-.52,0,0,0,0,0-.08,0Z"/><path class="cls-1" d="M21.18,2.42A3.47,3.47,0,0,1,21,3a1.28,1.28,0,0,0-.21.42c0,.06.06.12.1.06a2.21,2.21,0,0,0,.42-1.07,0,0,0,0,0-.08,0Z"/><path class="cls-1" d="M22.18,2.31c-.19.41-.38.82-.58,1.22,0,.07,0,.13.1.1s.23-.33.3-.49a3.3,3.3,0,0,0,.25-.81s-.05-.06-.07,0Z"/><path class="cls-1" d="M22.7,2.33c0,.44-.41.81-.51,1.23a.08.08,0,0,0,.13.08,1.6,1.6,0,0,0,.3-.63,1.48,1.48,0,0,0,.16-.68c0-.05-.08-.06-.08,0Z"/><path class="cls-1" d="M23.27,2.16a6.18,6.18,0,0,1-.6,1.34.06.06,0,0,0,.09.08,1.32,1.32,0,0,0,.34-.65,1.94,1.94,0,0,0,.25-.77,0,0,0,0,0-.08,0Z"/><path class="cls-1" d="M23.9,2.14a11.28,11.28,0,0,1-.56,1.54s0,.11.07.09.25-.37.3-.55A5.59,5.59,0,0,0,24,2.15s-.06,0-.08,0Z"/><path class="cls-1" d="M25.15,1.68a.9.9,0,0,0,.09-.43.08.08,0,0,0-.12-.06l-.05,0a.06.06,0,0,0,0,.1.22.22,0,0,0,.08,0l-.09-.06a1.21,1.21,0,0,1,0,.38s.05.07.07,0Z"/><path class="cls-1" d="M21,1.13a.23.23,0,0,1,0-.24.12.12,0,0,1,.21,0,.23.23,0,0,1,0,.2.12.12,0,0,1-.13.07s-.08.05-.06.09.24,0,.3-.06a.36.36,0,0,0,0-.42.25.25,0,0,0-.38,0,.3.3,0,0,0,0,.4s.08,0,.06-.05Z"/><path class="cls-1" d="M20.82,1.12A.46.46,0,0,1,20.76.7c0-.12.16-.18.25-.27a.6.6,0,0,0,.14-.36L21,.1a1.16,1.16,0,0,0,.28.34s.11,0,.08-.06S21.2.16,21.14,0,21,0,21,.07a.39.39,0,0,1-.15.31.92.92,0,0,0-.22.26.53.53,0,0,0,.11.52,0,0,0,0,0,.07,0Z"/><path class="cls-1" d="M21,.49c-.09-.1,0-.26-.12-.35a.05.05,0,0,0-.09,0,.42.42,0,0,0,.16.37S21,.52,21,.49Z"/><path class="cls-1" d="M20.76.87c-.11-.09-.14-.24-.23-.34s-.11,0-.1,0a.52.52,0,0,0,.29.35s.07,0,0-.06Z"/><path class="cls-1" d="M21.41.59s.18-.3.19-.34-.1-.13-.13-.06-.07.19-.11.27-.09.11-.06.17.07.07.1,0a0,0,0,0,0,0,0,0,0,0,0,0,0-.06Z"/><path class="cls-1" d="M21.56.85a.26.26,0,0,0,.18-.16c0-.06.11-.15.1-.22a.05.05,0,0,0,0,0h0a0,0,0,0,0-.06,0c-.09.1-.1.26-.21.35s0,.07,0,.06Z"/><path class="cls-1" d="M21.64.92c.12,0,.17-.07.25-.16L21.78.7a1.58,1.58,0,0,1-.15.38l-.1.12,0,0s0,0,0,0a.06.06,0,0,0,0,.08c.07.1.17,0,.21-.09a1.73,1.73,0,0,0,.22-.5c0-.07-.07-.1-.11-.05s-.08.13-.15.15a0,0,0,0,0,0,.08Z"/><path class="cls-1" d="M21.47,1.36a.36.36,0,0,1-.14.11,0,0,0,0,0,0,.09c.11,0,.16-.07.19-.17s-.05-.06-.07,0Z"/><path class="cls-1" d="M20.75,1.3a.49.49,0,0,0,.11.23c.07.05.15,0,.22.07s.1,0,.08-.07-.05-.07-.11-.08a.22.22,0,0,1-.17-.07l-.06-.11s-.09,0-.07,0Z"/><path class="cls-1" d="M21,1.53c-.33-.07-.65-1-1-.55a.07.07,0,0,0,0,.11c.26.14.51.3.55.62a.38.38,0,0,1-.13.38.24.24,0,0,0-.13.15c0,.07.07.12.11.07s.24-.15.31-.26a.76.76,0,0,0,0-.47c-.07-.31-.35-.48-.62-.63l0,.11c.22-.29.57.78.89.54,0,0,0-.07,0-.07Z"/><path class="cls-1" d="M21.5,1.58c0,.14.34-.24.37-.29S22,1,22.07.88c.33-.46.11,0,0,.15s-.3.39-.26.63.27.45.15.52,0,.12,0,.11.15-.23.09-.36-.18-.37,0-.64a2.1,2.1,0,0,0,.29-.5c.05-.18-.09-.24-.26-.17a.63.63,0,0,0-.28.34,2.07,2.07,0,0,1-.15.34c-.1.14-.19.15-.29.24s0,.08,0,.08h0s0,0,0,0Z"/><path class="cls-1" d="M21,2.24a.3.3,0,0,1,.36-.32c.16,0,.22.19.31.31s.14,0,.12,0a.56.56,0,0,0-.53-.41.39.39,0,0,0-.34.49s.09,0,.08,0Z"/><path class="cls-1" d="M22,2.06A2.72,2.72,0,0,0,23.5,2a.06.06,0,1,0,0-.12A9.79,9.79,0,0,1,22,2a0,0,0,0,0,0,.08Z"/><path class="cls-1" d="M23.41,2a.34.34,0,0,0,.2-.37c0-.2-.22-.22-.36-.33v.11c.17-.21.37-.18.6-.13l0-.13a.38.38,0,0,0-.15.32c0,.17.21.22,0,.4s0,.16.09.11a1.06,1.06,0,0,0,.53-.57c.1-.37-.19-.77,0-1.11h-.12a1.84,1.84,0,0,1,.41.91c0,.26-.08.61-.37.66a.07.07,0,0,0,0,.13c.32,0,.45-.32.49-.59A1.66,1.66,0,0,0,24.36.22a.07.07,0,0,0-.12,0,.79.79,0,0,0-.08.64.78.78,0,0,1-.43,1l.09.11A.34.34,0,0,0,24,1.7c0-.18-.29-.19-.05-.44a.08.08,0,0,0,0-.13.66.66,0,0,0-.77.17.1.1,0,0,0,0,.13c.14.1.51.28.21.48-.05,0,0,.12.05.09Z"/><path class="cls-1" d="M20.29,2.19c-.41-.06-.43-.47-.6-.75a.2.2,0,0,0-.28-.1c-.38.21.07.67.14.87a.86.86,0,0,0,.07-.1,2.32,2.32,0,0,1-.79-.62c-.21-.37,0-.61,0-1a.07.07,0,0,0-.13-.05c-.3.26-.74,1-.26,1.31.07,0,.14-.05.08-.1-.32-.3,0-.87.29-1.1L18.68.52c0,.23-.12.43-.11.66a.83.83,0,0,0,.18.5,5.21,5.21,0,0,0,.52.41.5.5,0,0,0,.35.18c.05,0,.1,0,.08-.1s-.28-.39-.26-.47c.06-.29.19.07.23.15a.66.66,0,0,0,.61.42s0-.07,0-.08Z"/><path class="cls-1" d="M17.38,4.41c.15.2.4.29.58.46s.15,0,.09-.09a5.66,5.66,0,0,0-.62-.43s-.07,0-.05.06Z"/><path class="cls-1" d="M18.18,4.4c.16.12.29.35.5.4.06,0,.08-.06,0-.09a4.57,4.57,0,0,0-.49-.38s-.08,0-.05.07Z"/><path class="cls-1" d="M18.91,4.34a1.9,1.9,0,0,0,.34.45s.12,0,.08-.06-.24-.28-.35-.43-.1,0-.07,0Z"/><path class="cls-1" d="M19.78,4.28a1.25,1.25,0,0,0,.26.48s.11,0,.1,0-.22-.31-.29-.48-.08,0-.07,0Z"/><path class="cls-1" d="M20.63,4.27a2.36,2.36,0,0,0,.29.48s.12,0,.09-.07-.21-.3-.31-.45-.1,0-.07,0Z"/><path class="cls-1" d="M21.28,4.32a.87.87,0,0,0,.23.47.05.05,0,0,0,.09-.06,3.5,3.5,0,0,1-.24-.42,0,0,0,0,0-.08,0Z"/><path class="cls-1" d="M21.81,4.38A.81.81,0,0,0,22,4.8s.1,0,.07-.07l-.22-.38s-.08,0-.07,0Z"/><path class="cls-1" d="M22.45,4.42c.05.14.05.28.1.42a.06.06,0,0,0,.11,0,.83.83,0,0,0-.13-.43,0,0,0,0,0-.08,0Z"/><path class="cls-1" d="M22.93,4.48a1.34,1.34,0,0,0,0,.4.06.06,0,0,0,.11,0,1.79,1.79,0,0,0,0-.4,0,0,0,0,0-.08,0Z"/><path class="cls-1" d="M23.46,4.51a1.3,1.3,0,0,0-.11.43.06.06,0,0,0,.11,0,2.93,2.93,0,0,0,.07-.41s-.06-.07-.07,0Z"/><path class="cls-1" d="M24.17,4.55c-.07.14-.2.28-.2.43a.05.05,0,0,0,.1,0,1.75,1.75,0,0,0,.17-.43s0-.07-.07,0Z"/><path class="cls-1" d="M24.93,4.5c-.07.13-.16.24-.22.36s0,.11.09.07a.91.91,0,0,0,.2-.39s-.05-.08-.07,0Z"/><path class="cls-1" d="M17.22,5.94c-.17-.35-1.54-.29-1.82-.33-.8-.1-1.48-.05-2-.76-.22-.3-.37-.63-.62-.91a.09.09,0,0,0-.15.06,8.86,8.86,0,0,0,.44,2.55.06.06,0,1,0,.11,0c-.1-.41-.23-.83-.3-1.25,0-.2-.34-1.26.11-.76.28.31.37.71.73,1a3.81,3.81,0,0,0,1.53.31c.38,0,.75.11,1.13.14.14,0,.65,0,.76.09a0,0,0,0,0,.07-.06Z"/><path class="cls-1" d="M13.21,6.64a4.4,4.4,0,0,0,1.86.46c.4,0,.8.05,1.19.08a3.67,3.67,0,0,0,1,.07c.08,0,.05-.14,0-.14a13.72,13.72,0,0,1-4-.54c-.05,0-.07,0,0,.07Z"/><path class="cls-1" d="M25.05,6.29c1.43.1,2.87.14,4.31.15a2,2,0,0,0,2-1.07c.07-.1-.09-.19-.17-.09-.86,1.22-2,.93-3.25.9-1,0-1.95,0-2.91,0-.06,0-.06.1,0,.1Z"/><path class="cls-1" d="M23.92,7.35a24.15,24.15,0,0,0,3.3.37,8.94,8.94,0,0,0,2.58.07,2.77,2.77,0,0,0,1.56-2.56c0-.11-.18-.11-.18,0a3.1,3.1,0,0,1-.49,1.4c-.56,1-1.51,1-2.54,1-1.41-.07-2.81-.26-4.22-.35,0,0-.05.07,0,.07Z"/><path class="cls-1" d="M24.91,5.84a7.31,7.31,0,0,0,1.94.2,19.24,19.24,0,0,0,2.63,0c.51,0,1.52-.21,1.75-.76,0-.06-.08-.12-.12-.06-.68.78-1.92.65-2.85.64a16.07,16.07,0,0,1-3.33-.13c-.05,0-.07.06,0,.07Z"/><path class="cls-1" d="M12.79,3.94A10.48,10.48,0,0,0,14.1,5a4.85,4.85,0,0,0,2,.47c.1,0,.14-.14,0-.16A5.42,5.42,0,0,1,14.34,5a5.33,5.33,0,0,1-1.52-1.13,0,0,0,0,0-.08,0v0a0,0,0,0,0,.06,0Z"/><path class="cls-1" d="M13.1,4c-.12-.19-.3-.39-.41-.58s-.33-.07,0-.11.7.36.9.69.5.47.94.72a.07.07,0,0,0,.1-.1.33.33,0,0,1,0-.46c0-.22.09-.23.15,0s.14.25.19.34a.08.08,0,0,0,.13,0c.05.12.11.25.17.37s.05.13.1.09c.27-.2.51.07.25.21-.08,0,0,.14,0,.15h.74c.11,0,.11-.18,0-.17h-.5c-.12.1-.13.11,0,0s.26-.26.22-.18c.06-.1.13-.22.05-.34s-.17-.1-.28-.11a.59.59,0,0,0-.19,0l-.29.14c.06,0,.09,0,.1,0-.16-.24.07-.46-.29-.57-.17-.06-.07.09-.13.08s0,.14-.07,0-.05-.09-.08-.14-.16-.34-.36-.36a.08.08,0,0,0-.09,0c-.16.21,0,.41,0,.65,0,.56.11,0,0,.11-.42.33-.66-.51-.75-.69a1.09,1.09,0,0,0-1.34-.57.07.07,0,0,0,0,.13,3.19,3.19,0,0,1,.72.7s.08,0,.06,0Z"/><path class="cls-1" d="M26,5.54c.31.06.88.24,1.14,0s.07-.32.12-.48-.11-.22.09-.23l.5.42c.05,0,.12,0,.13-.07a1.31,1.31,0,0,1,0-.34c0-.4.06-.26,0,.4-.07.09.08.2.15.12.46-.57.63-.08.22.19-.11.07,0,.23.11.18s1.23-.36.76,0c-.09.07,0,.2.1.18a5.17,5.17,0,0,0,2.08-.65c.12-.08,0-.27-.11-.19a3.35,3.35,0,0,1-1.73.56c-.26,0,.22.18.08,0,0,0,.1-.24.07-.15a.1.1,0,0,0-.05-.12.62.62,0,0,0-.5-.16c-.42,0-.75.48-.39.25S29.18,5,29,4.8s-.64.08-.83.22.17,0,.18,0a1,1,0,0,0,.1-.42.57.57,0,0,0-.22-.49.1.1,0,0,0-.09,0c-.17.07-.16.09-.26.26s0,.34-.1.45a1.5,1.5,0,0,0,0,.2,4.88,4.88,0,0,0-.59-.52c-.05,0-.14,0-.14,0,0,.35.12.76-.4.94A2.46,2.46,0,0,1,26,5.43c-.07,0-.08.1,0,.11Z"/><path class="cls-1" d="M13.07,6.57c-.23,0-.15,0-.36.17-.57.35-1,.89-1.64,1.22a2.56,2.56,0,0,1-2.23.26c-.28-.11-.42-.29-.69-.31-.09,0-.09.11,0,.14.31.12.41.36.76.44a3,3,0,0,0,1.42,0,4.29,4.29,0,0,0,1.37-.72,11.3,11.3,0,0,1,1.41-1.09s0-.08,0-.07Z"/><path class="cls-1" d="M8.37,8c1.32,1.1,3.18.95,4.8,1a59.58,59.58,0,0,1,8.33.66c2.35.34,4.71.56,7.07.83a9,9,0,0,0,3,.19,3.8,3.8,0,0,0,1.49-1.18c.07-.09-.06-.22-.14-.13a2.68,2.68,0,0,1-2.41,1c-1.07-.08-2.13-.19-3.2-.3-2.26-.24-4.51-.48-6.76-.81a38.68,38.68,0,0,0-5.87-.52c-2,0-4.57.41-6.26-.81,0,0-.08,0-.05.06Z"/><path class="cls-1" d="M30.2,7.66a3.09,3.09,0,0,0,1.09,2.17c.28.28,1.08.69,1.34.18,0-.06,0-.16-.12-.11-.48.37-1-.18-1.33-.52a3.36,3.36,0,0,1-.89-1.72,0,0,0,0,0-.09,0Z"/><path class="cls-1" d="M8.25,7.82c-.26-.38,0,0,.34,0a3.05,3.05,0,0,0,1.24,0,15.24,15.24,0,0,0,3.36-1.35c.07,0,0-.14,0-.12-1.43.48-3.69,2.21-5.13,1a.06.06,0,0,0-.09.08,1.59,1.59,0,0,0,.27.37s.09,0,.06,0Z"/><path class="cls-1" d="M9.53,7.81c.51.09.69-.47.58-.89,0-.13-.31-.51.05-.3.13.08.18.27.32.34a.2.2,0,0,0,.31,0c.15-.18.07-.57,0-.77s0-.28-.07-.43-.17-.44.16-.22.2.17.19.41,0,.21,0,.32a.56.56,0,0,0,0,.31c.2.31.72-.17.85.32a.09.09,0,0,0,.17-.05c-.08-.27-.16-.36-.43-.4-.06,0-.13,0-.19,0-.34,0-.28-.19-.28-.41a2,2,0,0,0,0-.55c-.11-.57-.75-.7-.7,0,0,.29.12.58.14.88a.76.76,0,0,1,0,.3c-.12.18-.23.06-.33,0s-.15-.21-.28-.25-.26,0-.29.12.07.21.1.29c.14.36.18.89-.37.92,0,0,0,.07,0,.08Z"/><path class="cls-1" d="M32.75,9.78c-1,.28.16-2.94-.66-2.67-.19.06-.3.32-.33.5s.14.81.07.89-.29-.11-.26-.27a1.48,1.48,0,0,1,0-.21,2.06,2.06,0,0,0,0-.43.55.55,0,0,0-.24-.37.08.08,0,0,0-.12,0c-.26.44,0,.95-.15,1.38l.15,0c-.16-.13-.17-.73-.43-.73s-.19.49-.16.64l.15-.09c-.37-.3-.12-.92-.37-1.31a.08.08,0,0,0-.14.09c.19.41,0,1,.38,1.35.07,0,.18,0,.15-.09s-.06-.33,0-.31.07.23.08.26a.64.64,0,0,0,.2.31.09.09,0,0,0,.15,0,1.09,1.09,0,0,0,0-.51c0-.07,0-.72.13-.48s-.09.62,0,.87.27.31.44.22.13-.29.11-.44c0-.33-.12-.52.07-.82s.14-.16.15.05,0,.31,0,.46a10.9,10.9,0,0,0-.07,1.14c0,.39.17.94.67.71.05,0,0-.12,0-.1Z"/><path class="cls-1" d="M10.75,8.7c.34.12.84-.23,1.12-.37a8,8,0,0,0,2-1.4c.06-.06,0-.15-.09-.1A10.87,10.87,0,0,1,12.14,8c-.29.18-1,.68-1.37.6,0,0-.07.06,0,.07Z"/><path class="cls-1" d="M12.28,8.7c.16.06.25,0,.39-.09a7.91,7.91,0,0,0,.75-.54,4.65,4.65,0,0,0,1.05-1.16c0-.06-.05-.13-.1-.08a9,9,0,0,1-.81.93c-.18.16-.38.31-.58.46s-.49.4-.69.41a0,0,0,0,0,0,.07Z"/><path class="cls-1" d="M13.48,8.83a11.45,11.45,0,0,0,.94-.9,4.91,4.91,0,0,0,.43-.48,3.3,3.3,0,0,1,.3-.43.07.07,0,0,0-.08-.11.79.79,0,0,0-.23.28,4.55,4.55,0,0,1-.52.64,6.75,6.75,0,0,0-.9.95s0,.08.06.05Z"/><path class="cls-1" d="M14.39,8.77a5.28,5.28,0,0,0,.93-.84A6.22,6.22,0,0,0,16.14,7a.06.06,0,0,0-.1-.07,20.58,20.58,0,0,1-1.7,1.8s0,.08.05.06Z"/><path class="cls-1" d="M15.63,8.81a4.45,4.45,0,0,0,1.26-1.53c0-.06-.05-.13-.09-.07a15,15,0,0,1-1.22,1.54s0,.09.05.06Z"/><path class="cls-1" d="M16.64,9.06a8.16,8.16,0,0,0,.79-1,2,2,0,0,0,.49-.76.05.05,0,0,0-.1,0A20.81,20.81,0,0,1,16.58,9s0,.08.06.05Z"/><path class="cls-1" d="M17.72,9a8.92,8.92,0,0,0,.58-.88,4.78,4.78,0,0,1,.44-.8c0-.06,0-.1-.09-.07a2.48,2.48,0,0,0-.47.8c-.15.32-.4.59-.53.92,0,.05.05.07.07,0Z"/><path class="cls-1" d="M18.45,9c.15-.28.29-.56.46-.83a4.5,4.5,0,0,0,.43-.73c0-.07-.06-.09-.1,0-.19.25-.34.54-.5.8a2.9,2.9,0,0,0-.36.78s.05.07.07,0Z"/><path class="cls-1" d="M19.89,7.63a11.17,11.17,0,0,0-.65,1.56.07.07,0,1,0,.14,0c.18-.53.45-1,.59-1.58a0,0,0,0,0-.08,0Z"/><path class="cls-1" d="M20.55,7.65a1.53,1.53,0,0,1-.17.65,5.44,5.44,0,0,0-.25.9.07.07,0,0,0,.14,0,8,8,0,0,0,.31-1.09c0-.13.15-.41,0-.53s-.07,0-.07,0Z"/><path class="cls-1" d="M21.24,7.61A5.16,5.16,0,0,1,21,8.71c-.06.25-.25.65-.11.9a.07.07,0,0,0,.12,0c.09-.36.14-.75.23-1.11s.23-.64.08-.9a0,0,0,0,0-.07,0Z"/><path class="cls-1" d="M22,7.53a1.49,1.49,0,0,0-.18.81,7.15,7.15,0,0,0-.09,1.31.08.08,0,1,0,.15,0c0-.38.07-.78.09-1.16a3.71,3.71,0,0,1,.1-.94s-.05-.06-.07,0Z"/><path class="cls-1" d="M22.9,7.47a1.08,1.08,0,0,0-.13.75c0,.49,0,1,0,1.47a.08.08,0,1,0,.15,0,10.76,10.76,0,0,0,0-1.27,2.14,2.14,0,0,1,0-.91s0-.07-.06,0Z"/><path class="cls-1" d="M23.55,7.54a6.3,6.3,0,0,0,.32,2.24c0,.07.14.06.13,0-.08-.74-.31-1.46-.37-2.22,0,0-.08,0-.08,0Z"/><path class="cls-1" d="M24.1,7.25a5,5,0,0,0,.82,2.52.07.07,0,0,0,.13,0,11.88,11.88,0,0,1-.87-2.47s-.08,0-.08,0Z"/><path class="cls-1" d="M24.74,7.3a13.25,13.25,0,0,0,1.12,2.59A.07.07,0,0,0,26,9.82c-.37-.86-.82-1.67-1.17-2.54,0,0-.09,0-.07,0Z"/><path class="cls-1" d="M25.55,7.54a6,6,0,0,0,1.5,2.58c.07.06.14,0,.09-.11A11.47,11.47,0,0,1,25.61,7.5s-.09,0-.06,0Z"/><path class="cls-1" d="M26.41,7.56a8.53,8.53,0,0,0,1.77,2.58c.06,0,.17,0,.12-.1-.29-.41-.68-.74-1-1.16s-.54-.93-.85-1.35c0,0-.09,0-.07,0Z"/><path class="cls-1" d="M27.57,7.69A2.93,2.93,0,0,0,28.46,9a7,7,0,0,0,1.4,1.26.09.09,0,0,0,.11-.15c-.78-.72-1.91-1.44-2.31-2.46a0,0,0,0,0-.09,0Z"/><path class="cls-1" d="M29,7.82A15.16,15.16,0,0,0,30,9.88c.24.37.57.83,1,.9.08,0,.15-.11.06-.15-1.1-.47-1.36-1.92-1.93-2.85,0,0-.08,0-.07,0Z"/><path class="cls-1" d="M14.05,6.35c.18-.17.31-.17.39,0a.37.37,0,0,0,.13.15.34.34,0,0,0,.32.09c.34,0,.5-.32.84-.29s.27.17.5.32a.91.91,0,0,0,.17.09c.29,0,.41-.28.72-.22.07,0,.12-.09.05-.12a.36.36,0,0,0-.29,0c-.09,0-.17.15-.25.16-.72.13-.3-.14-.55-.29s-.24-.19-.44-.16-.29.24-.48.3c-.35.09-.59-.14-.83-.31a.54.54,0,0,0-.16-.1.38.38,0,0,0-.36,0c-.23.21,0,.36.21.42,0,0,.07-.06,0-.07Z"/><path class="cls-1" d="M25.16,7.06a15.76,15.76,0,0,0,1.67.07A7.08,7.08,0,0,0,28,7.3l.29-.1a1.4,1.4,0,0,1,1,0c-.07,0,.19.16.27.15.43-.08.29-.08.7-.41.09-.07,0-.19-.11-.14-.52.28-1,0-1.63.12L27.41,7a1.15,1.15,0,0,0-.27-.14c-.11,0-.22-.1-.33-.11-.29,0-.17,0-.3,0L25.76,7a1.47,1.47,0,0,0-.59,0c-.05,0-.07.08,0,.09Z"/><path class="cls-1" d="M8.42,8c1.25,2.18,3,1.64,5.29,1.73,3.17.11,6.39.48,9.54.89,1.5.19,3,.55,4.48.75a12.84,12.84,0,0,0,3.54.28c.78-.14,2.59-1.55,1.42-2.23a.07.07,0,1,0-.07.12c.57.4-.16,1.21-.48,1.45a2.81,2.81,0,0,1-2.23.41c-1-.09-2.07-.2-3.09-.39-1.94-.35-3.87-.67-5.83-.86s-4.15-.46-6.24-.58c-1-.06-1.94-.05-2.92,0A3.27,3.27,0,0,1,8.48,7.94a0,0,0,1,0-.06,0Z"/><path class="cls-1" d="M15.34,9.76a12.71,12.71,0,0,0,0,1.38c0,.26,0,.48.27.53s.47,0,.55-.21a1.67,1.67,0,0,0,0-.63,7,7,0,0,0-.09-.91.06.06,0,0,0-.11,0,4,4,0,0,0,0,1,1.7,1.7,0,0,1,0,.45.27.27,0,0,1-.5,0,4.06,4.06,0,0,1,0-.78,7.2,7.2,0,0,0-.07-.8,0,0,0,0,0-.09,0Z"/><path class="cls-1" d="M23.65,10.47c.14.52-.19,1.07,0,1.59.1.34.45.37.77.34s.33-.31.36-.61.16-.95-.12-1.22a.07.07,0,0,0-.11.07,2.34,2.34,0,0,1,.05.95,2.31,2.31,0,0,1,0,.37c-.05.26-.21.27-.45.25-.66-.05-.15-1.33-.37-1.77,0,0-.08,0-.07,0Z"/><path class="cls-1" d="M10.55,10.24c.07.47,0,.94.07,1.41a3.29,3.29,0,0,1,0,.83.07.07,0,0,0,.11.06c.18-.17.06-.6,0-.81a7.08,7.08,0,0,0-.17-1.52s-.08,0-.07,0Z"/><path class="cls-1" d="M10.71,10.66c.75.12,1.51.15,2.27.21s1.61.22,2.43.21a.07.07,0,0,0,0-.13c-1.56-.08-3.13-.27-4.69-.37a0,0,0,0,0,0,.08Z"/><path class="cls-1" d="M16.48,11a13.84,13.84,0,0,0,3.28.33c.65,0,1.3.11,1.95.19a5.09,5.09,0,0,1,2,.39c.07.05.14-.05.08-.11-.44-.5-1.71-.42-2.32-.49a48.06,48.06,0,0,1-5-.41c-.07,0-.1.08,0,.1Z"/><path class="cls-1" d="M24.93,12.05a4.7,4.7,0,0,0,2.19.44c1.08.1,2.17.14,3.25.25s1.78.1,1.65-1.33c0-.1-.16-.1-.16,0,.07,1.59-2.11,1.11-3.12,1A13.58,13.58,0,0,1,25,12s-.08,0,0,.07Z"/><path class="cls-1" d="M13.78,19.73a1.23,1.23,0,0,0-.22,1.53,2.68,2.68,0,0,0,2,1,1.87,1.87,0,0,0,1.73-.78c.23-.37.41-1.08,0-1.4-.1-.09-.25.06-.14.15.38.31,0,1.08-.21,1.36a1.9,1.9,0,0,1-1.4.5c-1.05,0-2.73-1.09-1.75-2.26a0,0,0,1,0-.05-.06Z"/><path class="cls-1" d="M13.76,19.75a2.65,2.65,0,0,0,1.57.53,3.51,3.51,0,0,0,1.82-.16.08.08,0,0,0,0-.08h0A.1.1,0,0,0,17.1,20a5.15,5.15,0,0,1-3.29-.28s-.08,0-.05.06Z"/><path class="cls-1" d="M13.82,19.73c-.07-.31.71,0,.78,0a3.36,3.36,0,0,0,.7.09c.28,0,1.81-.19,1.85.2,0,.08.14.12.15,0,.09-.58-.53-.4-.92-.39a8.3,8.3,0,0,1-1.8-.09,1.82,1.82,0,0,0-.86-.12.06.06,0,0,0-.05.06c0,.18,0,.14.06.29s.1,0,.09,0Z"/><path class="cls-1" d="M15.86,22.26a.29.29,0,0,1,0,.3c0,.09-.07.18-.09.27,0,.24.14.37.36.29s.6-.86.29-1.15a.11.11,0,0,0-.12,0,.1.1,0,0,0,0,.14,1.05,1.05,0,0,1,.07.11.29.29,0,0,1,0,.16c0,.2-.07.5-.29.57s-.08-.12,0-.19a1.71,1.71,0,0,0,.09-.3c0-.11,0-.32-.19-.26a.05.05,0,0,0,0,.08Z"/><path class="cls-1" d="M13.75,21.49c0,.18,0,.37,0,.56a.92.92,0,0,0,0,.29.36.36,0,0,0,.38.28c.33-.07.21-.65.13-.86s-.24-.07-.19,0,.17.64,0,.62S14,22.1,13.94,22a1.41,1.41,0,0,0-.12-.51,0,0,0,0,0-.07,0Z"/><path class="cls-1" d="M17.34,21.2c-.1.25.11.68-.14.87s-.13-.06-.15-.16a.81.81,0,0,0-.05-.27.1.1,0,0,0-.18.05c0,.21.05.72.38.61s.3-.78.21-1.1a0,0,0,0,0-.07,0Z"/><path class="cls-1" d="M17.54,21.12c.31,0,.56-.4.57-.68a.49.49,0,0,0-.16-.38c-.07-.06-.18-.08-.23-.14a.37.37,0,0,1,0-.34s.13-.07.16-.09.08-.12,0-.16a.5.5,0,0,0-.77.58.09.09,0,0,0,.16,0c0-.16,0-.24.12-.35a.27.27,0,0,1,.34,0,1,1,0,0,0,0-.17c-.23.13-.56.32-.36.63.09.13.25.16.36.25.35.28,0,.65-.26.82,0,0,0,.11,0,.11Z"/><path class="cls-1" d="M13.38,20.71c-.33,0-.3-.52-.22-.71s.21-.35.14-.53a.24.24,0,0,0-.09-.13c-.08-.09-.2-.17,0-.06s.48.28.41.51a.07.07,0,0,0,.1.09c.57-.31-.88-1.17-.83-.67a.35.35,0,0,0,.08.13s.08.06.1.1a.35.35,0,0,1,0,.4.85.85,0,0,0-.12.47c0,.2.2.68.47.49a0,0,0,0,0,0-.09Z"/><path class="cls-1" d="M14,19.43h0s0,.08.08.06.08-.32.07-.41a2.11,2.11,0,0,1,0-.71c0-.07-.08-.11-.12-.05a.87.87,0,0,0-.08.5c0,.1,0,.2,0,.29a.81.81,0,0,1,0,.31l.07,0,0,0s-.07,0-.06.06Z"/><path class="cls-1" d="M14.35,19.55a.68.68,0,0,0,.11-.5,3.28,3.28,0,0,1,0-.7c0-.08-.11-.08-.13,0a1.13,1.13,0,0,0,0,.55,1.67,1.67,0,0,1,0,.63s0,.07.06,0Z"/><path class="cls-1" d="M16.72,18.29a4.1,4.1,0,0,0,.06,1.21.07.07,0,0,0,.11.05h0s0,0,0-.07v0a.06.06,0,0,0-.09-.05h.05a.36.36,0,0,1,0,.09,5.53,5.53,0,0,0-.13-1.21c0-.05-.07-.05-.08,0Z"/><path class="cls-1" d="M17,18.22a10.59,10.59,0,0,1,0,1.26c0,.05,0,.07.09.07s.12-.31.1-.43a4.53,4.53,0,0,0-.1-.91s-.09,0-.08,0Z"/><path class="cls-1" d="M13.68,18.19c.33,0,.54.28.83.35a6.31,6.31,0,0,0,1.06,0,4.48,4.48,0,0,0,.89.09c.36-.09.6-.33,1-.33l-.06-.19,0,0a.09.09,0,0,0,0,.15h.05c.12.05.18-.17,0-.19a1,1,0,0,0-.56.08,3.32,3.32,0,0,1-1.36.15,5.07,5.07,0,0,0-.55,0,1.94,1.94,0,0,1-.88-.16c-.19-.06-.28-.13-.48-.07s0,.11,0,.1Z"/><path class="cls-1" d="M13.71,18.16a1.56,1.56,0,0,1,.42-.08c.11,0,.25,0,.32,0s0,0,.05-.06a0,0,0,0,0,0,0s0-.05-.05-.06a.86.86,0,0,0-.39,0,1.14,1.14,0,0,0-.41.12c-.08,0,0,.15.07.11Z"/><path class="cls-1" d="M14.41,18.05a1.79,1.79,0,0,0,1.16.22,2.48,2.48,0,0,0,.61-.07c.15,0,.28-.11.43-.14h.75a.08.08,0,0,0,.05.11h0c.06,0,.13,0,.12-.09,0-.26-.55-.29-.74-.28-.42.05-.79.27-1.24.29A2.85,2.85,0,0,1,14.45,18c-.06,0-.08.06,0,.09Z"/><path class="cls-1" d="M14.63,18a.67.67,0,0,0,0-.37c0-.1-.16-.06-.16,0a1.61,1.61,0,0,0,0,.31.07.07,0,0,0,.13,0Z"/><path class="cls-1" d="M16.77,17.79a.54.54,0,0,0-.09-.34s-.12,0-.11,0a.79.79,0,0,0,.06.34c0,.06.15,0,.14,0Z"/><path class="cls-1" d="M14.45,17.64c.37.06.7.34,1.1.29s.93-.43,1.46-.48c0-.05,0-.11,0-.17l-.08,0a.08.08,0,0,0,0,.13H17c.12,0,.13-.19,0-.18a3.91,3.91,0,0,0-1.2.38c-.53.22-.84-.13-1.35-.09,0,0-.06.07,0,.08Z"/><path class="cls-1" d="M14.42,17.6c.22-.16.48-.21.7-.37a1.54,1.54,0,0,0,.46-.58l-.13,0c.26.19.38.49.7.61a1.22,1.22,0,0,0,.75.07.1.1,0,1,0-.06-.2,1.19,1.19,0,0,1-.89-.25,3.78,3.78,0,0,0-.4-.4.11.11,0,0,0-.14,0,1.59,1.59,0,0,1-.75.72.55.55,0,0,0-.3.28s0,.08.06.05Z"/><path class="cls-1" d="M15.5,16.85a1.82,1.82,0,0,1,0,.77c0,.1-.12.37.07.35s.15-.47.15-.59,0-.48-.13-.57-.06,0-.05,0Z"/><path class="cls-1" d="M14.71,17.44c-.18-.05-.25-.18-.34-.34s-.15,0-.14,0c0,.24.15.53.43.5a.07.07,0,0,0,0-.14.41.41,0,0,1-.3-.36l-.14,0c.1.16.24.42.47.33a0,0,0,0,0,0-.07Z"/><path class="cls-1" d="M16.59,17.36c.24.13.32-.17.47-.27L16.93,17a.48.48,0,0,1-.11.37.08.08,0,0,0,.05.13c.26,0,.25-.32.23-.5a.08.08,0,0,0-.13-.07c-.1.08-.2.37-.35.35s-.07.05,0,.07Z"/><path class="cls-1" d="M15.52,16.66c-.06,0-.12-.13,0-.18s.11,0,.13.07,0,.1,0,.14l.13.08v0c0-.05,0-.12-.07-.1l-.06,0a.08.08,0,0,0,.08.14c.27-.14,0-.6-.23-.48s-.1.51.1.39c0,0,0-.06,0-.07Z"/><path class="cls-1" d="M15.72,16.8c.26.07.25-.26.29-.41l-.16,0c.05.07.09.33,0,.41s-.08,0-.1.06.05.13.11.14c.33.05.24-.57.11-.72a.09.09,0,0,0-.14,0c0,.12,0,.31-.12.36a.06.06,0,0,0,0,.1Z"/><path class="cls-1" d="M15.39,16.64c-.16,0-.19-.11-.16-.24s-.11-.15-.16-.06a.6.6,0,0,0,.12.66.07.07,0,0,0,.12-.05c0-.19-.18-.33-.09-.53l-.16,0c0,.22.12.49.36.33,0,0,0-.08,0-.07Z"/><path class="cls-1" d="M15.36,18.94c0,.22,0,.45.05.67a.09.09,0,0,0,.18,0,2.05,2.05,0,0,0-.11-.7.06.06,0,0,0-.12,0Z"/><path class="cls-1" d="M14.22,22.47a2.06,2.06,0,0,0,.92.43c.18.05.51.17.64,0a.08.08,0,0,0-.06-.11,2.9,2.9,0,0,1-1.44-.36s-.1,0-.06.08Z"/><path class="cls-1" d="M16.44,22.88a3.54,3.54,0,0,0,.47-.26c.1-.08.27-.21.23-.35a.07.07,0,0,0-.1,0,.55.55,0,0,0-.12.14,1.29,1.29,0,0,1-.17.16,3.17,3.17,0,0,0-.35.29s0,.08,0,.06Z"/><path class="cls-1" d="M14,22.45c-.51.83,1.25,1.14,1.74,1.13.72,0,2.14-.52,1.73-1.48,0-.06-.13,0-.13,0,.14,1.73-3.45,1.49-3.27.34,0,0-.05-.07-.07,0Z"/><path class="cls-1" d="M14.38,22.3c0-.21.4-.12.5-.26s0-.09,0-.1a.9.9,0,0,0-.39.1.24.24,0,0,0-.15.27c0,.05.07,0,.07,0Z"/><path class="cls-1" d="M15.19,11c0,1.38,0,2.76,0,4.13a.08.08,0,1,0,.16,0s0,0,0-.06a.06.06,0,0,0-.12,0,.52.52,0,0,0,.14-.55v-.32c0-.37,0-.74,0-1.11,0-.69,0-1.38-.07-2.07,0,0-.08,0-.08,0Z"/><path class="cls-1" d="M15.37,11.45a1.28,1.28,0,0,0,.29,1.12,2.54,2.54,0,0,0,.63.44,1.36,1.36,0,0,1,.5.61c0,.12.25.76-.1.7-.06,0-.12.09-.05.13.44.2.44-.43.37-.71-.24-1-1.78-1.12-1.56-2.27a0,0,0,0,0-.08,0Z"/><path class="cls-1" d="M15.3,12.43a4.15,4.15,0,0,0,.73.72,1.58,1.58,0,0,1,.4.52,1.51,1.51,0,0,1,0,.6s.12.13,0,.07a.06.06,0,0,0-.09.07v0a.08.08,0,0,0,.13,0c.1-.08.09-.35.09-.47a1.1,1.1,0,0,0-.2-.63c-.3-.4-.77-.61-1.08-1,0,0-.09,0-.06,0Z"/><path class="cls-1" d="M16.56,11.16c.1.67,0,1.35.08,2a.06.06,0,1,0,.12,0,6.08,6.08,0,0,0-.13-2c0-.05-.08,0-.07,0Z"/><path class="cls-1" d="M16.77,14.51c.05,0,0,.12,0,.2a1.7,1.7,0,0,0,0,.39,6,6,0,0,1,0,.85c0,.07.09.08.13,0,.17-.22.08-.58.05-.83a2.85,2.85,0,0,1,0-.5c0-.09.05-.14,0-.21a0,0,0,0,0-.05,0h0s-.05.06,0,.08Z"/><path class="cls-1" d="M15.69,16c.14.36.67.45,1,.39a.06.06,0,0,0,0-.12c-.29,0-.78,0-.92-.3,0,0-.09,0-.07,0Z"/><path class="cls-1" d="M23.41,11.78a50,50,0,0,0,0,5.61.09.09,0,0,0,.17,0v-.07a.07.07,0,0,0-.12,0c.34-.57.11-1.9.11-2.58,0-1,0-1.95-.07-2.92a0,0,0,0,0-.08,0Z"/><path class="cls-1" d="M24.36,12.33a3.35,3.35,0,0,1-.32,1.5c-.19.33-.5.57-.69.9,0,.06,0,.12.09.07a4.13,4.13,0,0,0,.83-1.12,3.25,3.25,0,0,0,.17-1.35,0,0,0,0,0-.08,0Z"/><path class="cls-1" d="M24.78,12.41c.14,1.08-.6,1.79-1.32,2.46-.05.05,0,.14.08.1a2.57,2.57,0,0,0,1.32-2.57s-.08,0-.08,0Z"/><path class="cls-1" d="M24.86,12.62c0,1.12,0,2.23,0,3.34a5.71,5.71,0,0,1,0,1.6.08.08,0,0,0,.13.07c.28-.27.1-.95.09-1.29,0-1.24-.05-2.48-.08-3.72a0,0,0,0,0-.08,0Z"/><path class="cls-1" d="M23.54,15.34a1.82,1.82,0,0,0,.38,1.05c.21.26.78.68.63,1.07,0,.05.05.1.1.07.26-.15,0-.52-.11-.69-.38-.5-.85-.81-.91-1.5,0-.05-.09-.05-.09,0Z"/><path class="cls-1" d="M23.58,16.52c.25.45.91.67.81,1.25,0,.08.07.11.12.05.37-.48-.65-1-.87-1.34a0,0,0,1,0-.06,0Z"/><path class="cls-1" d="M23.47,17.44c-.06.37.18.59.54.63s.88-.08,1-.41c0-.08-.07-.15-.13-.11a1.94,1.94,0,0,1-.29.21,1.08,1.08,0,0,1-.4.11c-.31,0-.63-.06-.63-.42,0,0-.07-.06-.07,0Z"/><path class="cls-1" d="M17,16.74a1.5,1.5,0,0,1,0,.3,1.4,1.4,0,0,1-.09.29.05.05,0,0,0,.09.05c.16-.14.11-.47.08-.65a0,0,0,0,0-.08,0Z"/><path class="cls-1" d="M18.35,16.43c1.53.24,3,.44,4.57.62.09,0,.11-.14,0-.15-1.51-.22-3.07-.39-4.59-.55,0,0-.05.07,0,.08Z"/><path class="cls-1" d="M17.76,16.14a6.67,6.67,0,0,0,2.51.52c1.11.14,2.24.33,3.34.42.1,0,.1-.15,0-.16-.81-.06-1.65-.22-2.46-.31a11.4,11.4,0,0,1-3.35-.54,0,0,0,0,0,0,.07Z"/><path class="cls-1" d="M18,11.12c0,.9,0,1.79,0,2.69a6.78,6.78,0,0,0,.12,2.55.07.07,0,0,0-.12,0v.1a.09.09,0,0,0,.17,0c-.11-1.78,0-3.58-.1-5.37a0,0,0,0,0-.08,0Z"/><path class="cls-1" d="M17.07,16.13a.87.87,0,0,0,.56.2,2.84,2.84,0,0,1,.82.16c.07,0,.11-.07.07-.12-.33-.34-1-.12-1.4-.3,0,0-.08,0-.05.06Z"/><path class="cls-1" d="M22.1,11.58a16.1,16.1,0,0,1,0,2.69,14.84,14.84,0,0,1,0,2.31c0,.1.13.15.16.05a11,11,0,0,0,0-2.36,9.8,9.8,0,0,0-.1-2.71c0-.05-.08,0-.07,0Z"/><path class="cls-1" d="M18,15.19a5.32,5.32,0,0,0,1.95.25,15.86,15.86,0,0,0,2,.21.07.07,0,0,0,0-.14c-.6,0-1.2-.18-1.8-.21a13.15,13.15,0,0,1-2.17-.18,0,0,0,1,0,0,.07Z"/><path class="cls-1" d="M18.31,14.82c.59.07,1.17.21,1.76.28s1.34,0,2,.15c.09,0,.13-.12,0-.13-.58-.12-1.18,0-1.76-.11a15.66,15.66,0,0,0-2-.26,0,0,0,1,0,0,.07Z"/><path class="cls-1" d="M24.75,17a6.29,6.29,0,0,0,2.36.52c1.31.14,2.67.25,4,.46.08,0,.12-.11,0-.13-2-.32-4.47-.12-6.33-.92-.05,0-.08.05,0,.07Z"/><path class="cls-1" d="M31,12.91a3,3,0,0,1,0,1.26A3.52,3.52,0,0,0,31,15.42c0,.09.15,0,.11-.05h0a.06.06,0,0,0-.1,0h0l.12.05a3.16,3.16,0,0,0,0-.69c0-.27,0-.54.05-.81s.12-.86-.1-1.06c0,0-.07,0-.06.05Z"/><path class="cls-1" d="M31.27,13.1c0,.72-.05,1.46,0,2.19,0,.08.13.08.13,0a20,20,0,0,0,0-2.19,0,0,0,0,0-.08,0Z"/><path class="cls-1" d="M31.27,13.27a9.34,9.34,0,0,1,2.82.26,18.75,18.75,0,0,1,3.26.51.07.07,0,1,0,0-.14,14.29,14.29,0,0,0-3.51-.56c-.74-.08-1.92-.47-2.64-.14,0,0,0,.08,0,.07Z"/><path class="cls-1" d="M31.2,15.46a14.22,14.22,0,0,1,3.08.36,29.61,29.61,0,0,1,3.63.39c.09,0,.14-.13,0-.15a28.24,28.24,0,0,0-3.44-.36,11.67,11.67,0,0,0-3.32-.32s0,.08,0,.08Z"/><path class="cls-1" d="M33.2,13.36c0,.35,0,.7,0,1a4.3,4.3,0,0,0,0,.88c0,.06.11.06.12,0a3.24,3.24,0,0,0,0-.88c0-.35,0-.69-.1-1,0,0-.08,0-.07,0Z"/><path class="cls-1" d="M33.7,13.37a19.78,19.78,0,0,1-.13,2.18c0,.09.15.12.17,0a8.81,8.81,0,0,0,.13-1.27,2.08,2.08,0,0,0-.1-1s-.08,0-.07,0Z"/><path class="cls-1" d="M36.73,13.67a6.9,6.9,0,0,0,0,1,3.56,3.56,0,0,0,0,1,.07.07,0,0,0,.13,0,3.57,3.57,0,0,0,0-1,6.9,6.9,0,0,0-.06-1s-.06,0-.07,0Z"/><path class="cls-1" d="M37,13.7c0,.41,0,.81,0,1.21a7.1,7.1,0,0,0,0,1,.07.07,0,0,0,.14,0,12,12,0,0,0,0-2.24,0,0,0,0,0-.08,0Z"/><path class="cls-1" d="M37,13.93a11.07,11.07,0,0,1,1.38.24,6.32,6.32,0,0,1,1.3.23c.36.15.33.27.32.62a1.6,1.6,0,0,1-.12.87s0,.11.08.08c.21-.12.2-.44.21-.66s.11-.75,0-.94-.9-.24-1.19-.28a8.23,8.23,0,0,0-2-.24c-.05,0-.05.08,0,.08Z"/><path class="cls-1" d="M37.77,16c.56,0,1.09.22,1.65.3a1.91,1.91,0,0,0,.89,0,.09.09,0,0,0,0-.16h0c-.06,0-.1,0-.1.1v0l.11-.11c-.42-.06-.85,0-1.28-.11a3.3,3.3,0,0,0-1.25-.1s0,.08,0,.08Z"/><path class="cls-1" d="M33.34,13.31h0a.07.07,0,0,0,0-.06c-.08-.2.17-.43.35-.27s-.05.31-.12.42a.08.08,0,0,0,.09.12.41.41,0,0,0,.24-.36.33.33,0,0,0-.19-.34.36.36,0,0,0-.48.47.05.05,0,0,0,.07,0Z"/><path class="cls-1" d="M36.78,13.77a.35.35,0,0,1,.06-.26c0-.07.16-.09.18,0s-.14.27-.21.38a.08.08,0,0,0,0,.12c.16,0,.26-.14.31-.27a.36.36,0,0,0,0-.41c-.28-.24-.55.22-.4.46a0,0,0,0,0,.07,0Z"/><path class="cls-1" d="M39.7,14.26c0-.1.18-.37.33-.23s-.08.29-.15.39a.07.07,0,0,0,.07.12.38.38,0,0,0,.2-.64c-.25-.22-.52.07-.57.32a.06.06,0,0,0,.12,0Z"/><path class="cls-1" d="M33.75,19.13a1.52,1.52,0,0,1,2.3-1.54,1.4,1.4,0,0,1,.35,2.05.07.07,0,0,0,.07.11c1.06-.34.17-2.05-.47-2.37a1.55,1.55,0,0,0-1.7.12,1.62,1.62,0,0,0-.63,1.65c0,.05.08,0,.08,0Z"/><path class="cls-1" d="M31.22,15.43a7.46,7.46,0,0,0-.1,1.77A10.18,10.18,0,0,0,31,19.11a.09.09,0,0,0,.09.06c.72.08,1.44.26,2.17.34.24,0,.7.15.91,0a.08.08,0,0,0,0-.07v0a.06.06,0,0,0-.12,0c-.06.21-2.74-.39-2.68-.34-.38-.34-.16-1.07-.14-1.58a14.82,14.82,0,0,1,0-2c0-.05-.06-.07-.07,0Z"/><path class="cls-1" d="M36.32,19.84a13.42,13.42,0,0,0,3.21.33c.09,0,.12-.14,0-.16a7.26,7.26,0,0,0-1.47-.15,11.68,11.68,0,0,0-1.77-.1s0,.07,0,.08Z"/><path class="cls-1" d="M40.16,15.86c-.24,1.05-.17,2.15-.32,3.22,0,.14-.27.84-.05.91a.11.11,0,0,0,.11,0c.23-.29.18-.87.22-1.21.09-1,0-1.93.11-2.88,0,0-.06,0-.07,0Z"/><path class="cls-1" d="M32.76,10.76c1.45.06,3.76-.07,5,.66s1.6,2.17,2.57,3.13c.07.07.17,0,.1-.11-.92-1-1.41-2.72-2.71-3.34A5.26,5.26,0,0,0,36,10.87c-1.09-.08-2.15-.19-3.24-.18a0,0,0,1,0,0,.07Z"/><path class="cls-1" d="M25.63,13.05c0,1.37.08,2.74.05,4.11l.18,0s0-.05,0-.08a.07.07,0,0,0-.14,0s0,.05,0,.08a.09.09,0,1,0,.17,0c.06-1.37-.1-2.74-.15-4.11,0-.05-.08-.06-.08,0Z"/><path class="cls-1" d="M25.63,12.35a3.26,3.26,0,0,0,0,.7.06.06,0,0,0,.11,0,3.26,3.26,0,0,0,0-.7s-.06,0-.07,0Z"/><path class="cls-1" d="M29.35,12.94c-.05.81-.06,1.62-.08,2.42,0,.55-.24,1.86.11,2.3a.07.07,0,0,0-.12.05v.07a.1.1,0,0,0,.2,0c0-1.6.05-3.23,0-4.84a0,0,0,1,0-.07,0Z"/><path class="cls-1" d="M25.69,15.67c1.17.13,2.4.15,3.55.39.06,0,.11-.08,0-.11a4.46,4.46,0,0,0-1.37-.21,13.73,13.73,0,0,0-2.22-.15c-.05,0-.05.07,0,.08Z"/><path class="cls-1" d="M25.79,15.9a4.79,4.79,0,0,0,1.73.17c.64,0,1.26.14,1.89.12a.06.06,0,1,0,0-.12c-.56-.05-1.12-.12-1.69-.14a10.2,10.2,0,0,1-1.91-.1s-.07.06,0,.07Z"/><path class="cls-1" d="M17.69,19.2a24.94,24.94,0,0,0,4.63.73c1.94.21,3.85.55,5.79.73s3.69.31,5.53.48c1,.1,2,.25,3,.37.35,0,1.8.36,2.07.07-.07.08.05.2.12.12l0,0s0-.14,0-.15c-3.31-.47-6.67-.66-10-.95-1.89-.17-3.76-.42-5.64-.68a46.55,46.55,0,0,1-5.53-.77c-.06,0-.08.07,0,.08Z"/><path class="cls-1" d="M18.88,20.15c1.67.4,3.47.45,5.17.71s3.21.47,4.82.65A84.21,84.21,0,0,1,39.25,23a.08.08,0,0,0,0-.16,45.28,45.28,0,0,0-4.54-.78c-1.61-.27-3.24-.41-4.86-.58-1.85-.19-3.7-.44-5.55-.7s-3.66-.37-5.44-.7c0,0-.08.07,0,.08Z"/><path class="cls-1" d="M18.32,21.23a12.73,12.73,0,0,0,3.7.6c1.85.23,3.7.4,5.55.57s3.65.39,5.48.56,3.48.49,5.22.6c.1,0,.1-.14,0-.15-3.31-.29-6.63-.75-10-1.09-1.68-.17-3.36-.3-5-.48-1.52-.17-3.51-.11-4.93-.68,0,0-.07.05,0,.07Z"/><path class="cls-1" d="M18,22.37c3.42.44,6.84.74,10.26,1.08,1.6.16,3.19.35,4.79.48s3.27.56,4.89.54c.08,0,.08-.12,0-.13-3.22-.29-6.45-.74-9.68-1.06L18,22.29s0,.07,0,.08Z"/><path class="cls-1" d="M10.76,12.2c0,.47,0,1,0,1.42a5.63,5.63,0,0,1,0,1.3c0,.1.13.15.16.05a3.63,3.63,0,0,0,0-1.14c0-.54,0-1.09,0-1.63,0,0-.08,0-.08,0Z"/><path class="cls-1" d="M10.75,15.22a6.61,6.61,0,0,0,1.93.44,18.74,18.74,0,0,0,2.23.33c.08,0,.1-.13,0-.14a25.17,25.17,0,0,1-4.15-.71,0,0,0,0,0,0,.08Z"/><path class="cls-1" d="M12.05,10.88c0,1,0,2,0,3.06,0,.39-.17,1.21.1,1.52a.06.06,0,0,0,.11,0c0-1.51-.07-3-.13-4.54a0,0,0,0,0-.08,0Z"/><path class="cls-1" d="M12.15,14.31c.89.16,1.8.16,2.69.29a.06.06,0,0,0,.05-.1,2.21,2.21,0,0,0-1-.16c-.57,0-1.13-.11-1.7-.13-.06,0-.07.09,0,.1Z"/><path class="cls-1" d="M12.34,14.48a8.18,8.18,0,0,0,1.45.32,4.5,4.5,0,0,1,1.37.2c.07,0,.15-.05.09-.1a1.59,1.59,0,0,0-1-.23,17.55,17.55,0,0,1-1.91-.27s-.07.07,0,.08Z"/><path class="cls-1" d="M1.06,16.56a22.07,22.07,0,0,0,2.3.2,25.59,25.59,0,0,1,3.69.72c2.14.52,4.33.83,6.5,1.22a.07.07,0,0,0,0-.13c-2.15-.46-4.35-.72-6.49-1.23-.93-.22-1.85-.47-2.8-.6s-2.16-.06-3.21-.25c-.05,0-.07.06,0,.07Z"/><path class="cls-1" d="M1.18,17.35A3.58,3.58,0,0,0,3,17.64a36.64,36.64,0,0,1,3.76.71c1.17.22,2.34.43,3.51.61a26.05,26.05,0,0,1,3.21.37c.08,0,.11-.1,0-.12a16.33,16.33,0,0,0-2.71-.34c-1.17-.16-2.34-.36-3.5-.58S5,17.82,3.9,17.64c-.8-.13-2,.06-2.68-.36a0,0,0,0,0,0,.07Z"/><path class="cls-1" d="M0,18.4v.07s0,0,0,0c2.18.71,4.63.65,6.89,1,2.08.3,4.19.4,6.23.9a.06.06,0,0,0,0-.12A46.9,46.9,0,0,0,7,19.36c-.88-.13-6.87-.47-6.87-1a0,0,0,0,0-.08,0Z"/><path class="cls-1" d="M5.49,20.52c2.53.54,5.35.28,7.8,1.15.07,0,.09-.09,0-.11-2.41-.93-5.3-.64-7.81-1.12,0,0-.07.07,0,.08Z"/><path class="cls-1" d="M5.9,15.11a1.45,1.45,0,0,1,.15-1.67,1.24,1.24,0,0,1,1.39,0,1.6,1.6,0,0,1,.78,2.25c-.06.09.08.18.15.09a1.82,1.82,0,0,0-1.3-2.64,1.11,1.11,0,0,0-1.29.47,1.43,1.43,0,0,0,.06,1.6s.08,0,.06-.05Z"/><path class="cls-1" d="M8,15.8c.58.06,1.14.17,1.71.27a1,1,0,0,0,.81-.06.1.1,0,0,0-.07-.18l-.07,0a.07.07,0,0,0,0,.14l.07,0a1.1,1.1,0,0,1,0-.18c-.31.21-.76,0-1.09,0A5.47,5.47,0,0,0,8,15.72a0,0,0,0,0,0,.08Z"/><path class="cls-1" d="M10.6,15.74a.31.31,0,0,1,0,.08c0,.08.08.1.11,0a1.73,1.73,0,0,0,0-.68.07.07,0,0,0-.14,0,.66.66,0,0,0,0,.28.05.05,0,0,0,.1,0,.85.85,0,0,1,0-.23l-.14,0a2.81,2.81,0,0,1,0,.65h.1l-.05-.09s-.08,0-.07,0Z"/><path class="cls-1" d="M10.66,15.65l0,0h.08v0a.05.05,0,1,0-.09.05l0,0s.08,0,.09,0v0s0,0-.07,0Z"/><path class="cls-1" d="M10.28,12.55c0,1.11,0,2.23,0,3.34,0,.1.16.1.16,0,0-1.11-.09-2.23-.12-3.34a0,0,0,1,0-.08,0Z"/><path class="cls-1" d="M3.18,12c1.21.16,2.45.07,3.67.19s2.46.34,3.69.55c.08,0,.12-.12,0-.13A61.32,61.32,0,0,0,3.18,12c-.06,0-.05.07,0,.08Z"/><path class="cls-1" d="M10,11a3.74,3.74,0,0,0,0,.75l0,.41c0,.05,0,.11,0,.17s0,.09,0,.05,0,.12.06.1.11-.4.1-.55c0-.31-.12-.62-.16-.93A0,0,0,1,0,10,11Z"/><path class="cls-1" d="M10.1,10.79c0,.26.1.51.14.77s.14.71-.07.92c-.05,0,0,.12.08.09.24-.13.19-.5.16-.73a10.22,10.22,0,0,0-.23-1.07,0,0,0,0,0-.08,0Z"/><path class="cls-1" d="M3.2,10.61a26.72,26.72,0,0,1,3.34.29,16.05,16.05,0,0,1,3.74.39c.07,0,.11-.09.05-.12a10.11,10.11,0,0,0-3.06-.37,20.74,20.74,0,0,0-4.07-.27s-.05.08,0,.08Z"/><path class="cls-1" d="M7.47,10.34a1,1,0,0,0,0,.6A9.47,9.47,0,0,1,7.56,12a.08.08,0,0,0,.15,0,.49.49,0,0,0,.06-.17c0-.07-.08-.11-.11,0L7.57,12l.15,0a5.78,5.78,0,0,0,0-.83,2.85,2.85,0,0,1-.13-.81s-.06-.06-.07,0Z"/><path class="cls-1" d="M7.86,10.7c0,.18.09,1.27-.11,1.31a.06.06,0,0,0,0,.12c.43.09.2-1.22.18-1.43a0,0,0,1,0-.07,0Z"/><path class="cls-1" d="M7.52,10.56c-.08,0-.08,0-.06-.1a.18.18,0,0,1,.19-.11c.08,0,.17.06.13.15s-.11.08-.17.08a.07.07,0,0,0,0,.12.25.25,0,0,0,.36-.18c0-.18-.13-.3-.3-.3a.29.29,0,0,0-.29.27c0,.13.09.19.21.14s0-.09,0-.07Z"/><path class="cls-1" d="M4,10.49A.69.69,0,0,0,4,11a5.09,5.09,0,0,0,.06.87c0,.08.14.06.15,0l0-.17a.06.06,0,0,0-.12,0,1.39,1.39,0,0,0-.06.19h.15c0-.22,0-.45,0-.68s-.15-.45-.06-.65c0,0,0-.07-.07,0Z"/><path class="cls-1" d="M4.3,10.71a3.46,3.46,0,0,1,0,.56c0,.11,0,.52-.13.56a.06.06,0,0,0,0,.11c.43.11.23-1.06.19-1.25a0,0,0,0,0-.08,0Z"/><path class="cls-1" d="M4.06,10.35c0-.18.22-.18.3-.07a.17.17,0,0,1,0,.19c0,.07-.09.07-.17,0s-.1.06-.05.1c.25.21.49-.19.32-.41s-.58-.13-.48.17c0,0,.09,0,.08,0Z"/><path class="cls-1" d="M2.81,10.5c-.18,0-.54-.14-.68,0s0,.26,0,.35a8.14,8.14,0,0,0,0,1,.08.08,0,0,0,.12.07,2.08,2.08,0,0,1,.86-.1,4.57,4.57,0,0,1,1,.07.06.06,0,0,0,0-.12A3.06,3.06,0,0,0,3,11.71a1.9,1.9,0,0,0-.82.11l.12.06a9.35,9.35,0,0,1,0-1.06c0-.34.29-.25.56-.24,0,0,0-.07,0-.08Z"/><path class="cls-1" d="M2.53,11.6c0,.71.14,1.43.11,2.14,0,.29-.1.78.14,1,.06.06.18,0,.12-.1-.21-.3-.09-.83-.1-1.17,0-.63-.14-1.25-.19-1.87a0,0,0,0,0-.08,0Z"/><path class="cls-1" d="M3,14.69c.49.07,1,.18,1.46.25a6.26,6.26,0,0,1,1.22.23c.08,0,.13-.1.06-.13a4.84,4.84,0,0,0-1.25-.23c-.49-.08-1-.15-1.48-.2,0,0-.05.07,0,.08Z"/><path class="cls-1" d="M2.77,14.75a.45.45,0,0,1-.14.1,0,0,0,0,0,0,.09.32.32,0,0,0,.18-.12,0,0,0,0,0-.07-.07Z"/><path class="cls-1" d="M5.64,15.09A1.13,1.13,0,0,0,6,14.88s0-.05,0-.07c-.36-.5.11-1.2.4-1.6,0-.05,0-.11-.07-.08a1.55,1.55,0,0,0-.51.91,1.23,1.23,0,0,0-.05.54,1.09,1.09,0,0,1,.05.17c.06.07,0,.12-.06.17L5.61,15s0,.09,0,.08Z"/><path class="cls-1" d="M1,16.66a10,10,0,0,0,.91-.93c.29-.31.65-.56.92-.88.05,0,0-.12-.08-.08A14.23,14.23,0,0,0,.93,16.6a0,0,0,0,0,.06.06Z"/><path class="cls-1" d="M.82,18.65c.23,1,.29,1.06,1.26,1.26,1.47.3,2.93.49,4.42.68.06,0,.08-.1,0-.11-1.13-.2-2.28-.27-3.42-.48a7.15,7.15,0,0,1-1.37-.31,1.47,1.47,0,0,1-.83-1.07s-.08,0-.07,0Z"/><path class="cls-1" d="M5.89,8.58A9.84,9.84,0,0,1,7,8.62a.06.06,0,0,0,.07-.09c-.07-.13-.33-.1-.45-.1s-.47.05-.71.07c0,0,0,.07,0,.08Z"/><path class="cls-1" d="M2.13,10.37A26.85,26.85,0,0,0,5,9.06,7,7,0,0,1,8.9,8.8c.06,0,.08-.1,0-.11A7.5,7.5,0,0,0,6,8.5a41.47,41.47,0,0,0-3.9,1.79s0,.09,0,.08Z"/></g></g></svg>