<svg xmlns="http://www.w3.org/2000/svg" viewBox="0 0 47.41 44.52"><defs><style>.cls-1{fill:#40220f;}</style></defs><title>資產 19</title><g id="圖層_2" data-name="圖層 2"><g id="圖層_7" data-name="圖層 7"><path class="cls-1" d="M25.26,14.84a6.08,6.08,0,0,0,1.07,4.07,5.25,5.25,0,0,0,4.18,1.53,5,5,0,0,0,3.63-1.93c.62-.86,1.29-2.76.41-3.65-.1-.1-.32,0-.26.15,1.1,2.73-1.76,5.15-4.33,5.06a4.6,4.6,0,0,1-3.52-1.6,6.83,6.83,0,0,1-1-3.63.1.1,0,0,0-.19,0Z"/><path class="cls-1" d="M25.38,14.61c-.38-.71-1.57-1.09-.9-2.09a4,4,0,0,1,2.9-1.35,5.63,5.63,0,0,1,3.16.49,3.6,3.6,0,0,1,1.87,1.58c.05.12.24.15.27,0,.19-.78-1.22-1.47-1.75-1.76a6.06,6.06,0,0,0-4-.6,3.77,3.77,0,0,0-2.87,1.69c-.5,1.07.54,1.49,1.15,2.16a.1.1,0,0,0,.16-.12Z"/><path class="cls-1" d="M25.29,14.5a9.62,9.62,0,0,0,2.39-.32,23.46,23.46,0,0,1,2.9-.37,8.19,8.19,0,0,1,2.66,0c.55.15.91.23,1.08.89,0,.2,0,.43.08.63s.37.13.34-.09c-.09-.47,0-1-.41-1.36a3.34,3.34,0,0,0-2.07-.51c-1.09,0-2.19.12-3.27.26-1.25.17-2.45.53-3.7.68a.1.1,0,0,0,0,.19Z"/><path class="cls-1" d="M34.63,14.59c.4,0,.8-.06,1.09.28a1.11,1.11,0,0,1,.18,1c-.11.4-.48,1.17-1,1.07a.18.18,0,0,0-.21.21c.11.44.57.33.83.1A2.72,2.72,0,0,0,36.28,16a1.31,1.31,0,0,0-1.68-1.68.12.12,0,0,0,0,.24Z"/><path class="cls-1" d="M35.73,14.24c.28-.76-.29-1.64-.66-2.27a5.13,5.13,0,0,0-2.22-2.18,5.5,5.5,0,0,0-6.24,1,.19.19,0,0,0,.27.28,5.12,5.12,0,0,1,5.91-.93A4.68,4.68,0,0,1,34.69,12a3.83,3.83,0,0,1,.85,2.23c0,.12.16.13.19,0Z"/><path class="cls-1" d="M29,17.65c.32,0,.65-.07,1-.09a2.16,2.16,0,0,1,.8,0c.33.13.2.93.13,1.21-.16.61-.88-.15-1.07-.41s-.39-.75-.76-.85a.15.15,0,0,0-.12.28,3.81,3.81,0,0,1,.67.87,1.93,1.93,0,0,0,.75.61c.51.24.81-.05.89-.56s.19-1.19-.27-1.43a1.62,1.62,0,0,0-.9,0,3.67,3.67,0,0,0-1.18.26c-.1.05,0,.2.08.18Z"/><path class="cls-1" d="M27.81,15.56a1.36,1.36,0,0,0,.07.72l.29-.17a.58.58,0,0,1-.15-.35l-.29.17c.1.07.09.16,0,.26l.32-.05a.26.26,0,0,1-.09-.32l-.33.14s0-.14,0,0a.41.41,0,0,0,0,.16.23.23,0,0,0,.45-.06.46.46,0,0,0-.21-.48.23.23,0,0,0-.33.14.69.69,0,0,0,.27.77.21.21,0,0,0,.29-.07.59.59,0,0,0-.21-.8.19.19,0,0,0-.28.21,1,1,0,0,0,.28.55c.12.11.37,0,.3-.18a1.65,1.65,0,0,1-.14-.58c0-.14-.23-.19-.27,0Z"/><path class="cls-1" d="M31.74,15.67a.74.74,0,0,1,.12-.48l-.3-.07a.7.7,0,0,1,0,.55h.34a.59.59,0,0,1,0-.5l-.37.09c.11.12.14.26,0,.37l.39,0s-.08-.1-.08-.14,0,0,0,0h-.45s.05.08,0,.08a.16.16,0,0,1,.07-.17l0,0a.35.35,0,0,0-.19.22.25.25,0,0,0,.17.29.44.44,0,0,0,.43-.18.47.47,0,0,0,0-.53.27.27,0,0,0-.48.07.61.61,0,0,0,.1.63.26.26,0,0,0,.39.05.72.72,0,0,0-.06-1,.22.22,0,0,0-.36.1,1,1,0,0,0,.12.82.21.21,0,0,0,.37,0,1.08,1.08,0,0,0,0-.81.17.17,0,0,0-.32,0,.77.77,0,0,0-.11.72c0,.15.28.13.27,0Z"/><path class="cls-1" d="M31.51,20.11c.11.68.12,1.35.2,2a14.37,14.37,0,0,0,.62,2.59c.25.8.57,1.57.81,2.37a6,6,0,0,0,.64,1.71c.13.19.43,0,.31-.18a8.39,8.39,0,0,1-.79-2.15c-.26-.77-.55-1.54-.78-2.32A13.24,13.24,0,0,1,32,21.6a2.9,2.9,0,0,0-.3-1.57.1.1,0,0,0-.18.08Z"/><path class="cls-1" d="M34.06,28.69c-.11.73,1.21.34,1.51.23.47-.19,1.77-.67,1.74-1.33a.16.16,0,0,0-.24-.14c-.44.26-.81.61-1.28.85s-1,.54-1.54.31a.14.14,0,0,0-.19.08Z"/><path class="cls-1" d="M30,20.42A7.3,7.3,0,0,1,30,22a23.94,23.94,0,0,0,.21,2.54c.22,1.64.8,3.2,1,4.83l.15-.25a15.4,15.4,0,0,1-2.63,0l.2.21c.14-1.62-.07-3.23.11-4.85.09-.73.24-1.46.26-2.2a6.41,6.41,0,0,1,.11-1.91c.08-.25-.31-.36-.4-.11A4.5,4.5,0,0,0,29,21.79a17.76,17.76,0,0,1-.24,2.51c-.21,1.68,0,3.36-.13,5.05a.2.2,0,0,0,.21.2,16.71,16.71,0,0,0,2.74,0c.11,0,.15-.16.14-.25-.28-1.91-1-3.71-1.16-5.64a20.55,20.55,0,0,1-.13-2.08,2.1,2.1,0,0,0-.2-1.24c-.07-.09-.22-.05-.19.07Z"/><path class="cls-1" d="M29,20.33a2.15,2.15,0,0,1-2.43.38c-.36-.18-.68-.66-1.12-.74-.65-.12-1.25.71-1.68,1.06a.18.18,0,0,0,0,.23c.61,1.14,1.09,2.49,2.34,3.09.68.33,1.84.63,2.49.09.19-.16-.08-.42-.27-.27-.42.36-1.25.12-1.71,0A3,3,0,0,1,25,23a10,10,0,0,1-.77-1.4c-.18-.36-.19-.21,0-.47a2.25,2.25,0,0,1,.48-.44c.67-.45,1.06.08,1.63.38a2.52,2.52,0,0,0,1,.26,1.81,1.81,0,0,0,1.75-.84.1.1,0,0,0-.15-.12Z"/><path class="cls-1" d="M23.91,20.93c-.48,0-.48-.85-.28-1.15.33-.51,1.13-.19,1.36.23l.23-.22-.11-.08c-.11-.08-.27.08-.19.19A1.7,1.7,0,0,0,25,20c.12.13.3,0,.27-.16-.06-.38-.57-.61-.9-.66a1,1,0,0,0-1,.4c-.3.49-.19,1.61.58,1.5.12,0,.08-.19,0-.19Z"/><path class="cls-1" d="M23.62,19.45c.1-.91-.51-1.77-.79-2.6A18.29,18.29,0,0,0,22,14.13a.17.17,0,0,0-.26,0c-.54.51-.74,1.28-1.31,1.75s-1.56.66-2.24,1.18a.17.17,0,0,0,0,.3c.75.57,2.05.56,2.95.7.33,0,1.49.12,1.63-.37.05-.17-.22-.29-.3-.12-.29.55-3.71-.21-4.11-.51v.3c.7-.54,1.63-.65,2.29-1.2s.78-1.28,1.32-1.8l-.26,0a20.46,20.46,0,0,1,.88,2.75c.29.82.66,1.58.87,2.42a.1.1,0,0,0,.19,0Z"/><path class="cls-1" d="M31.59,28.12s-.06,0,0,0l.08,0,.21-.11a3.71,3.71,0,0,1,.66-.15c.32,0,.86-.09,1-.44.06-.14-.11-.26-.23-.23l-.06,0c-.12,0-.22.18-.11.26l.12.07a2.72,2.72,0,0,0,0-.3c-.2.22-.71.23-1,.29a1.31,1.31,0,0,0-.76.33.18.18,0,0,0,0,.2h0a.1.1,0,0,0,.15.09Z"/><path class="cls-1" d="M29.17,29.48a14.14,14.14,0,0,0,0,4.16,1.25,1.25,0,0,0,1.22.92,2.72,2.72,0,0,0,2.06-.33c.49-.45.39-1.24.32-1.83A10.74,10.74,0,0,1,32.67,31a1.48,1.48,0,0,1,.12-.78c.29-.42.6-.34.84.05a10.47,10.47,0,0,0,1.31,2.21c.46.48,1.18,1.38,1.93,1a2.32,2.32,0,0,0,.71-.78c.27-.37.58-.69.87-1,.46-.54.35-.89-.14-1.39s-.85-.66-1.18-1.07-.38-.84-.73-1.12c-.18-.14-.43.1-.26.25.33.31.43.8.72,1.14a7.87,7.87,0,0,0,.86.77c.46.4.75.84.26,1.38a8,8,0,0,0-.66.78c-.41.57-.82,1-1.44.42a7.68,7.68,0,0,1-.67-.61A4.46,4.46,0,0,1,34.39,31c-.2-.45-.49-1.4-1.07-1.53-1.48-.35-.92,2.57-.86,3.19s.1,1.23-.57,1.48a3.33,3.33,0,0,1-1.63,0c-.92-.22-.78-1.37-.8-2.12s0-1.71-.1-2.56a.1.1,0,0,0-.19,0Z"/><path class="cls-1" d="M29.8,34.21A4.92,4.92,0,0,0,30.05,36l.12-.21c-.61.18-1.83.28-1.73,1.18.16,1.37,1.76.89,2.61.63.4-.13.78-.28,1.17-.43a2.69,2.69,0,0,0,.71-.28.83.83,0,0,0,.18-.81c-.06-.38-.45-2.13-1-2-.19,0-.14.33,0,.33s.49,1.19.56,1.45.18.57-.09.79a5.24,5.24,0,0,1-1.18.45c-.67.24-1.82.77-2.35.17-.71-.8.66-1,1.2-1.16a.16.16,0,0,0,.12-.2A9.19,9.19,0,0,1,30,34.21a.1.1,0,0,0-.2,0Z"/><path class="cls-1" d="M36.81,33.25c.37.47,1,.65,1.16,1.27s-.34.93-.27,1.45c.14,1,1.54.73,2.09.27a3.53,3.53,0,0,0,1.07-2.87,1.07,1.07,0,0,0-.6-.65c-.6-.37-1.14-.85-1.76-1.18-.19-.09-.36.19-.17.29.41.23.71.59,1.1.85s.93.39,1,.86a3.22,3.22,0,0,1-.32,1.35,2.6,2.6,0,0,1-.44.82c-.31.35-1.55.95-1.54-.05,0-.57.52-.94.17-1.52a2.74,2.74,0,0,0-1.4-1c-.08,0-.17.08-.12.15Z"/><path class="cls-1" d="M33.09,19.48c.74.28,1.49.5,2.22.81a1.42,1.42,0,0,0,1,.18c.76-.26,1.17-1.93,2.05-1.29a2.71,2.71,0,0,1,.62.87,1.34,1.34,0,0,1-.27,1.71,3.06,3.06,0,0,1-2.22,1.3A3.67,3.67,0,0,1,34,21.73a2.55,2.55,0,0,1-.56-1,5.57,5.57,0,0,0-.14-.78.19.19,0,0,0,.11-.37c-.49-.16-.49.42-.46.74a3.23,3.23,0,0,0,1.17,2.1,3.74,3.74,0,0,0,2.72,1,3.73,3.73,0,0,0,2.39-1.59,1.52,1.52,0,0,0,.16-2c-.28-.48-.78-1.39-1.46-1.28s-.88.83-1.24,1.2c-.59.63-1.11.2-1.76-.06a10.53,10.53,0,0,0-1.74-.43.1.1,0,0,0,0,.19Z"/><path class="cls-1" d="M36.11,23.45a11.72,11.72,0,0,0,1.17,1.95c.29.49.63,1.07.23,1.6-.2.27-.56.39-.78.67-.09.11,0,.31.15.26,2.44-.85.44-3.42-.6-4.57a.1.1,0,0,0-.17.09Z"/><path class="cls-1" d="M38.26,18.69a3,3,0,0,0,0-.67c0-.35,0-.68.47-.4.29.17.48.48.81.6a2,2,0,0,0,.8,0,1.27,1.27,0,0,1,1.1.36c.48.52-.19.74-.64.78-.63.05-1.21-.06-1.73.38-.13.11,0,.36.17.29a6.92,6.92,0,0,1,1.81-.3c.34-.06.78-.18.93-.54.27-.67-.58-1.24-1.13-1.34a4.07,4.07,0,0,0-.78,0c-.47,0-.65-.23-1-.48s-.6-.37-.87-.25c-.52.21-.2,1.17-.11,1.55,0,.12.18.07.19,0Z"/><path class="cls-1" d="M32.38,18.08c-.12-.17-.33-.46,0-.44s.29.16.08.32l.21.27c.25-.27,2.07-.1,1.84-.78a.15.15,0,0,0-.22-.09c-.15.07-.21.18-.39.22a4.22,4.22,0,0,1-.61.07,1.29,1.29,0,0,0-.87.33c-.12.14,0,.41.21.28s.41-.36.31-.62a.59.59,0,0,0-.5-.31.52.52,0,0,0-.51.2c-.14.26.11.51.29.66s.22,0,.15-.11Z"/><path class="cls-1" d="M11.35,29.7c.38,0,1.18,2.49,1.43,2.89a19.73,19.73,0,0,0,3.44,3.69c1.43,1.37,2.76,2.86,4.09,4.32.66.73,1.3,1.49,2,2.2a10.52,10.52,0,0,0,.93.84,11.85,11.85,0,0,1,1.08.73.16.16,0,0,0,.29.08.16.16,0,0,1,0-.07.2.2,0,0,0,0-.22c-.68-.7-1.55-1.2-2.24-1.92S21,40.69,20.24,39.91c-1.42-1.53-2.84-3.1-4.39-4.5a12.66,12.66,0,0,1-3.3-3.91c-.17-.37-.66-2-1.2-2a.1.1,0,0,0,0,.19Z"/><path class="cls-1" d="M19.5,27.86a16.63,16.63,0,0,0,4.75,2.32c.86.25,1.74.4,2.59.65a10.88,10.88,0,0,0,2,.48l-.16-.21v0c0,.12.1.24.21.17l0,0c.1-.06.13-.23,0-.28a10.48,10.48,0,0,0-1.69-.44c-.85-.24-1.71-.39-2.57-.62a19.67,19.67,0,0,1-5.07-2.25.1.1,0,0,0-.1.17Z"/><path class="cls-1" d="M32.5,31.71a4.77,4.77,0,0,0,1.34.32,5.58,5.58,0,0,1,.57.08.71.71,0,0,0,.21,0s.16,0,.07,0l-.06-.21h0c-.08.11,0,.25.17.22h0a.17.17,0,0,0,.11-.2c-.08-.25-.52-.23-.73-.26a12.83,12.83,0,0,0-1.64-.16c-.09,0-.14.14,0,.18Z"/><path class="cls-1" d="M39.86,32.67c.77.09,1.49.33,2.26.4.57,0,1.13.14,1.7.16.73,0,2-.28,2.55.28a.17.17,0,0,0,.28-.12c0-.77-1.52-.6-2-.59a13.19,13.19,0,0,1-1.66,0c-.6-.06-1.21-.07-1.81-.16a4.78,4.78,0,0,0-1.31-.13.1.1,0,0,0,0,.2Z"/><path class="cls-1" d="M19.13,6.25c1.2-1.62,3-2.95,4.86-1.34a.15.15,0,0,0,.26-.07c.59-2.09,3.3-.2,2.61,1.1l.29.18c.52-1.13,2.14,0,2.14.9a.18.18,0,0,0,.3.13c.93-.93,1.67-.4,2.56.2a.18.18,0,0,0,.26-.1c.08-.29.67-.28.87-.26s.3.1.43.13a.17.17,0,0,0,.2-.08,1.58,1.58,0,0,1,1.41-1,.19.19,0,0,0,.18-.18C35.58,4.1,37.76,2.79,39,4.39c.13.17.44-.06.3-.24A1.92,1.92,0,0,1,39.7,1.8,2.44,2.44,0,0,1,41.53,1c1.38-.06,3,.49,3.61,1.86A.22.22,0,0,0,45.4,3c.85-.3,1.91.35,1.13,1.33a.23.23,0,0,0,.1.38l.44.22c0-.11,0-.21-.08-.31l-.11.11c-.22.17,0,.55.22.38a1,1,0,0,0,.28-.26.24.24,0,0,0-.08-.31,2.16,2.16,0,0,0-.55-.27c0,.12.07.25.1.38A1.32,1.32,0,0,0,45.29,2.6l.26.15C44.84,1.06,42.75.38,41,.66c-1.5.24-3.17,2.21-2,3.69l.3-.24c-1.22-1.54-3.44-.77-4,1-.23.7-.08.46-.72.77a2.08,2.08,0,0,0-.48.34c-.06.06-.33.47-.38.49-.27.09-.69-.2-1-.13a.7.7,0,0,0-.57.59l.25-.1c-1.09-.75-1.93-1.19-3-.15l.3.12c0-1.23-2.12-2.52-2.78-1.08-.09.2.19.37.29.18.93-1.76-2.51-3.89-3.2-1.37l.26-.07c-2-1.73-4-.4-5.25,1.47-.07.11.1.2.17.1Z"/><path class="cls-1" d="M39,28.68c.09.73.84,1.07,1.5,1.17,1,.14,1.71-.57,2.55-1l-.3-.08c.5,1.07,1.6,1.61,2.49.61l-.4-.16c0,1.09,2.08,1.27,1.84.58a.15.15,0,0,0-.23-.09c-.35.25-1.13,0-1.15-.49a.23.23,0,0,0-.39-.16c-.69.78-1.43.21-1.78-.52a.23.23,0,0,0-.3-.08,6.92,6.92,0,0,1-1.71,1,1.77,1.77,0,0,1-2-.83c0-.11-.19,0-.17.07Z"/><path class="cls-1" d="M43.43,11.28a.88.88,0,0,1,.5-.43c.16-.08.46-.11.55-.28a.16.16,0,0,0-.06-.21c-.23-.1-.58.14-.77.26a.88.88,0,0,0-.41.63c0,.12.15.12.19,0Z"/><path class="cls-1" d="M44.13,11.87a.63.63,0,0,0,.45.25l.32,0a.76.76,0,0,0,.3,0,.14.14,0,0,0,.09-.2c-.09-.17-.3-.17-.46-.17s-.44.07-.54,0-.23,0-.16.12Z"/><path class="cls-1" d="M45,18.26a1.93,1.93,0,0,1,.31.33,3,3,0,0,0,.28.34.16.16,0,0,0,.26-.11c0-.39-.44-.61-.75-.73-.09,0-.18.11-.1.17Z"/><path class="cls-1" d="M44.89,19.94a2.85,2.85,0,0,1,.16.3.82.82,0,0,0,.2.26.15.15,0,0,0,.23-.18.64.64,0,0,0-.19-.27c-.09-.07-.16-.15-.25-.23s-.21,0-.15.12Z"/><path class="cls-1" d="M23.87,27.17c.1.27.17.54.29.8s.28.42.43.19a.14.14,0,0,0-.15-.2c.22-.05.12.12.1,0s0-.08-.06-.12a2,2,0,0,1-.13-.25,4.27,4.27,0,0,0-.3-.51c-.05-.09-.21,0-.18.07Z"/><path class="cls-1" d="M24.77,27.38a1.22,1.22,0,0,1,.12.68c0,.16-.08.43.14.48a.17.17,0,0,0,.21-.15s0-.05,0-.07a.13.13,0,0,0-.22-.13.35.35,0,0,0-.05.08h.23s0-.2,0-.24a1.53,1.53,0,0,0,0-.3.92.92,0,0,0-.26-.46c-.08-.08-.22,0-.15.11Z"/><path class="cls-1" d="M25.5,28.06a4.73,4.73,0,0,1-.05.92.16.16,0,0,0,.29.07,1.21,1.21,0,0,0,0-1.08c-.06-.12-.23,0-.21.09Z"/><path class="cls-1" d="M42.87,31a1.2,1.2,0,0,0-.14.49.48.48,0,0,0,.21.45.17.17,0,0,0,.22-.06.58.58,0,0,0,0-.43,3.52,3.52,0,0,0-.13-.43.1.1,0,0,0-.18,0Z"/><path class="cls-1" d="M43.48,31c0,.22,0,.43,0,.64a.17.17,0,0,0,.26.14.38.38,0,0,0,.18-.44,1,1,0,0,0-.26-.41.1.1,0,0,0-.18.07Z"/><path class="cls-1" d="M4.36,10.66a3.38,3.38,0,0,0-1.22,1.27.16.16,0,0,0,.1.24c.32.08.86-.05,1.1.06s.42.83.54,1.17A3.38,3.38,0,0,0,6,15.15c1,.77,2.56.8,3-.57a2.61,2.61,0,0,0-1.39-3.14c-.81-.47-2.31-1.28-3.25-.86-.19.09,0,.42.15.34.64-.26,1.7.26,2.28.52.93.43,1.86,1,2,2.13.13,1.58-1.34,2.22-2.56,1.27-.93-.73-1-1.91-1.47-2.92a.18.18,0,0,0-.2-.08,2.75,2.75,0,0,1-1.21,0c0,.08.07.16.1.25a6.89,6.89,0,0,1,1.05-1.29.1.1,0,0,0-.12-.15Z"/><path class="cls-1" d="M7.09,15.67a2,2,0,0,0-.38.81c0,.14.19.22.28.12a2.24,2.24,0,0,0,.31-.84.12.12,0,0,0-.21-.09Z"/><path class="cls-1" d="M6.75,15.5a2.13,2.13,0,0,0-.54.58.18.18,0,0,0,0,.17.2.2,0,0,0,.13.12.21.21,0,0,0,.17,0c.16-.21.3-.45.45-.67s-.06-.21-.16-.16Z"/><path class="cls-1" d="M8.62,13.13c.36.69.56,1.46,1,2.13a19.53,19.53,0,0,0,1.61,2c0-.13.06-.25.1-.37a2.2,2.2,0,0,1-2-.2,1.38,1.38,0,0,0-1-.39l.22.22c0-.58.2-1.17-.22-1.63-.12-.13-.38,0-.31.17a3.28,3.28,0,0,1,.09,1.46.22.22,0,0,0,.22.22c.58,0,1,.64,1.56.72a3.74,3.74,0,0,0,1.52-.15.22.22,0,0,0,.1-.36,13.66,13.66,0,0,1-1.77-2.26,6,6,0,0,0-1-1.7.1.1,0,0,0-.15.12Z"/><path class="cls-1" d="M6.59,12.76a2.16,2.16,0,0,0,1.22,1.85c.26.12,1.63.48,1.36-.25a.16.16,0,0,0-.29,0c-.19.3-1-.07-1.2-.24a2.45,2.45,0,0,1-.9-1.35c0-.12-.18-.07-.19,0Z"/><path class="cls-1" d="M5.13,11.39a0,0,0,0,1,0,0v.1c0-.12,0-.19-.06-.29s-.4,0-.28.16.11.19.25.19l-.08,0,0,0a.1.1,0,0,0,.16-.12Z"/><path class="cls-1" d="M2.21,16.21a3.79,3.79,0,0,1,1.55.33,5.65,5.65,0,0,0,1.29.18,7,7,0,0,0,2.57-.43c.23-.07.13-.45-.1-.37a6.85,6.85,0,0,1-2.94.42C3.76,16.26,3,15.8,2.18,16a.1.1,0,0,0,0,.2Z"/><path class="cls-1" d="M9.71,14.82c2,.07,2.48-2.85,3.32-4.15l-.37-.05h0c-.05.08,0,.24.13.22h.06a.19.19,0,0,0,.18-.14v-.07a.2.2,0,0,0-.37-.15c-.9,1.41-1.12,3.67-3,4.15a.1.1,0,0,0,0,.2Z"/><path class="cls-1" d="M11,14.18c.87.09,1.94-.74,2.62-1.21,1.17-.81,2-1.64,3.56-1.71.25,0,.25-.4,0-.39a5,5,0,0,0-3,1c-.93.69-2.09,1.77-3.26,2-.19,0-.12.3,0,.31Z"/><path class="cls-1" d="M17.24,11c.17,0,.26-.17.35-.3s.32-.41.5-.61a8.43,8.43,0,0,1,1.05-1l-.38-.22,0,.08a.15.15,0,0,0,.13.23.36.36,0,0,0,.23-.06c.26-.14,0-.56-.22-.39a7,7,0,0,0-1.13,1.12c-.2.25-.72.74-.61,1.1a.09.09,0,0,0,.11.07Z"/><path class="cls-1" d="M17.18,11.25a3.42,3.42,0,0,0,1.15-.06c.28,0,.81-.06,1-.35a.24.24,0,0,0-.27-.35c-.32.06-.64.18-1,.25a2.12,2.12,0,0,0-.93.29.13.13,0,0,0,.05.22Z"/><path class="cls-1" d="M13.08,10.73c.31-.56.89-.75,1.37-1.12.17-.14,0-.36-.22-.29a4,4,0,0,0-.84.56,1.28,1.28,0,0,0-.5.77c0,.11.13.19.19.08Z"/><path class="cls-1" d="M13.74,10.07A7.09,7.09,0,0,0,15,9c.26-.29.75-.77.7-1.18a.14.14,0,0,0-.23-.1,2.15,2.15,0,0,0-.3.48,4.6,4.6,0,0,1-.49.67c-.33.38-.69.71-1,1.09-.07.08,0,.22.12.15Z"/><path class="cls-1" d="M14.29,9.57c.1-.63-.2-1.24,0-1.87a.18.18,0,0,0-.35-.09c-.18.67.15,1.27.2,1.94,0,.1.17.14.2,0Z"/><path class="cls-1" d="M2.7,5.29a4.38,4.38,0,0,1,2.18-.8,2,2,0,0,1,1.77.94,1.29,1.29,0,0,0,.5.43c.72.34,1.27.38,1.66,1.16A.19.19,0,0,0,9,7.11c.22,0,.8-.22.75.27a.18.18,0,0,0,.24.18c1-.29,1.38.27,1.66-.86.15-.57.55-.94.74-1.47s.14-.73.44-1.06.71-.32,1.13-.54a1.06,1.06,0,0,0,.47-.53c.26-.46.48-.85,1.12-.7a1.46,1.46,0,0,1,.83.65,2.77,2.77,0,0,0,.69.76,3.08,3.08,0,0,1,1.64,2.08.25.25,0,0,0,.3.17c.23.05.28.18.14.39a.27.27,0,0,0,.12.29,5.9,5.9,0,0,1,1.41,1.17c.5.46,1.25.56,1.09,1.41a5.12,5.12,0,0,0-.2.77c0,.25.18.56.15.78-.07.47-.48.4-.7.62a2.73,2.73,0,0,0-.39.55c-.19.3-.23.36-.53.46-.11,0-.25,0-.36.08s-.29.38-.51.51-.4.08-.55.2-.24.42-.28.7c-.1.86-.91,1.2-1.63,1.61a.19.19,0,0,0-.08.21c.27.76,1,2.89.05,3.42-.19.11-.5.1-.72.2-.5.24-.74.5-1.36.35a.19.19,0,0,0-.23.23c.11.56.39,1.25-.31,1.7a2.26,2.26,0,0,1-.78.22,6.82,6.82,0,0,0-1.26.31.21.21,0,0,0-.09.34c-.08.76-.47,1-1.17.66A1.42,1.42,0,0,1,10.3,23c-.15-.09-.28-.25-.45-.3a.69.69,0,0,0-.56,0c-.62.29-.7.64-1.53.62a3.72,3.72,0,0,1-2.16-.73.21.21,0,0,0-.24,0c-.94.76-1.31,0-1.91-.51a4,4,0,0,0-.84-.45,1.93,1.93,0,0,0-1.89-.08c-.22.1,0,.43.19.33a2.4,2.4,0,0,1,2.59.84,1.28,1.28,0,0,0,.91.58,2.31,2.31,0,0,0,.75-.12.76.76,0,0,1,.8.08,4.73,4.73,0,0,0,1.93.43,1.86,1.86,0,0,0,1.26-.41c.48-.29.59-.23,1,0a2.39,2.39,0,0,0,.81.33c.92.17,2-.52,1.26-1.42l-.09.34c.73-.31,1.66-.2,2.31-.68s.45-1.31.3-2l-.23.23a1.77,1.77,0,0,0,1.28,0c.08,0,.12-.15.19-.2.46-.33.55-.21.93-.41.7-.36.57-1.59.49-2.22-.05-.38-.42-1.17-.28-1.51.08-.18.75-.45.93-.57a2.38,2.38,0,0,0,.61-.53c.17-.27.06-.37.11-.65.09-.58.36-.24.73-.49.21-.15.26-.32.48-.45s.35,0,.5-.1c.31-.18.37-.57.59-.82s.78-.32,1-.73.08-.56,0-.92c-.15-.86.54-1.74-.25-2.42A11.67,11.67,0,0,1,20.7,7.2a3.64,3.64,0,0,0-1.2-.9l.12.29c.15-.64,0-1.21-.77-1l.31.17A3,3,0,0,0,18.21,4a6.63,6.63,0,0,0-.83-.55c-.41-.27-.47-.51-.72-.89-.43-.66-1.85-1-2.4-.3a1.53,1.53,0,0,0-.16.37,1.46,1.46,0,0,1-.95.77,1.91,1.91,0,0,0-1,1.07,3.06,3.06,0,0,1-.51,1.06,1.35,1.35,0,0,0-.31.53c-.11.41,0,.87-.57,1-.26.09-.6,0-.88.06l.23.18c.08-.7-.26-.58-.77-.68S8.79,6.28,8.49,6a3.16,3.16,0,0,0-1-.43c-.56-.23-.68-.73-1.1-1.06a2,2,0,0,0-.9-.33,4.09,4.09,0,0,0-2.9.9c-.11.08,0,.26.11.19Z"/><path class="cls-1" d="M14.69,21.1c.13.25.18,0,.09.08a.2.2,0,0,0-.08.21c.18.45,1.32,2,.33,2a.21.21,0,0,0-.16.36A1.78,1.78,0,0,1,15.16,26c-.22.39-.86.62-1,1.06s.12.37.21.61c.45,1.27-1.62,2-2.31,1-.1-.14-.37-.11-.36.1.07.93-1.07.83-1.67.81a.21.21,0,0,0-.18.1,3.62,3.62,0,0,1-.2.45c-.11.19-.28.5-.51.59-.58.22-1.28-.29-1.58-.73-.1-.15-.4-.11-.38.11s-.63-.61-.73-.78a3.76,3.76,0,0,1-.34-.86l-.34.2c.35.43-1.64.34-1.87.34a.21.21,0,0,0-.21.2l0,.25c0,.16.29.24.33,0s-.16,0,.16-.07a5.52,5.52,0,0,1,.57,0,3,3,0,0,0,1.08-.11c.5-.2.52-.56.2-1-.13-.17-.39,0-.34.19.18.73.77,2.18,1.74,1.91a.2.2,0,0,0,.15-.2c0-.06,0-.11,0-.17l-.38.1c.64,1,2.23,1.47,2.78.19a2.37,2.37,0,0,1,.2-.46c.08-.09-.21.11-.05.05.39-.16.85,0,1.28-.12a1,1,0,0,0,.67-1.09l-.36.1a1.49,1.49,0,0,0,2,.5c.6-.25,1.55-.72,1.24-1.54,0-.09-.13-.17-.15-.25-.23-.15-.22-.36,0-.64l.18-.13a3.83,3.83,0,0,0,.65-1.06,2.09,2.09,0,0,0-.55-2.31l-.15.36c.53,0,1-.16.88-.75a2.67,2.67,0,0,0-.42-1,2.47,2.47,0,0,0-.27-.44l-.14-.24c-.08.12-.07.15,0,.08a.18.18,0,0,0,0-.28L15,21a.15.15,0,0,0-.26.15Z"/><path class="cls-1" d="M9.87,40c-.57-1.88-.79-4.45.52-6.08l-.29-.12c.09,1.33.29,2.64.48,4a11.33,11.33,0,0,0,.81,3.41c.07.15.28.09.32,0a15.46,15.46,0,0,1,.72-2.52,4.88,4.88,0,0,1,.69-1c.34-.37.6-.69.74-.1a8.79,8.79,0,0,1-.17,2.16c-.06.93-.11,1.86-.12,2.79h.36A4,4,0,0,1,15.81,39a2.52,2.52,0,0,0-.29-.12c.21.71-.2,1.48-.28,2.19a13.66,13.66,0,0,1-.16,2.48c-.07.23.29.33.37.1a14.54,14.54,0,0,0,.21-2.72,5,5,0,0,0,.24-2.16.2.2,0,0,0-.29-.12,4.36,4.36,0,0,0-2,3.86.18.18,0,0,0,.36,0c0-1.12.05-2.24.14-3.35a6.58,6.58,0,0,0,0-2.34.16.16,0,0,0-.21-.12c-1.85.64-2,2.81-2.53,4.38l.32,0a11.23,11.23,0,0,1-.78-3.33c-.19-1.29-.38-2.57-.47-3.87,0-.13-.19-.25-.29-.12C8.77,35.39,8.92,38.08,9.68,40c.05.11.23.07.19,0Z"/><path class="cls-1" d="M8.93,39c-.09-1.23-1.24-1.92-2.06-2.7a7.33,7.33,0,0,0-3-2.15.18.18,0,0,0-.22.23,5.16,5.16,0,0,0,1.24,2c.67.92,1,2,1.67,3a.2.2,0,0,0,.34-.19,4.68,4.68,0,0,0-2.5-1.78A15,15,0,0,0,.26,36c-.16,0-.33.13-.23.29a5.91,5.91,0,0,0,1.46,1.27c.5.36,1.83,1.09,1.75,1.84,0,.2.27.22.33,0C4,38.14.92,36.91.37,36.07a3.15,3.15,0,0,1-.22.29A14,14,0,0,1,4,37.68c.88.4,2.1.79,2.55,1.72l.34-.19c-.6-.89-1-1.91-1.55-2.8-.45-.68-1.22-1.28-1.35-2.12l-.23.23a6.58,6.58,0,0,1,2.74,2A7.54,7.54,0,0,1,8.74,39a.1.1,0,0,0,.19,0Z"/><path class="cls-1" d="M15.24,26.3a8.08,8.08,0,0,0,1.13.17c.45.1.91.22,1.35.36,1.14.38,1.8,1.26,2.77,1.89.14.09.29-.11.17-.23a7.23,7.23,0,0,0-2.84-2c-.61-.19-2-.75-2.61-.36a.11.11,0,0,0,0,.19Z"/><path class="cls-1" d="M16.35,20a8.32,8.32,0,0,1,1.73,2.17c.82,1.14.83,2.47,1.3,3.75.08.22.44.13.36-.1l-.12-.33a.14.14,0,0,0-.27,0,1.94,1.94,0,0,0,0,.34l.37-.05c-.34-.94-.39-2-.77-2.89a5.55,5.55,0,0,0-.79-1.24c-.35-.46-1.13-1.82-1.78-1.88a.1.1,0,0,0,0,.19Z"/><path class="cls-1" d="M17,19.31a6,6,0,0,0,1.63,2,.17.17,0,0,0,.26-.15,8.21,8.21,0,0,0-.24-2.1c-.05-.24-.41-.14-.36.09a9.78,9.78,0,0,1,.25,2c.09-.06.18-.1.26-.16a7.46,7.46,0,0,1-1.65-1.84c-.07-.08-.21,0-.15.12Z"/><path class="cls-1" d="M20,19.13c-.17,2.66,1.45,5,1.29,7.64,0,.25.38.25.39,0A9.46,9.46,0,0,0,21,23.25a20,20,0,0,1-.84-4.12.1.1,0,0,0-.2,0Z"/><path class="cls-1" d="M22.36,26.45a19.07,19.07,0,0,0-.3-3,7.5,7.5,0,0,0-.1-2.07.14.14,0,0,0-.28,0c-.2,1.71.31,3.36.49,5a.1.1,0,1,0,.19,0Z"/><path class="cls-1" d="M45.12,28.16c.18-1.34-.17-2.92.49-4.16.29-.53,1.45-1.16,1.33-1.81,0-.12-.16-.12-.24-.07A4.94,4.94,0,0,0,45,24.45a10.23,10.23,0,0,0-.17,3.74c0,.19.27.11.29,0Z"/><path class="cls-1" d="M44.93,23.26c.28.13.56-.44.66-.63s.22-.4.32-.61a1.33,1.33,0,0,0,.19-.5.2.2,0,0,0-.33-.14,4.43,4.43,0,0,0-.47.95l-.27.52c-.06.1-.16.2-.15.32a.1.1,0,0,0,0,.09Z"/><path class="cls-1" d="M45.13,23.21c-.17-.41-.74-4.12-1.29-3.81a.13.13,0,0,0,.06.25,4.07,4.07,0,0,0,.2.64c.11.4.21.81.3,1.22A5.37,5.37,0,0,0,45,23.28c.06.09.23,0,.18-.07Z"/><path class="cls-1" d="M42.42,20.17a40.43,40.43,0,0,1,.65,8.21l.32-.13a.16.16,0,0,0-.07-.07c-.09-.07-.28-.05-.26.1s0,.07,0,.1a.19.19,0,0,0,.35.1c.21-.32,0-1.22,0-1.58,0-.78-.06-1.55-.13-2.32a24.82,24.82,0,0,0-.71-4.46c0-.13-.21-.07-.19.05Z"/><path class="cls-1" d="M40.09,28a6.93,6.93,0,0,1,.16-2.27,7.28,7.28,0,0,0,.33-1.71c0-.12-.21-.21-.27-.07a6.88,6.88,0,0,0-.42,4.08c0,.1.21.08.2,0Z"/><path class="cls-1" d="M6.27,30c.29,1.66-1.74,3.46-.87,5.17.1.19.39,0,.29-.17-.44-.9.23-2.41.52-3.28.15-.43.62-1.39.23-1.82-.07-.08-.18,0-.17.1Z"/><path class="cls-1" d="M5.77,32.54a2.6,2.6,0,0,0,1.8-.68c.31-.23,1.17-.8,1-1.28a.13.13,0,0,0-.24,0,4,4,0,0,1-1,1.08,3.27,3.27,0,0,1-1.49.71c-.11,0-.14.18,0,.2Z"/><path class="cls-1" d="M4.35,29.26c-.22.62-.09,1.24-.36,1.87s-.6,1.13-.89,1.69A6.89,6.89,0,0,0,2,35.9l.35,0,0-.16a.15.15,0,0,0-.28,0,.75.75,0,0,0,0,.16.18.18,0,1,0,.35,0,9.49,9.49,0,0,1,1.48-3.73A6,6,0,0,0,4.44,31a15.11,15.11,0,0,0,.16-1.65.13.13,0,0,0-.25-.07Z"/><path class="cls-1" d="M3.91,29.16c-.34-.39-.83,0-1.25-.19a.15.15,0,0,0-.2.21.52.52,0,0,0,.59.23c.23,0,.52-.22.75-.1a.09.09,0,0,0,.11-.15Z"/><path class="cls-1" d="M3.22,22.54a11.05,11.05,0,0,1-.89,1.18,2.83,2.83,0,0,1-.58.51,4.56,4.56,0,0,1-.59.2.13.13,0,0,0,0,.25c.38.28,1-.27,1.26-.52a4.92,4.92,0,0,0,1.07-1.49.14.14,0,0,0-.24-.13Z"/><path class="cls-1" d="M5.53,22.49a5.38,5.38,0,0,1-1.16,1.4c-.43.44-.77.94-1.17,1.41A3.61,3.61,0,0,1,.57,26.86a.16.16,0,0,0,0,.31c1,.29,2-.64,2.64-1.29s1-1.28,1.56-1.88a3.8,3.8,0,0,0,1-1.43c0-.11-.13-.18-.18-.08Z"/><path class="cls-1" d="M3.69,24.91c.66.21,4.93-.58,4.19-1.62a.15.15,0,0,0-.25,0,2.83,2.83,0,0,1-1.82,1.08,5.77,5.77,0,0,1-2.09.34c-.11,0-.12.17,0,.2Z"/><path class="cls-1" d="M18,41.84c-.08.31-.16,1.11.25,1.25a.15.15,0,0,0,.18-.19c0-.14-.11-.27-.14-.42a4.2,4.2,0,0,1-.06-.61.12.12,0,0,0-.23,0Z"/><path class="cls-1" d="M18.82,41.92a5.67,5.67,0,0,0-.06.71.84.84,0,0,0,.17.6.16.16,0,0,0,.25-.07,1.4,1.4,0,0,0-.05-.57c0-.21,0-.42-.05-.63s-.23-.19-.26,0Z"/><path class="cls-1" d="M10.73,33.17a1.5,1.5,0,0,1,.33.42,1.19,1.19,0,0,0,.3.43c.1.07.21-.05.19-.15a1.29,1.29,0,0,0-.3-.5,1.54,1.54,0,0,0-.4-.36c-.09-.06-.21.08-.12.16Z"/><path class="cls-1" d="M11.36,33a1.85,1.85,0,0,1,.31.59c.06.13.27.08.23-.07a1.8,1.8,0,0,0-.4-.66c-.09-.09-.22,0-.14.14Z"/><path class="cls-1" d="M28.68,5.39c-.32-.89,1.91-2,2.55-1.47a.2.2,0,0,0,.32-.19c-.09-.55.33-1.28.44-1.82.2-.94.83-2.16,2-1.19a.2.2,0,0,0,.28,0,1,1,0,0,1,1.68.45.2.2,0,0,0,.33.09c.44-.45,3-1.11,2.92,0,0,.21.32.25.37.05C40-.37,36.58.34,36,1l.34.09A1.4,1.4,0,0,0,34,.44h.28A1.44,1.44,0,0,0,32,.63c-.38.54-.32,1.21-.54,1.8a2.4,2.4,0,0,0-.3,1.4l.33-.19c-.93-.77-3.74.62-3.11,1.87a.16.16,0,0,0,.29-.12Z"/></g></g></svg>