<svg xmlns="http://www.w3.org/2000/svg" viewBox="0 0 37.57 18.03"><defs><style>.cls-1{fill:#40220f;}</style></defs><title>資產 16</title><g id="圖層_2" data-name="圖層 2"><g id="圖層_7" data-name="圖層 7"><path class="cls-1" d="M4.69,9.38c.13.45,0,.91.44,1.22a3.81,3.81,0,0,0,1.31.51A.18.18,0,0,0,6.65,11a5,5,0,0,0,.11-1.5,5.62,5.62,0,0,0-.1-1.3c-.2-.61-1.25-.6-1.72-.86h0a.11.11,0,0,0-.19.08,11.45,11.45,0,0,0,0,1.31c0,.16,0,.34,0,.52A.14.14,0,0,0,4.69,9.38Zm1.69-1a5.58,5.58,0,0,1,0,2.37,2.61,2.61,0,0,1-.78-.29,1.57,1.57,0,0,1-.5-.85,4.27,4.27,0,0,0,0-.88C5,8.35,5,8,5,7.6,5.44,7.89,6.25,7.87,6.38,8.37Z"/><path class="cls-1" d="M3.22,10.23a.17.17,0,0,0,.24-.1,6.37,6.37,0,0,0,0-2.61.17.17,0,0,0,0-.26l-.11-.08a.12.12,0,0,0-.19,0l-.67-.1a.17.17,0,0,0-.17.18c0,.43,0,.86,0,1.29a2.64,2.64,0,0,0,0,.93C2.42,9.91,2.88,10,3.22,10.23ZM2.58,9.11a14.79,14.79,0,0,1,0-1.63l.63.09a17,17,0,0,1-.07,2.26C2.88,9.66,2.59,9.54,2.58,9.11Z"/><path class="cls-1" d="M33.9,6a7.11,7.11,0,0,0-.52-1.68.08.08,0,1,0-.16,0c.1.56.18,1.13.32,1.69C33.58,6.2,33.93,6.17,33.9,6Z"/><path class="cls-1" d="M37.55,7.57a.74.74,0,0,0-.5-.72c-.42-.15-1,.13-1.36-.06a1,1,0,0,1,0-.17l.52-.08a.17.17,0,0,0,.08-.27c-.58-.74-1.35-1.27-1.9-2-.2-.26-.37-.65-.72-.69-.09,0-.13.07-.13.14a18.17,18.17,0,0,1-3.61-.17,2.49,2.49,0,0,0-1.92.2,2.56,2.56,0,0,0-2.1-.61c-.22-.24-.44-.48-.65-.73,0-.06-.11,0-.16,0A21.15,21.15,0,0,0,20,1.75c-1-.1-1.95-.24-2.93-.37a1.4,1.4,0,0,0-1.27.28c-.33-.07-.66-.11-1-.16-1.08-.14-2.13-.33-3.2-.53C9.59.58,7.34.9,5.38.26L5.07,0C5,0,5,0,5,.08a.14.14,0,0,0-.12.07,2.39,2.39,0,0,1-.38.46l0,.05C3.09,2.59,1.22,4.14,0,6.17a.13.13,0,0,0,.1.19h0a.13.13,0,0,0,.12.14,1.37,1.37,0,0,0,.87-.24A7.76,7.76,0,0,1,1.21,8c0,.58.13,1.15.15,1.73a3.66,3.66,0,0,0,.17,1.6,2.1,2.1,0,0,0,.19,1.18c.23.42.73.52,1.17.64.84.23,1.68.43,2.51.7.62.21,1.17.52,1.76.78.12.06.9.27.91.32a.14.14,0,0,0,.26.08l.05-.08a.2.2,0,0,0,0-.22,1.32,1.32,0,0,0-.46-.28A2.5,2.5,0,0,0,8,14l.41.14h0a2.52,2.52,0,0,0,.06.73.18.18,0,0,0,.17.13,2.38,2.38,0,0,0,.75,0s0,0,0,0c2,.29,3.94.44,5.92.61,1.5.13,3.35,0,4.74.61a.17.17,0,0,0,.12,0,1,1,0,0,0,.59.29.18.18,0,0,0,.21-.09v0a4.38,4.38,0,0,0,.66.24.13.13,0,0,0,.08,0c.87.23,1.8.23,2.69.39,1.15.21,2.29.4,3.44.58.5.07,2.76.66,3.08,0a.21.21,0,0,0,.34-.17c0-.05,0-.09,0-.14a2.29,2.29,0,0,0,.61-.59c.53-.59,1-1.21,1.59-1.78s1.36-1.31,2-2c.49-.52.91-1.08,1.4-1.59l.06,0c.3-.22.3-.82.33-1.16a5.77,5.77,0,0,0,.06-1.11C37.63,9,37.57,7.7,37.55,7.57Zm-.79,3.68-.18.13a1,1,0,0,0,.05-.25,2.2,2.2,0,0,0,.2-.23A2.41,2.41,0,0,0,36.76,11.25Zm-1.81.9V12c.21-.19.42-.4.62-.61v0c0,.06,0,.13,0,.19Zm-1.31,1.23a1.27,1.27,0,0,0,0-.2l1-.9a.88.88,0,0,1,0,.17h0Zm-.37,1.26a.14.14,0,0,0,0,.09c-.34.35-.67.7-1,1.06,0-.17,0-.35,0-.52.33-.33.66-.64,1-.95C33.25,14.43,33.26,14.54,33.27,14.64Zm-2.06,1.45c0-.27-.05-.53-.06-.8.23-.17.45-.36.67-.54v.57C31.61,15.57,31.4,15.83,31.21,16.09Zm-4,1.21L25.3,17l0,0a3.43,3.43,0,0,0,.08-.48l1.61.08A4.55,4.55,0,0,0,27.19,17.3ZM26,16.18l-.61,0c0-.31,0-.62,0-.9l.56.06,1,.1c0,.09,0,.17,0,.25s0,.37,0,.57Zm-4.11.19v-.13l.24,0,1.06.07a1.36,1.36,0,0,0,.09.36A12.11,12.11,0,0,1,22,16.55.11.11,0,0,0,21.93,16.37ZM21.43,12a4.12,4.12,0,0,1,.12,1.21l-.58,0a.73.73,0,0,0-.86-.68v0C20,12.1,21,12,21.43,12Zm5.87,2.17c.51,0,1,0,1.52.06H29a8,8,0,0,0,0,1c-.55-.06-1.1-.08-1.64-.11C27.28,14.78,27.29,14.47,27.3,14.15Zm-.4.92-.35,0-1.16-.14a1.87,1.87,0,0,0-.18-.79l1.76,0H27A2.77,2.77,0,0,0,26.9,15.07Zm-2-1a3.34,3.34,0,0,1,.12.76l-1.48-.18,0-.69C24,14,24.49,14.07,24.93,14.09Zm-1.64.55-1.35-.11a6.74,6.74,0,0,0-.14-.9,12.08,12.08,0,0,0,1.61.33C23.36,14.18,23.32,14.41,23.29,14.64Zm-1.72-1.07a5,5,0,0,1,.06.94l-.56,0c0-.38,0-.76-.07-1.13Zm-.47,1.3a.86.86,0,0,1,0-.16l.54.08c0,.38,0,.75,0,1.13a1,1,0,0,1-.46-.22A5.84,5.84,0,0,0,21.1,14.87Zm.86,0,1.29.17q0,.38,0,.75V16c-.38,0-.84,0-1.27,0A11,11,0,0,0,22,14.83ZM23.57,16a5.06,5.06,0,0,1,0-.55c0-.14,0-.28,0-.42l1.5.17v.29c0,.19,0,.41,0,.62Zm3.76-.35c0-.07,0-.14,0-.21.55,0,1.09.09,1.63.16,0,.23,0,.47,0,.71l-1.55-.07C27.4,16,27.36,15.84,27.33,15.65Zm2.11,0c.33.05.66.11,1,.19a.15.15,0,0,0,.08-.29,4.91,4.91,0,0,0-1.14-.3c-.06-.35-.13-.7-.18-1,.56,0,1.31.09,1.59.5l0,0a6.14,6.14,0,0,0,0,1.66l-1.26-.08C29.5,16.11,29.47,15.89,29.44,15.66Zm3.87-3.07a2.7,2.7,0,0,0-.05.41l-1,.89c0-.19,0-.38,0-.57Zm.86-.7h0l.55-.51c0,.13,0,.26,0,.39h0l-1,.91c0-.11,0-.21,0-.32v0c.14-.11.28-.22.41-.34ZM37,9.61a4.16,4.16,0,0,0-.45.32s0-.09,0-.13A2.82,2.82,0,0,0,37,9.36C37,9.44,37,9.52,37,9.61Zm-.67.51a5.9,5.9,0,0,0-.51.49,1.85,1.85,0,0,0,0-.23c.13-.11.26-.22.4-.32l.15-.11Zm-.75.73c-.22.23-.43.46-.66.68a2.44,2.44,0,0,0,0-.27l0,0c.23-.23.47-.45.71-.67C35.58,10.65,35.58,10.75,35.58,10.85Zm-3.75,3.44c-.24.23-.47.46-.69.71a6.78,6.78,0,0,1,0-.78c.21-.15.4-.35.59-.5l.13-.1A4.91,4.91,0,0,0,31.83,14.29Zm.4.11,1-.88v.24c-.36.35-.7.71-1,1.07Zm3.64-3.33c.15-.15.29-.3.44-.44,0,.1,0,.2,0,.3l-.4.37A1.64,1.64,0,0,0,35.87,11.07Zm.08.79.22-.22a.15.15,0,0,0,0,.09L36,12Zm1-1.78,0,.27h0l-.29.26a2.13,2.13,0,0,0,0-.25c.12-.09.25-.19.36-.29Zm.2-2.67a2.5,2.5,0,0,1,0,1,1.52,1.52,0,0,1,0,.21.12.12,0,0,0-.07.11A.1.1,0,0,0,37,8.8a6.93,6.93,0,0,1-1.4,1.25c-.58.46-1.07,1-1.61,1.53a5.53,5.53,0,0,0-1.47-.16c-.33,0-1.55.15-1.76-.15s0-.77,0-1A7,7,0,0,1,30.82,9c.48,0,1,0,1.44,0a31.55,31.55,0,0,0,3.5.17c.09,0,.18-.07.17-.17,0-.66-.14-1.3-.21-1.95C36.21,7.26,37,6.88,37.17,7.41ZM35.28,6.7c.26.07.23,2.12.23,2.12-.3.35-1.75,0-2.21,0a25.05,25.05,0,0,0-4.5,0c-.08-.78-.09-1.57-.12-2.36a26.76,26.76,0,0,0,3.91.14,23.27,23.27,0,0,0,2.63.09A.07.07,0,0,0,35.28,6.7ZM26.43,9.18a.14.14,0,0,0-.1,0h0a.08.08,0,0,0-.15,0,.43.43,0,0,0-.05.1c-.7.25-3.25.77-4.23,1.12A2.29,2.29,0,0,0,22,9.39c.61.14,2.32.19,2.43-.55a4.89,4.89,0,0,1,.74-.16c.22,0,.22-.35,0-.33a2.31,2.31,0,0,0-.77.2.64.64,0,0,0-.06-.18.18.18,0,0,0-.19-.08c-.73.12-1.46.21-2.19.3-.06-.69-.18-1.38-.19-2.08a.21.21,0,0,0-.07-.14l.09,0a11.57,11.57,0,0,0,1.56,0c0,.23.11.47.13.71s0,.9-.31.7c-.18-.1-.15-.6-.16-.78a.91.91,0,0,0-.13-.56s-.15,0-.14.06c0,.4-.19,1.68.54,1.6.42,0,.51-.44.52-.8a2.73,2.73,0,0,0-.1-1,18.47,18.47,0,0,0,2-.26c-.24.65-.35,3.08.71,2.86.07,0,.12-.1.13-.17V8.56a3.14,3.14,0,0,0,1.06-.1,5.25,5.25,0,0,0,.78-.18c0,.23,0,.47.07.71A7.36,7.36,0,0,0,26.43,9.18Zm-5.71,1.55a.15.15,0,0,0-.1.06h0a25.38,25.38,0,0,1-2.86.57c0-.55,0-1.12,0-1.69a9.63,9.63,0,0,0,1.61,0,1.89,1.89,0,0,0,1.2-.4A.13.13,0,0,0,20.48,9a5.77,5.77,0,0,1-1.5.36c-.39,0-.8,0-1.19.05,0-.19,0-.39,0-.58a12.09,12.09,0,0,0,0-2.17l1.05-.1h0a6.63,6.63,0,0,0-.16,1.53.63.63,0,0,0,.84.46c.34-.15.4-.58.4-.9a2,2,0,0,0-.25-1.16h.17c.35,0,.7,0,1.05,0v0a23.65,23.65,0,0,0,0,3.15c0,.28.05.77.3.94a.35.35,0,0,1-.13.08A1.26,1.26,0,0,1,20.72,10.73Zm-7.87,2a1,1,0,0,1-.1.52c0-.2,0-.39,0-.58l.11,0Zm-3.2,1.51c0-.22-.06-.43-.08-.65l.42-.12a4.54,4.54,0,0,0,.16.75.11.11,0,0,0,0,.08A2,2,0,0,1,9.65,14.29ZM8.4,11.82a2.22,2.22,0,0,0,.86.14c0,.1,0,.21,0,.31,0,.34,0,.68,0,1a5.53,5.53,0,0,0-.7.18C8.48,12.92,8.45,12.37,8.4,11.82ZM8.18,9.54a17.07,17.07,0,0,1-.29-2c0-.33.05-.64.06-1a.64.64,0,0,0,.73.1h.23a.24.24,0,0,0,.12,0c.36,0,.74.08,1.1.09.66,0,1.32,0,2-.06,1.37,0,2.73.07,4.09.06.47,0,.93,0,1.4-.08,0,.83-.09,1.65-.16,2.48,0,.29-.06.59-.07.89a.12.12,0,0,0-.13,0c-.07.11-.54.08-.7.11-.42.08-.82.21-1.23.31-.73.18-1.47.3-2.21.43a13.25,13.25,0,0,0-.15-3,.16.16,0,0,0-.28,0c-.55.83-.86,1.42-1.91,1.69a4,4,0,0,0-1.45.59s-.12,0-.13,0a1.55,1.55,0,0,0,0,.21c-.25-.09-.66-.27-.85-.07C8.25,10.13,8.22,9.83,8.18,9.54ZM9.64,1.12a13.35,13.35,0,0,1,1.78,2.5,11.43,11.43,0,0,0,1.3,2.22c.08.08.24,0,.2-.12a13,13,0,0,0-1.38-2.5A9.09,9.09,0,0,0,9.92,1.14c.35,0,.68.06,1,.11a.07.07,0,0,0,0,.07c1.41,1.46,2,3.73,3.61,5-.84,0-1.68-.06-2.52,0H12A8.35,8.35,0,0,1,11.18,5a16.49,16.49,0,0,0-1-1.63A7.63,7.63,0,0,1,8.53,1.06ZM10,3.64c.47.67.83,1.4,1.25,2.1.11.17.21.41.35.61l-1,.05a4.07,4.07,0,0,0-.37-.55c-.35-.52-.66-1.07-1-1.61C8.53,3.15,7.86,2,7.17.94,7.56,1,8,1,8.34,1.05,8.46,2.1,9.4,2.82,10,3.64Zm-1.13.64a13.41,13.41,0,0,0,1.3,2.12h-.2a6.19,6.19,0,0,0-.86,0A18.06,18.06,0,0,0,7,2.79,18.59,18.59,0,0,0,5.72.61,6.1,6.1,0,0,0,6.93.9,18.41,18.41,0,0,0,8.83,4.28Zm4.36-2.6c.86,1,1.65,2.12,2.48,3.17A10.14,10.14,0,0,0,17,6.34l-.9,0a.08.08,0,0,0,0,0A1.86,1.86,0,0,1,15.86,6a.11.11,0,0,0-.13,0c-1.14-1.38-2-3-3.11-4.37Zm-.34,9.91a1.32,1.32,0,0,0-.16-.25l.17,0A2.72,2.72,0,0,0,12.85,11.59Zm-4.55-1h0c.12,0,.25,0,.38,0l.42.12a7.43,7.43,0,0,0,.09.81,5.61,5.61,0,0,1-.82,0Zm2.78,2.24c-.07-.38-.11-.76-.15-1.14l.62-.14a10.55,10.55,0,0,1,.07,1.13l-.54.16ZM12.27,11c-.21-.14-.43-.27-.62-.38a.2.2,0,0,1,0-.07l.6,0Zm-1.67-.09q-.22.25-.42.51,0-.37-.09-.75l.47-.07C10.57,10.68,10.59,10.78,10.6,10.89Zm.16-.33.14,0-.11.13Zm-.12.84v0h0Zm.21-.28c.12-.15.23-.3.35-.43l.27.17c0,.14,0,.27,0,.41l-.63.12C10.88,11.3,10.86,11.21,10.85,11.12Zm.87-.11.25.16-.21.05C11.75,11.15,11.73,11.08,11.72,11Zm.17,1c0-.17-.05-.35-.08-.52l.11,0,.36-.07v0c0,.34,0,.69.05,1l0,0-.43.13A5.69,5.69,0,0,0,11.89,12Zm.71-1c0-.16,0-.32-.07-.48l.33-.05V11Zm.11-2.58a12.81,12.81,0,0,1,.14,1.77,2.26,2.26,0,0,0-.39-.07c-.06-.33-.13-.66-.21-1A5.48,5.48,0,0,0,12.71,8.47Zm-.61.89c0,.27.07.53.1.8a4.24,4.24,0,0,0-.62,0c0-.14-.05-.29-.08-.43l.32-.16A3.11,3.11,0,0,0,12.1,9.36Zm-.76.46c0,.12,0,.25.05.37l-.37,0-.33,0a1.6,1.6,0,0,0,0-.21C10.88,10,11.11,9.9,11.34,9.82Zm-.86.24,0,.19a3.46,3.46,0,0,0-.48.07,0,0,0,0,1,0,0c0-.09-.18-.07-.17,0a.13.13,0,0,1,0,.06,1.44,1.44,0,0,0-.41.21s0,0,0,.05,0-.1,0-.15A3.43,3.43,0,0,1,10.48,10.06Zm-1,.65a.11.11,0,0,0,.11,0l.34-.07c0,.28,0,.57,0,.85l-.37,0A4.32,4.32,0,0,0,9.44,10.71Zm.33,1.22-.21.26a1.93,1.93,0,0,0,0-.24Zm.15.27v.17L9.8,12.3Zm.29-.28.06-.07.39-.07c0,.34.05.67.09,1l0,.18-.07,0a3.6,3.6,0,0,0-.47-.39Zm.08,1.17h0Zm1,.51c0-.14-.06-.27-.09-.41l.45-.14v.22Zm.64-.63,0,0,0,.06Zm-2.33-.39.37.24c0,.11,0,.23,0,.34l-.39.07Zm.87,1.62a6.83,6.83,0,0,1-.12-.77l.28-.07a3.24,3.24,0,0,1,.29.34,1.7,1.7,0,0,0,.13.4.11.11,0,0,0,.2,0,.08.08,0,0,0,0,0,.14.14,0,0,0,.08-.05l.42-.39a.26.26,0,0,0,.11.07c.1,0,.2-.09.13-.18l0-.08q.21-.2.42-.42l0,.67a3.37,3.37,0,0,1-.74.33,6.29,6.29,0,0,1-1.26.33A.14.14,0,0,0,10.43,14.2Zm2.38-1.84a.36.36,0,0,0,0-.09v.08Zm.29-.75c0-.11,0-.22,0-.34.6-.1,1.2-.2,1.79-.33a17.93,17.93,0,0,0,2.46-.55,3.24,3.24,0,0,0,.13,1l-3.74.73-.56.13C13.14,12,13.11,11.81,13.1,11.61Zm4.52.12c.16.27.31.58.08.83a4.93,4.93,0,0,1-.83-.68Zm2-4.36c0,.24.08.71-.14.88a.32.32,0,0,1-.44-.1,1.13,1.13,0,0,1,0-.58,4.28,4.28,0,0,0,0-1h0l.43,0a.08.08,0,0,0,0,0A5.62,5.62,0,0,0,19.59,7.37ZM19.92,6A52,52,0,0,1,15.58,2,10.53,10.53,0,0,1,17,2.42a48.53,48.53,0,0,0,3.61,3.7h-.66A.12.12,0,0,0,19.92,6Zm1.53.48a.14.14,0,0,0,0,.07c0,.55.11,1.1.16,1.64s.26,1.5,0,1.91-.35-.77-.35-1a24.38,24.38,0,0,0-.13-2.56v0Zm2.67,2.2c.16.65-1.67.49-2,.39h0c0-.06,0-.13,0-.19A10.63,10.63,0,0,0,24.12,8.64Zm-.75-2.77A26.56,26.56,0,0,0,21.2,4C20.5,3.3,19.82,2.63,19.1,2l.79.07A18.69,18.69,0,0,0,22,3.94c.75.62,1.42,1.3,2.12,2H24L23.4,6A.13.13,0,0,0,23.37,5.87Zm4-.37a3.87,3.87,0,0,0-.49,0,6.59,6.59,0,0,0-1.58-1.58c-.63-.51-1.26-1-1.91-1.5a11.22,11.22,0,0,1,1.71.33C25.62,3.8,27,4.34,27.39,5.5Zm1.9,0a2.55,2.55,0,0,0-.07.67h-.56l0-.5Zm-.9.73a.06.06,0,0,0,0,.06,13.71,13.71,0,0,0,0,1.57,6.77,6.77,0,0,1-.77.22,3.74,3.74,0,0,1-1.07.16c0-.71-.07-1.41-.12-2.11A6.69,6.69,0,0,0,27.31,6c.37-.07.75-.16,1.12-.25C28.41,5.94,28.4,6.1,28.39,6.27ZM26,6.11l.13,0c.05.81.13,1.62.12,2.43C25.82,8.33,25.91,6.46,26,6.11Zm6,.07.06,0A.15.15,0,0,0,32,6.18Zm3.89.09a6,6,0,0,1-.84.09,1.19,1.19,0,0,0-.12-.55,2.26,2.26,0,0,1-.17-.63C35.08,5.55,35.49,5.88,35.84,6.27ZM33.72,4c.24.3.45.62.7.91l.13.14a.05.05,0,0,0,0,0,2.06,2.06,0,0,0,.07.7,4.08,4.08,0,0,0,.16.6h-.09a.14.14,0,0,0,0-.07,3,3,0,0,0-.29-.89,2.75,2.75,0,0,0-.49-.82c-.06-.08-.17,0-.13.1a4.1,4.1,0,0,1,.35.9,3,3,0,0,0,.28.77c-.44,0-.88,0-1.32-.07A1.88,1.88,0,0,0,33,5.71a5.11,5.11,0,0,0-.41-1.59.08.08,0,0,0-.15.06c.16.66,0,1.44.24,2.08h-.3l-.38,0a.08.08,0,0,1,0,0A.81.81,0,0,0,32,6a5.27,5.27,0,0,0,0-.56,3.19,3.19,0,0,0-.28-1.15c0-.07-.16,0-.15,0,.06.58,0,1.14.05,1.72a.75.75,0,0,0,0,.2H31c0-.74.17-1.45.11-2.19A.09.09,0,0,0,31,3.94,16.23,16.23,0,0,0,33.72,4Zm-2.7,0a.08.08,0,0,0-.09.08c0,.74-.32,1.45-.31,2.19h-.39a3.74,3.74,0,0,0,.19-.94,3.83,3.83,0,0,0,0-1.35s0,0,0,0l.41.05Zm-.73-.08a.12.12,0,0,0-.08.09c0,.45-.05.89-.12,1.34s-.13.61-.15.92h-.41c.07-.41.15-.8.24-1.21a3.37,3.37,0,0,0,.09-1.14c0-.1-.16-.06-.17,0a5.44,5.44,0,0,1-.29,1.24,9.65,9.65,0,0,0-1.18-1.23A3.32,3.32,0,0,1,30.29,3.86ZM27,3.45a7.14,7.14,0,0,1,.93.71,8.94,8.94,0,0,1,1.13,1.09l-1.25.31a3.66,3.66,0,0,0-1-1.54l-.72-.73A1.64,1.64,0,0,1,27,3.45ZM21.64,2.21s0,0,0,0a19.42,19.42,0,0,1,1.87,1.64A20.11,20.11,0,0,1,25,5.42a.09.09,0,0,0,0,.07l.09.08a.14.14,0,0,0,.23-.13c0-.26-.38-.48-.55-.66-.34-.34-.67-.69-1-1A12.78,12.78,0,0,0,22,2.24c.45,0,.9.06,1.34.12a.11.11,0,0,0,0,.14,11.41,11.41,0,0,0,1.77,1.63c.5.42.94.9,1.41,1.35h0a.13.13,0,0,0-.09.1c-.29,0-.62.14-.83.17l-1.07.13a.14.14,0,0,0-.06-.13h0a10.66,10.66,0,0,0-2.14-2c-.66-.54-1.32-1.08-2-1.6l.29,0ZM18.82,2c.71.81,1.49,1.56,2.28,2.3a12.1,12.1,0,0,0,2,1.73l-.8,0s0-.07,0-.09a2.79,2.79,0,0,0-.85-.79.09.09,0,0,0-.07,0c-.7-.71-1.47-1.38-2.21-2-.54-.47-1.14-.85-1.65-1.34.23.05.45.1.66.13Zm-1.73-.28c.4.73,1.2,1.12,1.8,1.66a27.34,27.34,0,0,0,2.46,2.23.14.14,0,0,0,.15,0,.37.37,0,0,1,.12.31.24.24,0,0,1-.12.19l-.24,0a.07.07,0,0,0-.06,0H21a24.89,24.89,0,0,0-3.74-3.73.17.17,0,0,0-.05-.24,4.15,4.15,0,0,0-1.08-.41A1.75,1.75,0,0,1,17.09,1.68ZM15.27,2a24.4,24.4,0,0,0,4.41,4.15l-.38,0-.44,0a.12.12,0,0,0-.08,0c-.15,0-.75-.62-.87-.73-.51-.48-1-1-1.49-1.48-.68-.7-1.34-1.42-2-2.11Zm-1.16-.17c.91,1,1.77,2,2.7,3a10.21,10.21,0,0,0,1.42,1.44l-1,.07v0A14.11,14.11,0,0,0,16,4.77c-.84-1-1.66-2.06-2.54-3l.37.05Zm-1.77-.3C13.58,3,14.28,5,15.66,6.38h-.55c-1.51-1.55-2.37-3.6-3.93-5.08C11.57,1.35,12,1.44,12.34,1.51ZM.39,6.2.53,6C1,5.39,1.47,4.71,2,4.08,2.8,3,4,2.09,4.54.84a.08.08,0,0,0,.07,0A1.74,1.74,0,0,0,5.06.33l.23.11A17,17,0,0,1,6.91,3.13c.64,1,1.18,2.05,1.73,3.1h0c-.08,0-.12.08-.12.15-.2.05-.41-.08-.61-.31V6a.15.15,0,0,0-.12-.1A13.87,13.87,0,0,1,6.62,3.7,6.21,6.21,0,0,0,5.14,1.45a.15.15,0,0,0-.23,0A16.6,16.6,0,0,1,2.56,4.22C2.41,4.39.71,6.36.39,6.2Zm.89,0A7.7,7.7,0,0,0,2.5,4.77C3,4.2,3.5,3.7,4,3.17c.25-.26,1-1.33,1.17-1.28C5.74,2,6.61,5,7.6,6.23a11.64,11.64,0,0,1,0,1.67c.06.68.24,1.33.3,2s.14,1.61.21,2.42h0a5.35,5.35,0,0,1-1.2-.59,9.87,9.87,0,0,0-1.57-.5A13.62,13.62,0,0,1,1.78,9.92a.15.15,0,0,0-.13,0v0c0-.52-.08-1-.13-1.55A7,7,0,0,0,1.28,6.15ZM7.5,13.47a0,0,0,0,1,0,0l-.44-.12a11.29,11.29,0,0,1-.23-1.27,5.24,5.24,0,0,1,.48.23l.22.12A3.11,3.11,0,0,0,7.5,13.47ZM6.72,14c-.24-.11-.47-.21-.71-.3a.27.27,0,0,0,0-.18v-.07l.64.17A2.32,2.32,0,0,0,6.72,14Zm-2-1.28c-.08-.43-.16-.9-.21-1.34l.56.15.21.06a.09.09,0,0,0,0,.07c.24.16.23.8.24,1a2.72,2.72,0,0,1,0,.28Zm-.33.44L3.7,13v-.26l.68.24A1.23,1.23,0,0,0,4.4,13.14Zm-.74-.83c0-.2-.05-.4-.08-.58a2.77,2.77,0,0,0-.15-.68c.29.1.59.18.88.26,0,.42,0,.84,0,1.27ZM1.82,10.66a.12.12,0,0,0-.14-.1c0-.13,0-.26,0-.41a3.54,3.54,0,0,0,.46.33s0,0,0,0c0,.32,0,.63,0,1a1.25,1.25,0,0,1-.3-.36A3.4,3.4,0,0,0,1.82,10.66Zm.64,1a.77.77,0,0,1,0-.15c0-.32-.08-.64-.15-1a5.51,5.51,0,0,0,.78.36c0,.34.13.7.15,1a.66.66,0,0,0,0,.14A7.22,7.22,0,0,1,2.46,11.68Zm3.44.61a1.85,1.85,0,0,0-.21-.61q.48.15.93.33a4.29,4.29,0,0,0,0,1.24L6,13.09A6.4,6.4,0,0,0,5.9,12.29Zm-4-.55.3.21a1.19,1.19,0,0,0,.23.65A1.06,1.06,0,0,1,1.89,11.74Zm.85,1-.09,0a.13.13,0,0,0,.07-.14,3.2,3.2,0,0,0-.16-.39,6.16,6.16,0,0,0,.68.34,2.19,2.19,0,0,0,0,.36Zm2.08.53s0-.12,0-.18l.79.23a1.49,1.49,0,0,0,0,.21Zm2.73,1.05-.3-.1a1.85,1.85,0,0,0-.08-.47l.35.1C7.52,14,7.54,14.15,7.55,14.31Zm.36-.92a5.43,5.43,0,0,0-.09-.81.57.57,0,0,0,.29,0h0c0,.38.06.77.1,1.16l-.3-.1A1.94,1.94,0,0,0,7.91,13.39Zm.87,1.24c0-.25-.06-.51-.13-.75a.11.11,0,0,0-.09-.06.86.86,0,0,1,0-.16,1,1,0,0,0,.68.05,3.22,3.22,0,0,0,.11.92A2.62,2.62,0,0,1,8.78,14.63Zm.74.23a.25.25,0,0,0,0-.08.21.21,0,0,0,.16-.11,3.93,3.93,0,0,0,1.94-.3,5,5,0,0,0,1-.38l.08-.05a1.07,1.07,0,0,0,.39-.4,1.69,1.69,0,0,0,.12-.93l.24-.06c1-.22,2.09-.41,3.14-.61.21.43.66.65,1,.94a.17.17,0,0,0,.2,0A.89.89,0,0,0,18,11.67a9.5,9.5,0,0,0,2.74-.6l0,0A.47.47,0,0,0,21.2,11a.56.56,0,0,0,.22-.18s.07,0,.1,0c.57-.2,1.14-.39,1.72-.55a.12.12,0,0,0,0,.12c.11.11.35.22.37.39a.6.6,0,0,1-.12.32,2.67,2.67,0,0,1-.7-.51.11.11,0,0,0-.18.13,1.8,1.8,0,0,0,.87.69.14.14,0,0,0,.19-.06,1.07,1.07,0,0,0,.23-.62.78.78,0,0,0-.45-.52c.47-.13.94-.24,1.43-.33a4.16,4.16,0,0,0,1.24-.29h.07a8,8,0,0,1,2.43-.23c.13,0,.18-.13.17-.22a.92.92,0,0,1,0-.16C29.38,9,30,9,30.52,9a2.74,2.74,0,0,0-.14,1.12,3,3,0,0,0,0,1.27c.15.27.5.29.78.32.81.09,1.63.09,2.44.14-.47.41-1,.8-1.48,1.18a.15.15,0,0,0-.16.11v0c-.44.33-.89.65-1.32,1a8.36,8.36,0,0,0-2.58-.35c-.84,0-1.67,0-2.51-.05-1.24-.07-2.45-.37-3.67-.54a1.88,1.88,0,0,0,0-.53,3.32,3.32,0,0,0-.23-1,.16.16,0,0,0-.18-.08c-.3.12-2,.2-1.58.86h-.06a.09.09,0,0,0-.05.14A15.92,15.92,0,0,0,20,15.85c-1-.52-2.46-.37-3.47-.45C14.2,15.21,11.86,15,9.52,14.86Zm10.8,1c0-1-.23-2.11-.34-3.16a.76.76,0,0,1,.28,0,1.06,1.06,0,0,1,.43.76c0,.27,0,.57,0,.85a5.79,5.79,0,0,1,0,1.81.87.87,0,0,1-.38-.26S20.32,15.87,20.32,15.86Zm.73.46c0-.13.05-.26.07-.39a1.26,1.26,0,0,0,.47.25c0,.1,0,.2,0,.29a2.76,2.76,0,0,1-.51-.16Zm3.12.47c-.15,0-.3,0-.46-.06s-.07-.26-.1-.38l1.3.09H25a1.4,1.4,0,0,0,.05.5Zm3.44.57a3.64,3.64,0,0,0-.1-.79l1.52.07c0,.32.08.64.12.94h0C28.63,17.52,28.12,17.44,27.61,17.36Zm1.92.27a5.19,5.19,0,0,0,0-1l1.26.09.06.77h-.05A2,2,0,0,1,29.53,17.63Zm1.75-.75c0-.17,0-.34-.05-.51.2-.23.39-.46.6-.68a.93.93,0,0,0,.15.45Zm2.4-2.53a2.8,2.8,0,0,0,0-.41c.29-.27.59-.53.89-.79a1.63,1.63,0,0,0,0,.31l-.75.71ZM35,13.12c0-.11,0-.21,0-.32l.62-.58c0,.06,0,.12.05.18h0C35.42,12.65,35.19,12.89,35,13.12Z"/></g></g></svg>